<svg width="351" height="408" viewBox="0 0 351 408" fill="none" xmlns="http://www.w3.org/2000/svg">
<path opacity="0.7" d="M10.8394 160.108V158.073C10.8394 150.824 17.5151 145.415 24.607 146.918C28.7677 147.8 32.0919 150.924 33.2301 155.022L51 219L13.3765 167.84C11.7283 165.599 10.8394 162.89 10.8394 160.108Z" fill="#EA847A"/>
<path d="M368.013 350.542L345.193 339.381C317.988 326.075 282.553 324.174 259.463 304.579C237.616 286.039 219.321 257.654 214.5 257C207.285 256.022 137.452 276.228 126.066 279.543C124.99 279.857 123.958 280.143 122.874 280.429L84.3917 290.578C80.9103 291.496 77.2163 291.151 73.9656 289.603C70.4556 287.931 67.7181 284.98 66.3147 281.355L62.5 271.5L35 257.5L57.1547 283.153C67.6797 295.34 79.638 306.211 92.7699 315.53L117.073 332.778C128.909 341.177 142.281 347.166 156.429 350.403L352.223 395.197C372.588 399.856 388.67 377.928 378.107 359.904C375.737 355.859 372.226 352.602 368.013 350.542Z" fill="#EA847A"/>
<rect width="143.183" height="267.455" rx="15" transform="matrix(-0.965926 0.258819 0.258819 0.965926 138.304 0)" fill="#19141E"/>
<path d="M103.188 83.3085L124.803 77.5168C127.47 76.802 130.212 78.385 130.926 81.0523L136.718 102.667" stroke="white" stroke-width="1.5"/>
<path d="M74.7093 90.9396L53.0943 96.7313C50.4269 97.446 48.844 100.188 49.5587 102.855L55.3505 124.47" stroke="white" stroke-width="1.5"/>
<path d="M126.081 168.746L147.696 162.954C150.363 162.24 151.946 159.498 151.231 156.831L145.44 135.216" stroke="white" stroke-width="1.5"/>
<path d="M97.6018 176.376L75.9869 182.168C73.3195 182.883 70.5778 181.3 69.8631 178.632L64.0714 157.017" stroke="white" stroke-width="1.5"/>
<rect width="24.3141" height="2.3526" rx="1.1763" transform="matrix(-0.965926 0.258819 0.258819 0.965926 88.104 22.3623)" fill="white"/>
<circle r="14.8586" transform="matrix(-0.965926 0.258819 0.258819 0.965926 131.731 252.081)" fill="white"/>
<path d="M169.935 251.89L135.319 255.839C124.818 257.038 116.867 246.552 120.855 236.764C122.23 233.39 124.873 230.69 128.216 229.243L158.25 216.25L165.573 214.243C182.646 209.563 200.821 211.03 216.923 218.385C227.177 223.069 236.253 229.989 243.484 238.636L245.182 240.667C258.326 256.385 276.585 266.974 296.756 270.575L360.768 282.004C366.747 283.071 372.519 285.079 377.871 287.951L405.486 302.772C421.117 311.162 425.936 331.305 415.793 345.86C408.977 355.642 396.966 360.391 385.304 357.917L276.51 334.83C269.2 333.279 261.787 332.258 254.329 331.775L219.8 329.539C218.32 329.443 216.884 329.002 215.605 328.251L211.539 325.862C209.91 324.905 209.205 322.915 209.87 321.146C210.136 320.436 210.605 319.819 211.219 319.372L213.836 317.464L215.653 316.115C216.192 315.714 216.89 315.595 217.532 315.794C219.329 316.35 220.898 314.45 220.012 312.79L194.35 264.708C189.612 255.831 179.932 250.749 169.935 251.89Z" fill="#EA847A"/>
<path d="M67.2232 220.87L51.3585 207.92L45.9577 204.608C38.5686 200.076 28.8805 203.404 25.8356 211.52C23.6056 217.463 25.7212 224.162 30.9606 227.746L54.3837 243.772C59.4695 247.251 66.3221 246.563 70.6138 242.141C75.3115 237.3 75.3883 229.627 70.7884 224.693L67.2232 220.87Z" fill="#EA847A"/>
<path d="M64 252L56.0386 241.724C54.7309 240.036 53.0825 238.643 51.2006 237.634L48.7947 236.345C41.6178 232.498 32.7137 236.148 30.301 243.925C28.5313 249.63 30.8909 255.805 36.0139 258.876L60.0439 273.28C63.3834 275.282 67.6483 274.809 70.4682 272.124C73.8103 268.942 74.0706 263.699 71.0602 260.202L64 252Z" fill="#EA847A"/>
</svg>
