<svg width="368" height="375" viewBox="0 0 368 375" fill="none" xmlns="http://www.w3.org/2000/svg">
<path d="M14 45L12.5 55.5L20.5 53L14 45Z" fill="#4C7A11"/>
<path opacity="0.7" d="M15.2499 61.817L16.4902 62.0799C19.1298 62.6393 21.5446 63.9681 23.4298 65.8985L60.1645 103.513C66.3592 109.856 65.3736 120.243 58.0966 125.308C52.1326 129.459 44.0068 128.495 39.18 123.063L3.18946 82.5641C1.13487 80.2521 0 77.2666 0 74.1736C0 66.1437 7.39451 60.1522 15.2499 61.817Z" fill="#E576C6"/>
<path d="M358.569 276.279L344.748 273.324C312.659 266.464 274.144 268.951 251.896 244.831C235.136 226.661 222.513 202.468 218.049 201.863C210.655 200.86 165.546 180.959 137.033 172.37C133.607 171.338 130.089 170.681 126.536 170.257L91.9584 166.134C79.2318 164.616 67.0512 171.757 62.1583 183.603C57.6196 194.591 60.3574 207.242 69.0332 215.37L167.31 307.449C204.375 342.176 253.263 361.5 304.054 361.5H376.605C381.51 361.5 386.39 362.198 391.099 363.574L407.671 368.415C420.549 372.177 434.341 366.747 441.198 355.215C449.428 341.371 444.993 323.482 431.248 315.086L384.906 286.782C376.782 281.82 367.878 278.269 358.569 276.279Z" fill="#E576C6"/>
<rect width="137.617" height="267.455" rx="15" transform="matrix(-0.965926 0.258819 0.258819 0.965926 142.088 10.4434)" fill="#4C7A11"/>
<path d="M84.0005 293L78.5005 286.5L92.4995 291.501L84.0005 293Z" fill="#4C7A11"/>
<rect width="143.183" height="267.455" rx="15" transform="matrix(-0.965926 0.258819 0.258819 0.965926 148.464 0)" fill="#5E9715"/>
<rect width="126.973" height="186.408" rx="5" transform="matrix(-0.965926 0.258819 0.258819 0.965926 149.027 33.4121)" fill="#7DC422"/>
<path d="M111.704 91.0261L127.228 86.8664C129.896 86.1517 132.637 87.7346 133.352 90.4019L137.512 105.926" stroke="#4C7A11" stroke-width="2"/>
<path d="M89.7843 96.8996L74.2598 101.059C71.5925 101.774 70.0096 104.516 70.7243 107.183L74.8841 122.708" stroke="#4C7A11" stroke-width="2"/>
<path d="M129.325 156.787L144.849 152.627C147.516 151.912 149.099 149.171 148.385 146.503L144.225 130.979" stroke="#4C7A11" stroke-width="2"/>
<path d="M107.404 162.659L91.8799 166.819C89.2126 167.534 86.4709 165.951 85.7562 163.284L81.5964 147.759" stroke="#4C7A11" stroke-width="2"/>
<rect width="24.3141" height="8.10468" rx="4.05234" transform="matrix(-0.965926 0.258819 0.258819 0.965926 94.5513 28.4307)" fill="#4C7A11"/>
<circle r="13.8586" transform="matrix(-0.965926 0.258819 0.258819 0.965926 141.892 252.081)" stroke="#4C7A11" stroke-width="2"/>
<path d="M195.147 149.316L221.234 180.794C224.578 184.829 228.485 188.362 232.835 191.285L254.645 205.939C277.771 221.476 306.296 226.75 333.448 220.509L352.99 216.017C364.198 213.44 375.962 215.021 386.093 220.466L402.499 229.283C418.747 238.016 423.758 258.957 413.221 274.098C407.354 282.529 397.677 287.489 387.407 287.329L270 285.5L195.482 286.952C193.859 286.983 192.259 286.564 190.86 285.741L187.215 283.597C185.646 282.674 184.967 280.756 185.606 279.05C185.863 278.365 186.315 277.77 186.906 277.339L189.425 275.5L192 273.585C212.692 257.097 217.449 227.576 202.983 205.422L201.025 202.424L172.365 168.333C167.164 162.146 167.871 152.935 173.955 147.614C180.24 142.119 189.82 142.888 195.147 149.316Z" fill="#E576C6"/>
<path d="M64.6349 145.419L46.3875 126.114L41.5592 122.091C34.8795 116.526 24.7823 118.429 20.5875 126.045C17.5341 131.588 18.632 138.497 23.2536 142.821L54.1858 171.759C57.6498 175 62.8598 175.507 66.8833 172.994C70.7795 170.562 72.6348 165.873 71.4585 161.433L69.5585 154.261C68.6811 150.949 66.9884 147.909 64.6349 145.419Z" fill="#E576C6"/>
<path d="M60.7112 175.818L43.5564 157.668L39.0172 153.886C32.7374 148.654 23.2448 150.444 19.3012 157.603C16.4305 162.815 17.4628 169.31 21.8076 173.375L50.8878 200.581C54.1444 203.627 59.0424 204.104 62.8251 201.742C66.488 199.455 68.2322 195.047 67.1263 190.873L65.3401 184.13C64.5152 181.016 62.9239 178.159 60.7112 175.818Z" fill="#E576C6"/>
</svg>
