<svg width="423" height="451" viewBox="0 0 423 451" fill="none" xmlns="http://www.w3.org/2000/svg">
<path d="M247.847 162.739L226.425 136.936C221.862 131.44 215.754 127.439 208.893 125.453L172.128 114.81C165.674 112.941 159.425 110.427 153.476 107.306L-0.60501 26.4631C-12.5167 20.2133 -27.2211 23.8776 -34.8072 34.9861C-42.9622 46.9278 -40.0404 63.2022 -28.2406 71.5612L108.179 168.202C128.272 182.435 152.91 188.755 177.373 185.951L189.827 184.524C196.32 183.779 202.723 182.401 208.947 180.407L212.871 179.15L220.639 177.548C224.147 176.824 227.787 177.859 230.389 180.32C233.363 183.134 237.657 184.056 241.524 182.711L242.365 182.419C250.56 179.569 253.388 169.414 247.847 162.739Z" fill="#EA847A"/>
<path fill-rule="evenodd" clip-rule="evenodd" d="M259.211 298.655L279.971 295.754L278.414 314.066C275.512 323.052 264.939 321.632 258.053 317.594L259.211 298.655Z" fill="#629224"/>
<path fill-rule="evenodd" clip-rule="evenodd" d="M250.864 305.813L233.953 318.057L232.812 338.412L236.644 331.945L243.906 335.547C246.41 337.125 250.952 336.828 253.836 334.557L274.065 319.486C269.047 321.47 264.591 320.413 260.041 318.156L247.774 312.071L250.864 305.813Z" fill="#629224"/>
<path fill-rule="evenodd" clip-rule="evenodd" d="M239.351 278.148L229.802 260.481L245.688 250.415C254.217 247.485 256.652 258.307 255.626 267.314L239.351 278.148Z" fill="#629224"/>
<path fill-rule="evenodd" clip-rule="evenodd" d="M251.142 282.763L267.383 291.038L285.035 279.146L278.223 279.626L278.761 270.426C279.232 267.04 277.407 262.91 274.48 261.616L254.692 251.99C258.113 255.496 258.762 260.405 258.426 266.171L257.519 281.712L251.142 282.763Z" fill="#629224"/>
<path fill-rule="evenodd" clip-rule="evenodd" d="M213.757 261.876L216.17 268.377L206.413 275.777C201.741 279.104 203.167 285.309 204.765 288.016C206.339 290.681 209.954 292.698 213.453 294.365L226.077 285.939L229.199 291.16L230.495 269.975L213.757 261.876L213.757 261.876Z" fill="#629224"/>
<path fill-rule="evenodd" clip-rule="evenodd" d="M203.616 283.204L202.032 309.612C202.447 313.596 205.933 316.22 210.006 318.104L220.788 323.457L231.967 303.252L211.613 292.942C208.32 291.583 204.583 288.767 203.616 283.204Z" fill="#629224"/>
<path d="M237.671 300.296L245.17 285.986L241.834 285.127L243.161 282.595L248.541 282.946L250.582 284.015L241.106 302.096L237.671 300.296Z" fill="#629224"/>
<path d="M340.636 61.4107C341.178 60.3765 342.456 59.9775 343.49 60.5195C344.525 61.0616 344.924 62.3394 344.382 63.3736L336.53 78.3548C335.988 79.389 334.71 79.788 333.676 79.246C332.642 78.704 332.243 77.4262 332.785 76.3919L340.636 61.4107Z" fill="#629224"/>
<path d="M351.872 67.2994C352.414 66.2652 353.692 65.8662 354.726 66.4082C355.76 66.9502 356.159 68.2281 355.617 69.2623L347.766 84.2435C347.224 85.2777 345.946 85.6767 344.912 85.1347C343.877 84.5926 343.478 83.3148 344.021 82.2806L351.872 67.2994Z" fill="#629224"/>
<path d="M363.108 73.1891C363.65 72.1548 364.928 71.7558 365.962 72.2978C366.997 72.8399 367.396 74.1177 366.854 75.1519L359.002 90.1331C358.46 91.1674 357.182 91.5664 356.148 91.0243C355.114 90.4823 354.715 89.2045 355.257 88.1702L363.108 73.1891Z" fill="#629224"/>
<path d="M223.727 159.448C234.184 139.497 249.764 122.689 268.867 110.753L320.765 78.3262C323.312 76.7348 326.512 76.6135 329.172 78.0077L358.036 93.1348C360.696 94.5289 362.417 97.2292 362.558 100.229L365.424 161.358C366.479 183.859 361.524 206.235 351.067 226.186L253.188 412.946C242.347 433.631 216.79 441.611 196.106 430.77L143.672 403.29C122.987 392.449 115.007 366.893 125.848 346.208L223.727 159.448Z" fill="#E5E5E5"/>
<path d="M207.308 190.777L334.648 257.515L275.761 369.874L148.421 303.136L207.308 190.777Z" fill="#7DC322"/>
<path fill-rule="evenodd" clip-rule="evenodd" d="M256.211 288.655L276.971 285.754L275.414 304.066C272.512 313.052 261.939 311.632 255.053 307.594L256.211 288.655Z" fill="#4C7A11"/>
<path fill-rule="evenodd" clip-rule="evenodd" d="M247.864 295.813L230.953 308.057L229.812 328.412L233.644 321.945L240.906 325.547C243.41 327.125 247.952 326.828 250.836 324.557L271.065 309.486C266.047 311.47 261.591 310.413 257.041 308.156L244.774 302.071L247.864 295.813Z" fill="#4C7A11"/>
<path fill-rule="evenodd" clip-rule="evenodd" d="M236.351 268.148L226.802 250.481L242.688 240.415C251.217 237.485 253.652 248.307 252.626 257.314L236.351 268.148Z" fill="#4C7A11"/>
<path fill-rule="evenodd" clip-rule="evenodd" d="M248.142 272.763L264.383 281.038L282.035 269.146L275.223 269.626L275.761 260.426C276.232 257.04 274.407 252.91 271.48 251.616L251.692 241.99C255.113 245.496 255.762 250.405 255.426 256.171L254.519 271.712L248.142 272.763Z" fill="#4C7A11"/>
<path fill-rule="evenodd" clip-rule="evenodd" d="M210.757 251.876L213.17 258.377L203.413 265.777C198.741 269.104 200.167 275.309 201.765 278.016C203.339 280.681 206.954 282.698 210.453 284.365L223.077 275.939L226.199 281.16L227.495 259.975L210.757 251.876L210.757 251.876Z" fill="#4C7A11"/>
<path fill-rule="evenodd" clip-rule="evenodd" d="M200.616 273.204L199.032 299.612C199.447 303.596 202.933 306.22 207.006 308.104L217.788 313.457L228.967 293.252L208.613 282.942C205.32 281.583 201.583 278.767 200.616 273.204Z" fill="#4C7A11"/>
<path d="M234.671 290.296L242.17 275.986L238.834 275.127L240.161 272.595L245.541 272.946L247.582 274.015L238.106 292.096L234.671 290.296Z" fill="#4C7A11"/>
<path d="M326.482 72.6943C327.764 70.2484 330.786 69.3048 333.232 70.5866L361.828 85.5735C364.273 86.8553 365.217 89.8773 363.935 92.3231L362.689 94.7017C361.407 97.1476 358.385 98.0912 355.939 96.8094L327.343 81.8225C324.897 80.5407 323.954 77.5187 325.236 75.0729L326.482 72.6943Z" fill="#D3D3D3"/>
<path d="M331.127 45.6135C332.212 43.545 334.767 42.747 336.836 43.8311L381.779 67.3857C383.848 68.4698 384.646 71.0254 383.562 73.0939L373.747 91.8203C372.663 93.8888 370.107 94.6868 368.039 93.6028L323.095 70.0481C321.027 68.9641 320.229 66.4084 321.313 64.3399L331.127 45.6135Z" fill="#94C653"/>
<path d="M337.636 51.4117C338.178 50.3775 339.456 49.9785 340.49 50.5205C341.525 51.0625 341.924 52.3404 341.382 53.3746L333.53 68.3558C332.988 69.39 331.71 69.789 330.676 69.247C329.642 68.7049 329.243 67.4271 329.785 66.3929L337.636 51.4117Z" fill="#7FAB45"/>
<path d="M348.872 57.3004C349.414 56.2661 350.692 55.8671 351.726 56.4092C352.76 56.9512 353.159 58.229 352.617 59.2633L344.766 74.2445C344.224 75.2787 342.946 75.6777 341.912 75.1357C340.877 74.5936 340.478 73.3158 341.021 72.2816L348.872 57.3004Z" fill="#7FAB45"/>
<path d="M360.108 63.19C360.65 62.1558 361.928 61.7568 362.962 62.2988C363.997 62.8409 364.396 64.1187 363.854 65.1529L356.002 80.1341C355.46 81.1683 354.182 81.5673 353.148 81.0253C352.114 80.4833 351.715 79.2054 352.257 78.1712L360.108 63.19Z" fill="#7FAB45"/>
<path d="M371.344 69.0777C371.886 68.0435 373.164 67.6445 374.198 68.1865C375.233 68.7286 375.632 70.0064 375.09 71.0406L367.238 86.0218C366.696 87.056 365.418 87.455 364.384 86.913C363.35 86.371 362.951 85.0931 363.493 84.0589L371.344 69.0777Z" fill="#7FAB45"/>
<path d="M162.514 217.927L57.9237 173.967C46.6717 169.238 34.649 166.609 22.4501 166.209L-29.0212 164.523C-48.1694 163.896 -65.8603 154.14 -76.6086 138.281C-101.341 101.787 -79.4722 51.9852 -35.867 45.4999L-14.4519 42.3148C11.7756 38.414 38.0702 48.9485 54.3496 69.8789L64.4189 82.8249C74.9617 96.3798 88.8175 106.991 104.652 113.637L209.305 157.564C216.726 160.679 219.553 169.726 215.226 176.512L212.504 181.14C211.28 183.221 209.735 185.097 207.927 186.698C203.839 190.317 201.172 195.273 200.404 200.679L200.288 201.501C199.508 206.996 200.56 212.595 203.283 217.432L206.909 223.875L213.969 238.31C216.514 243.514 215.574 249.75 211.608 253.973C205.23 260.764 194.113 259.504 189.416 251.459L177.528 231.098C174.083 225.197 168.813 220.574 162.514 217.927Z" fill="#EA847A"/>
</svg>
