<svg width="105" height="124" viewBox="0 0 105 124" fill="none" xmlns="http://www.w3.org/2000/svg">
<path d="M66.7358 94.3205L64.3977 77.9821L68.9658 77.441C72.3422 77.0411 75.3854 76.3785 78.0954 75.4533C80.8053 74.5281 82.8859 73.1069 84.3371 71.1895C85.7884 69.2722 86.3179 66.6584 85.9258 63.3482C85.5494 60.1704 84.2954 57.8015 82.1637 56.2414C80.0243 54.6151 77.3656 53.9902 74.1878 54.3666C70.8776 54.7587 68.4055 55.9914 66.7713 58.0646C65.1294 60.0717 64.4927 62.631 64.8612 65.7426L52.8452 67.1659C52.3085 63.2015 52.7496 59.5577 54.1686 56.2344C55.5875 52.9111 57.8793 50.1557 61.044 47.9682C64.2748 45.773 68.2736 44.393 73.0403 43.8284C77.4759 43.303 81.48 43.6679 85.0524 44.923C88.6911 46.1704 91.6546 48.2361 93.9431 51.1203C96.29 53.9304 97.7261 57.5533 98.2515 61.9889C98.7926 66.557 98.2134 70.4522 96.514 73.6744C94.8807 76.8889 92.396 79.4321 89.0597 81.3042C85.7896 83.1685 81.8745 84.4043 77.3143 85.0116L77.9574 92.9913L66.7358 94.3205ZM75.0429 115.994C72.7257 116.268 70.7196 115.767 69.0243 114.491C67.3953 113.207 66.4593 111.539 66.2162 109.487C65.9652 107.368 66.4818 105.495 67.7657 103.866C69.1159 102.229 70.9495 101.273 73.2667 100.999C75.5838 100.724 77.5569 101.229 79.1859 102.513C80.8149 103.797 81.7549 105.498 82.0058 107.617C82.2489 109.669 81.7285 111.51 80.4445 113.139C79.1605 114.768 77.36 115.719 75.0429 115.994Z" fill="black"/>
<path opacity="0.3" d="M26.9125 71.0299L24.329 64.9857L26.0305 64.3066C27.2881 63.8048 28.3905 63.2362 29.3377 62.6009C30.2848 61.9657 30.9387 61.2045 31.2993 60.3173C31.66 59.4301 31.5942 58.37 31.1022 57.1371C30.6298 55.9534 29.9032 55.1713 28.9224 54.7909C27.9317 54.3858 26.8446 54.4195 25.6609 54.8918C24.4279 55.3839 23.604 56.1129 23.189 57.0789C22.7643 58.0203 22.7831 59.0705 23.2456 60.2295L18.7699 62.0156C18.1548 60.5458 17.9489 59.0986 18.1522 57.6739C18.3555 56.2492 18.9531 54.953 19.945 53.7853C20.9616 52.6077 22.3577 51.6647 24.1332 50.9562C25.7854 50.2968 27.3633 50.0245 28.867 50.1391C30.3953 50.2438 31.7483 50.733 32.926 51.6067C34.1184 52.4458 35.0443 53.6915 35.7037 55.3437C36.3827 57.0452 36.5614 58.6033 36.2398 60.0181C35.9428 61.423 35.2491 62.6575 34.1586 63.7216C33.0928 64.7758 31.7141 65.6547 30.0224 66.3584L31.0923 69.3619L26.9125 71.0299ZM32.3422 78.5112C31.4791 78.8556 30.6557 78.8697 29.8721 78.5535C29.1131 78.2275 28.581 77.6823 28.276 76.9178C27.961 76.1287 27.9666 75.3547 28.2926 74.5957C28.6433 73.8268 29.2502 73.2702 30.1133 72.9257C30.9764 72.5813 31.7874 72.5721 32.5464 72.8981C33.3054 73.2241 33.8424 73.7817 34.1573 74.5708C34.4624 75.3353 34.4519 76.097 34.1259 76.856C33.7999 77.615 33.2053 78.1667 32.3422 78.5112Z" fill="black"/>
<path opacity="0.3" d="M45.2644 33.0355L43.9951 27.3896L45.5767 27.0741C46.7458 26.8409 47.7911 26.5251 48.7127 26.1267C49.6342 25.7284 50.3221 25.174 50.7763 24.4637C51.2304 23.7534 51.3432 22.8252 51.1146 21.6791C50.8951 20.5788 50.3912 19.7855 49.603 19.2993C48.8102 18.79 47.8637 18.6452 46.7634 18.8647C45.6173 19.0933 44.7873 19.5926 44.2735 20.3625C43.7552 21.1094 43.6034 22.0215 43.8184 23.0989L39.658 23.9289C39.3607 22.5581 39.414 21.2723 39.818 20.0715C40.222 18.8707 40.9467 17.8442 41.9923 16.9921C43.0608 16.1354 44.4203 15.5424 46.0707 15.2132C47.6065 14.9068 49.016 14.9235 50.2994 15.2633C51.6057 15.5986 52.6987 16.2386 53.5784 17.1834C54.4764 18.1006 55.0786 19.3271 55.385 20.8629C55.7005 22.4446 55.6059 23.822 55.1011 24.9953C54.6192 26.164 53.8211 27.1217 52.7068 27.8683C51.6154 28.6104 50.2812 29.1507 48.7041 29.4891L49.1497 32.2604L45.2644 33.0355ZM48.7676 40.3808C47.9653 40.5409 47.2503 40.4213 46.6225 40.0222C46.0176 39.6185 45.6442 39.0614 45.5025 38.3508C45.3561 37.6173 45.4848 36.9481 45.8885 36.3432C46.3151 35.7337 46.9296 35.3489 47.7319 35.1889C48.5341 35.0288 49.2377 35.1507 49.8426 35.5543C50.4475 35.958 50.8231 36.5266 50.9695 37.2602C51.1112 37.9708 50.9803 38.6285 50.5766 39.2334C50.1729 39.8383 49.5699 40.2208 48.7676 40.3808Z" fill="black"/>
<path opacity="0.3" d="M13.4625 30.193L10.3868 25.2913L11.7733 24.4674C12.7981 23.8585 13.6788 23.2129 14.4153 22.5306C15.1518 21.8482 15.616 21.0966 15.808 20.2756C15.9999 19.4547 15.7973 18.5418 15.2004 17.5371C14.6272 16.5726 13.8881 15.9922 12.983 15.7959C12.0659 15.5795 11.1252 15.7579 10.1606 16.331C9.1559 16.928 8.53937 17.675 8.31105 18.5719C8.07078 19.4488 8.23124 20.3594 8.79241 21.3039L5.14527 23.471C4.40879 22.2772 4.03123 21.047 4.0126 19.7802C3.99397 18.5133 4.33588 17.3042 5.03832 16.1527C5.76085 14.9893 6.84552 13.9777 8.29231 13.1181C9.63864 12.3181 10.9735 11.8648 12.2968 11.7582C13.6402 11.6397 14.8838 11.8796 16.0278 12.4777C17.1798 13.0439 18.1558 14.0001 18.9558 15.3464C19.7797 16.733 20.1488 18.0634 20.0632 19.3378C19.9976 20.6002 19.5637 21.7689 18.7614 22.8438C17.9791 23.9068 16.9007 24.8602 15.5262 25.7042L16.8685 28.1692L13.4625 30.193ZM19.2103 35.954C18.507 36.3719 17.7929 36.4972 17.0681 36.3297C16.3633 36.1503 15.8259 35.7491 15.4557 35.1262C15.0737 34.4832 14.9723 33.8093 15.1517 33.1045C15.3512 32.3878 15.8026 31.8205 16.5059 31.4026C17.2092 30.9848 17.9133 30.8655 18.618 31.0449C19.3228 31.2243 19.8662 31.6355 20.2483 32.2785C20.6184 32.9015 20.7138 33.5653 20.5344 34.2701C20.355 34.9748 19.9136 35.5361 19.2103 35.954Z" fill="black"/>
</svg>
