<svg width="190" height="350" viewBox="0 0 190 350" fill="none" xmlns="http://www.w3.org/2000/svg">
<path fill-rule="evenodd" clip-rule="evenodd" d="M55.7115 235.06H124.661C128.658 235.06 131.897 231.958 131.897 228.133C131.897 224.307 128.658 221.206 124.661 221.206H55.7115C51.7148 221.206 48.4751 224.307 48.4751 228.133C48.4751 231.958 51.7148 235.06 55.7115 235.06ZM71.0379 264.262H109.335L123.808 235.06H56.5652L71.0379 264.262Z" fill="#EA847A"/>
<path opacity="0.402158" fill-rule="evenodd" clip-rule="evenodd" d="M109.213 264.262H70.9161L56.4434 235.06H123.686L109.213 264.262Z" fill="black"/>
<path d="M29.4287 312.665C35.0446 315.643 39.1731 321.214 40.0039 327.875C40.0958 328.611 40.1464 329.341 40.1587 330.063C40.213 333.34 36.0767 334.775 34.0759 332.178C31.7928 329.215 28.7687 327.506 25.6064 327.786C19.5387 328.322 15.262 335.983 16.0522 344.899C16.0537 344.918 16.0551 344.937 16.0573 344.956C16.299 347.613 13.5825 349.533 11.188 348.349C5.12244 345.352 0.719838 339.364 0.0794194 332.139C-0.686919 323.497 4.16224 315.652 11.6164 312.194V171.234C5.3089 167.846 1.02145 161.196 1.02145 153.546C1.02145 145.227 6.0916 138.089 13.316 135.046C15.9323 129.932 21.2672 126.409 27.3861 126.409H152.47C158.044 126.409 162.968 129.332 165.778 133.718C174.982 132.268 184.256 137.39 187.693 146.43C191.401 156.187 186.991 167.029 177.799 171.548V313.788C184.446 317.679 188.528 325.23 187.596 333.36C186.77 340.567 182.216 346.44 176.076 349.281C173.65 350.404 170.985 348.415 171.295 345.765C171.297 345.746 171.298 345.727 171.301 345.709C172.321 336.815 168.242 329.047 162.19 328.356C159.036 327.996 155.968 329.628 153.61 332.53C151.543 335.076 147.445 333.535 147.583 330.261C147.614 329.539 147.684 328.81 147.794 328.078C148.866 320.969 153.687 315.207 159.987 312.58V181.838C157.749 183.058 155.187 183.752 152.47 183.752H29.4287V312.665V312.665Z" fill="#EA847A"/>
<path fill-rule="evenodd" clip-rule="evenodd" d="M91.9991 168.295C87.2231 168.295 83.3154 164.394 83.3154 159.627V148.468C83.3154 143.7 87.2231 139.8 91.9991 139.8H140.035C144.811 139.8 148.718 143.7 148.718 148.468V159.627C148.718 164.394 144.811 168.295 140.035 168.295H91.9991ZM90.2373 154.047C90.2373 159.507 94.671 163.932 100.14 163.932C105.609 163.932 110.043 159.507 110.043 154.047C110.043 148.588 105.609 144.163 100.14 144.163C94.671 144.163 90.2373 148.588 90.2373 154.047ZM117.414 154.047C117.414 159.507 121.848 163.932 127.317 163.932C132.785 163.932 137.219 159.507 137.219 154.047C137.219 148.588 132.785 144.163 127.317 144.163C121.848 144.163 117.414 148.588 117.414 154.047Z" fill="#19141E"/>
<path opacity="0.401228" fill-rule="evenodd" clip-rule="evenodd" d="M159.987 312.28V181.884C162.106 179.901 163.522 178.464 164.236 177.573C165.332 176.204 166.276 174.88 166.843 174.183C166.993 174 167.166 173.693 167.2 173.628C167.235 173.563 167.226 173.559 167.288 173.564C167.921 173.613 168.36 173.628 168.893 173.628C170.129 173.628 171.63 173.49 173.308 173.136C173.863 173.019 174.641 172.796 175.595 172.477C176.043 172.327 176.777 172.019 177.799 171.552V312.28H159.987ZM165.778 133.718C174.982 132.268 184.256 137.39 187.693 146.43C191.632 156.795 186.41 168.384 176.026 172.317C173.127 173.415 170.131 173.8 167.234 173.559C167.894 171.827 168.256 169.951 168.256 167.996V142.166C168.256 139.064 167.345 136.163 165.778 133.718H165.778ZM16.2948 173.033C16.4388 173.066 16.5862 173.096 16.7372 173.124C17.2982 173.228 17.9497 173.365 18.6895 173.471C19.4891 173.568 20.3032 173.617 21.129 173.617C32.2346 173.617 41.2367 164.631 41.2367 153.546C41.2367 142.461 32.2346 133.474 21.129 133.474C18.3579 133.474 15.7178 134.034 13.3159 135.046C15.9322 129.932 21.2671 126.409 27.386 126.409H47.1926C55.8741 126.409 62.9773 133.5 62.9773 142.166V167.996C62.9773 176.662 55.8741 183.752 47.1926 183.752H29.4285V312.28H11.6162V171.242C11.7404 171.307 11.8621 171.369 11.9815 171.43L11.9803 171.424C13.3365 172.117 14.7819 172.661 16.2948 173.033V173.033Z" fill="black"/>
<path d="M177.799 293.389H180.299V290.889H177.799V293.389ZM159.987 293.389V290.889H157.487V293.389H159.987ZM177.799 298.389V300.889H180.299V298.389H177.799ZM159.987 298.389H157.487V300.889H159.987V298.389ZM177.799 278.22H180.299V275.72H177.799V278.22ZM159.987 278.22V275.72H157.487V278.22H159.987ZM177.799 283.22V285.72H180.299V283.22H177.799ZM159.987 283.22H157.487V285.72H159.987V283.22ZM177.799 263.051H180.299V260.551H177.799V263.051ZM159.987 263.051V260.551H157.487V263.051H159.987ZM177.799 268.051V270.551H180.299V268.051H177.799ZM159.987 268.051H157.487V270.551H159.987V268.051ZM177.799 247.881H180.299V245.381H177.799V247.881ZM159.987 247.881V245.381H157.487V247.881H159.987ZM177.799 252.881V255.381H180.299V252.881H177.799ZM159.987 252.881H157.487V255.381H159.987V252.881ZM177.799 232.712H180.299V230.212H177.799V232.712ZM159.987 232.712V230.212H157.487V232.712H159.987ZM177.799 237.712V240.212H180.299V237.712H177.799ZM159.987 237.712H157.487V240.212H159.987V237.712ZM177.799 217.543H180.299V215.043H177.799V217.543ZM159.987 217.543V215.043H157.487V217.543H159.987ZM177.799 222.543V225.043H180.299V222.543H177.799ZM159.987 222.543H157.487V225.043H159.987V222.543ZM177.799 202.374H180.299V199.874H177.799V202.374ZM159.987 202.374V199.874H157.487V202.374H159.987ZM177.799 207.374V209.874H180.299V207.374H177.799ZM159.987 207.374H157.487V209.874H159.987V207.374ZM177.799 187.205H180.299V184.705H177.799V187.205ZM159.987 187.205V184.705H157.487V187.205H159.987ZM177.799 192.205V194.705H180.299V192.205H177.799ZM159.987 192.205H157.487V194.705H159.987V192.205ZM29.4285 293.389H31.9285V290.889H29.4285V293.389ZM11.6162 293.389V290.889H9.11621V293.389H11.6162ZM29.4285 298.389V300.889H31.9285V298.389H29.4285ZM11.6162 298.389H9.11621V300.889H11.6162V298.389ZM29.4285 278.22H31.9285V275.72H29.4285V278.22ZM11.6162 278.22V275.72H9.11621V278.22H11.6162ZM29.4285 283.22V285.72H31.9285V283.22H29.4285ZM11.6162 283.22H9.11621V285.72H11.6162V283.22ZM29.4285 263.051H31.9285V260.551H29.4285V263.051ZM11.6162 263.051V260.551H9.11621V263.051H11.6162ZM29.4285 268.051V270.551H31.9285V268.051H29.4285ZM11.6162 268.051H9.11621V270.551H11.6162V268.051ZM29.4285 247.881H31.9285V245.381H29.4285V247.881ZM11.6162 247.881V245.381H9.11621V247.881H11.6162ZM29.4285 252.881V255.381H31.9285V252.881H29.4285ZM11.6162 252.881H9.11621V255.381H11.6162V252.881ZM29.4285 232.712H31.9285V230.212H29.4285V232.712ZM11.6162 232.712V230.212H9.11621V232.712H11.6162ZM29.4285 237.712V240.212H31.9285V237.712H29.4285ZM11.6162 237.712H9.11621V240.212H11.6162V237.712ZM29.4285 217.543H31.9285V215.043H29.4285V217.543ZM11.6162 217.543V215.043H9.11621V217.543H11.6162ZM29.4285 222.543V225.043H31.9285V222.543H29.4285ZM11.6162 222.543H9.11621V225.043H11.6162V222.543ZM29.4285 202.374H31.9285V199.874H29.4285V202.374ZM11.6162 202.374V199.874H9.11621V202.374H11.6162ZM29.4285 207.374V209.874H31.9285V207.374H29.4285ZM11.6162 207.374H9.11621V209.874H11.6162V207.374ZM29.4285 187.205H31.9285V184.705H29.4285V187.205ZM11.6162 187.205V184.705H9.11621V187.205H11.6162ZM29.4285 192.205V194.705H31.9285V192.205H29.4285ZM11.6162 192.205H9.11621V194.705H11.6162V192.205ZM177.799 290.889H159.987V295.889H177.799V290.889ZM180.299 298.389V293.389H175.299V298.389H180.299ZM159.987 300.889H177.799V295.889H159.987V300.889ZM157.487 293.389V298.389H162.487V293.389H157.487ZM177.799 275.72H159.987V280.72H177.799V275.72ZM180.299 283.22V278.22H175.299V283.22H180.299ZM159.987 285.72H177.799V280.72H159.987V285.72ZM157.487 278.22V283.22H162.487V278.22H157.487ZM177.799 260.551H159.987V265.551H177.799V260.551ZM180.299 268.051V263.051H175.299V268.051H180.299ZM159.987 270.551H177.799V265.551H159.987V270.551ZM157.487 263.051V268.051H162.487V263.051H157.487ZM177.799 245.381H159.987V250.381H177.799V245.381ZM180.299 252.881V247.881H175.299V252.881H180.299ZM159.987 255.381H177.799V250.381H159.987V255.381ZM157.487 247.881V252.881H162.487V247.881H157.487ZM177.799 230.212H159.987V235.212H177.799V230.212ZM180.299 237.712V232.712H175.299V237.712H180.299ZM159.987 240.212H177.799V235.212H159.987V240.212ZM157.487 232.712V237.712H162.487V232.712H157.487ZM177.799 215.043H159.987V220.043H177.799V215.043ZM180.299 222.543V217.543H175.299V222.543H180.299ZM159.987 225.043H177.799V220.043H159.987V225.043ZM157.487 217.543V222.543H162.487V217.543H157.487ZM177.799 199.874H159.987V204.874H177.799V199.874ZM180.299 207.374V202.374H175.299V207.374H180.299ZM159.987 209.874H177.799V204.874H159.987V209.874ZM157.487 202.374V207.374H162.487V202.374H157.487ZM177.799 184.705H159.987V189.705H177.799V184.705ZM180.299 192.205V187.205H175.299V192.205H180.299ZM159.987 194.705H177.799V189.705H159.987V194.705ZM157.487 187.205V192.205H162.487V187.205H157.487ZM29.4285 290.889H11.6162V295.889H29.4285V290.889ZM31.9285 298.389V293.389H26.9285V298.389H31.9285ZM11.6162 300.889H29.4285V295.889H11.6162V300.889ZM9.11621 293.389V298.389H14.1162V293.389H9.11621ZM29.4285 275.72H11.6162V280.72H29.4285V275.72ZM31.9285 283.22V278.22H26.9285V283.22H31.9285ZM11.6162 285.72H29.4285V280.72H11.6162V285.72ZM9.11621 278.22V283.22H14.1162V278.22H9.11621ZM29.4285 260.551H11.6162V265.551H29.4285V260.551ZM31.9285 268.051V263.051H26.9285V268.051H31.9285ZM11.6162 270.551H29.4285V265.551H11.6162V270.551ZM9.11621 263.051V268.051H14.1162V263.051H9.11621ZM29.4285 245.381H11.6162V250.381H29.4285V245.381ZM31.9285 252.881V247.881H26.9285V252.881H31.9285ZM11.6162 255.381H29.4285V250.381H11.6162V255.381ZM9.11621 247.881V252.881H14.1162V247.881H9.11621ZM29.4285 230.212H11.6162V235.212H29.4285V230.212ZM31.9285 237.712V232.712H26.9285V237.712H31.9285ZM11.6162 240.212H29.4285V235.212H11.6162V240.212ZM9.11621 232.712V237.712H14.1162V232.712H9.11621ZM29.4285 215.043H11.6162V220.043H29.4285V215.043ZM31.9285 222.543V217.543H26.9285V222.543H31.9285ZM11.6162 225.043H29.4285V220.043H11.6162V225.043ZM9.11621 217.543V222.543H14.1162V217.543H9.11621ZM29.4285 199.874H11.6162V204.874H29.4285V199.874ZM31.9285 207.374V202.374H26.9285V207.374H31.9285ZM11.6162 209.874H29.4285V204.874H11.6162V209.874ZM9.11621 202.374V207.374H14.1162V202.374H9.11621ZM29.4285 184.705H11.6162V189.705H29.4285V184.705ZM31.9285 192.205V187.205H26.9285V192.205H31.9285ZM11.6162 194.705H29.4285V189.705H11.6162V194.705ZM9.11621 187.205V192.205H14.1162V187.205H9.11621Z" fill="#19141E"/>
<path fill-rule="evenodd" clip-rule="evenodd" d="M76.7051 221.157H101.866V181.307H76.7051V221.157Z" fill="#19141E"/>
<path d="M78.6792 35.7002C78.6792 35.7002 91.3153 44.0425 92.7054 58.4755" stroke="#19141E" stroke-width="5" stroke-linecap="round"/>
<path fill-rule="evenodd" clip-rule="evenodd" d="M77.4843 41.9513C81.6959 41.9513 85.11 38.5426 85.11 34.3386C85.11 30.1346 81.6959 26.7266 77.4843 26.7266C73.2727 26.7266 69.8579 30.1346 69.8579 34.3386C69.8579 38.5426 73.2727 41.9513 77.4843 41.9513ZM41.1572 96.3958H79.4213V126.645H101.39V96.3958H137.644C145.952 96.3958 152.75 89.6101 152.75 81.317V71.1515C152.75 62.8584 145.952 56.0727 137.644 56.0727H41.1572C32.8491 56.0727 26.0513 62.8584 26.0513 71.1515V81.317C26.0513 89.6101 32.8491 96.3958 41.1572 96.3958Z" fill="#EA847A"/>
<path opacity="0.399042" fill-rule="evenodd" clip-rule="evenodd" d="M79.4209 126.645H101.39V96.3066H79.4209V126.645Z" fill="black"/>
<path opacity="0.400367" fill-rule="evenodd" clip-rule="evenodd" d="M79.4214 116.832L101.39 109.609V96.1846H79.4214V116.832Z" fill="black"/>
<path fill-rule="evenodd" clip-rule="evenodd" d="M41.1567 96.3954V96.3954C32.8486 96.3954 26.0508 89.6097 26.0508 81.3165V71.1511C26.0508 62.8579 32.8486 56.0723 41.1567 56.0723C49.4648 56.0723 56.2626 62.8579 56.2626 71.1511V81.3165C56.2626 89.6097 49.4648 96.3954 41.1567 96.3954" fill="#19141E"/>
<path fill-rule="evenodd" clip-rule="evenodd" d="M64.8486 76.2346C64.8486 82.6193 70.0342 87.7956 76.4304 87.7956C82.8274 87.7956 88.013 82.6193 88.013 76.2346C88.013 69.8491 82.8274 64.6729 76.4304 64.6729C70.0342 64.6729 64.8486 69.8491 64.8486 76.2346" fill="white"/>
<path fill-rule="evenodd" clip-rule="evenodd" d="M72.6104 74.6102C72.6104 77.5436 74.9926 79.9215 77.9312 79.9215C80.8699 79.9215 83.2521 77.5436 83.2521 74.6102C83.2521 71.6768 80.8699 69.2988 77.9312 69.2988C74.9926 69.2988 72.6104 71.6768 72.6104 74.6102" fill="#19141E"/>
<path fill-rule="evenodd" clip-rule="evenodd" d="M121.328 76.2346C121.328 82.6193 126.514 87.7956 132.911 87.7956C139.308 87.7956 144.493 82.6193 144.493 76.2346C144.493 69.8491 139.308 64.6729 132.911 64.6729C126.514 64.6729 121.328 69.8491 121.328 76.2346" fill="white"/>
<path fill-rule="evenodd" clip-rule="evenodd" d="M129.09 74.6102C129.09 77.5436 131.472 79.9215 134.411 79.9215C137.349 79.9215 139.732 77.5436 139.732 74.6102C139.732 71.6768 137.349 69.2988 134.411 69.2988C131.472 69.2988 129.09 71.6768 129.09 74.6102" fill="#19141E"/>
<path fill-rule="evenodd" clip-rule="evenodd" d="M102.024 68.3096L112.384 76.1563L102.024 84.1584" fill="#19141E"/>
</svg>
