<svg width="335" height="564" viewBox="0 0 335 564" fill="none" xmlns="http://www.w3.org/2000/svg">
<path fill-rule="evenodd" clip-rule="evenodd" d="M304.571 478.54H0.0507812C1.45753 442.458 23.6493 427.042 57.493 426.189C79.8331 365.73 128.782 427.413 132.305 379.59C136.445 323.351 137.636 257.067 137.636 257.067L166.494 257.545C166.494 257.545 168.904 293.031 173.904 365.328C177.45 416.538 213.574 369.045 261.023 400.079C284.975 415.746 283.907 453.646 283.907 453.646C283.907 453.646 304.571 454.679 304.571 478.54" fill="#B5B8BC"/>
<path fill-rule="evenodd" clip-rule="evenodd" d="M104.682 478.54H29.9878C33.2369 462.539 47.109 450.867 63.4487 449.267C66.5821 448.97 69.8023 449.032 73.0586 449.503C74.9328 449.78 76.7564 450.174 78.5221 450.694C83.3632 452.115 87.7484 454.414 91.4969 457.378C98.2629 462.706 102.981 470.186 104.682 478.54" fill="#D7DADD"/>
<path fill-rule="evenodd" clip-rule="evenodd" d="M270.69 478.54H230.268C231.925 471.177 237.201 465.213 244.14 462.948C245.776 462.414 247.505 462.082 249.307 461.992C250.342 461.936 251.369 461.964 252.368 462.068C261.175 462.962 268.534 469.625 270.69 478.54" fill="#D7DADD"/>
<path fill-rule="evenodd" clip-rule="evenodd" d="M204.97 478.541H89.4634C88.9858 473.983 89.0943 469.3 89.8469 464.569C90.2376 462.11 90.7948 459.707 91.4968 457.379C99.4857 431.016 126.846 413.754 155.966 417.993C162.847 418.997 169.259 421.118 175.033 424.137C195.056 434.583 207.409 455.807 204.97 478.541" fill="#D7DADD"/>
<path fill-rule="evenodd" clip-rule="evenodd" d="M113.258 373.694C112.31 379.654 106.496 383.749 100.271 382.842C94.0457 381.935 89.7676 376.37 90.7148 370.411C91.6621 364.452 97.4758 360.357 103.701 361.263C109.926 362.17 114.205 367.735 113.258 373.694" fill="#D7DADD"/>
<path fill-rule="evenodd" clip-rule="evenodd" d="M196.035 375.764C195.644 378.223 193.245 379.913 190.676 379.539C188.106 379.164 186.341 376.868 186.732 374.408C187.123 371.949 189.522 370.259 192.091 370.633C194.66 371.008 196.426 373.304 196.035 375.764" fill="#D7DADD"/>
<path fill-rule="evenodd" clip-rule="evenodd" d="M331.391 450.65C330.488 456.324 324.951 460.225 319.022 459.362C313.093 458.498 309.019 453.197 309.921 447.522C310.823 441.847 316.361 437.946 322.289 438.81C328.218 439.673 332.293 444.974 331.391 450.65" fill="#D7DADD"/>
<path fill-rule="evenodd" clip-rule="evenodd" d="M118.719 235.73H187.668C191.665 235.73 194.905 232.628 194.905 228.803C194.905 224.977 191.665 221.876 187.668 221.876H118.719C114.722 221.876 111.482 224.977 111.482 228.803C111.482 232.628 114.722 235.73 118.719 235.73ZM134.045 264.932H172.342L186.815 235.73H119.573L134.045 264.932Z" fill="#7DC322"/>
<path opacity="0.402158" fill-rule="evenodd" clip-rule="evenodd" d="M172.22 264.932H133.923L119.451 235.729H186.693L172.22 264.932Z" fill="black"/>
<path d="M92.436 313.335C98.052 316.313 102.18 321.884 103.011 328.545C103.103 329.281 103.154 330.011 103.166 330.733C103.22 334.01 99.084 335.445 97.0832 332.848C94.8001 329.885 91.776 328.176 88.6137 328.456C82.546 328.992 78.2694 336.653 79.0596 345.569C79.061 345.588 79.0625 345.607 79.0646 345.626C79.3063 348.283 76.5898 350.203 74.1953 349.019C68.1298 346.022 63.7272 340.034 63.0867 332.809C62.3204 324.167 67.1696 316.322 74.6237 312.864V171.903C68.3162 168.516 64.0288 161.866 64.0288 154.216C64.0288 145.897 69.0989 138.759 76.3233 135.715C78.9397 130.602 84.2745 127.079 90.3934 127.079H215.478C221.052 127.079 225.975 130.002 228.785 134.387C237.99 132.938 247.264 138.06 250.7 147.1C254.409 156.857 249.998 167.699 240.807 172.218V314.458C247.453 318.349 251.535 325.899 250.603 334.03C249.778 341.237 245.223 347.11 239.083 349.951C236.657 351.074 233.992 349.084 234.302 346.435C234.304 346.415 234.306 346.397 234.309 346.379C235.328 337.485 231.249 329.717 225.197 329.026C222.043 328.666 218.975 330.298 216.617 333.2C214.55 335.746 210.452 334.205 210.591 330.931C210.621 330.209 210.691 329.48 210.801 328.748C211.873 321.639 216.695 315.877 222.994 313.25V182.508C220.756 183.728 218.194 184.422 215.478 184.422H92.436V313.335V313.335Z" fill="#7DC322"/>
<path fill-rule="evenodd" clip-rule="evenodd" d="M155.006 168.965C150.23 168.965 146.323 165.064 146.323 160.296V149.138C146.323 144.37 150.23 140.47 155.006 140.47H203.042C207.818 140.47 211.726 144.37 211.726 149.138V160.296C211.726 165.064 207.818 168.965 203.042 168.965H155.006ZM153.245 154.717C153.245 160.176 157.678 164.602 163.148 164.602C168.616 164.602 173.05 160.176 173.05 154.717C173.05 149.258 168.616 144.833 163.148 144.833C157.678 144.833 153.245 149.258 153.245 154.717ZM180.421 154.717C180.421 160.176 184.855 164.602 190.324 164.602C195.793 164.602 200.227 160.176 200.227 154.717C200.227 149.258 195.793 144.833 190.324 144.833C184.855 144.833 180.421 149.258 180.421 154.717Z" fill="#19141E"/>
<path opacity="0.401228" fill-rule="evenodd" clip-rule="evenodd" d="M222.994 312.95V182.554C225.113 180.571 226.53 179.134 227.243 178.243C228.339 176.874 229.283 175.55 229.851 174.853C230 174.669 230.173 174.363 230.208 174.298C230.242 174.233 230.234 174.229 230.296 174.234C230.928 174.283 231.367 174.298 231.9 174.298C233.136 174.298 234.638 174.16 236.315 173.806C236.87 173.689 237.648 173.466 238.602 173.147C239.05 172.997 239.785 172.689 240.807 172.222V312.95H222.994ZM228.785 134.387C237.989 132.938 247.264 138.06 250.7 147.1C254.64 157.464 249.417 169.054 239.034 172.987C236.134 174.085 233.138 174.47 230.241 174.229C230.901 172.497 231.263 170.621 231.263 168.666V142.836C231.263 139.734 230.353 136.833 228.785 134.387H228.785ZM79.3021 173.703C79.4461 173.736 79.5935 173.766 79.7445 173.794C80.3055 173.898 80.957 174.035 81.6968 174.141C82.4964 174.238 83.3106 174.287 84.1363 174.287C95.242 174.287 104.244 165.301 104.244 154.216C104.244 143.131 95.242 134.144 84.1363 134.144C81.3653 134.144 78.7252 134.704 76.3232 135.715C78.9395 130.602 84.2744 127.079 90.3933 127.079H110.2C118.881 127.079 125.985 134.17 125.985 142.836V168.666C125.985 177.331 118.881 184.422 110.2 184.422H92.4358V312.95H74.6235V171.912C74.7477 171.977 74.8695 172.039 74.9888 172.1L74.9876 172.094C76.3438 172.787 77.7892 173.331 79.3021 173.703V173.703Z" fill="black"/>
<path d="M240.807 294.059H243.307V291.559H240.807V294.059ZM222.994 294.059V291.559H220.494V294.059H222.994ZM240.807 299.059V301.559H243.307V299.059H240.807ZM222.994 299.059H220.494V301.559H222.994V299.059ZM240.807 278.89H243.307V276.39H240.807V278.89ZM222.994 278.89V276.39H220.494V278.89H222.994ZM240.807 283.89V286.39H243.307V283.89H240.807ZM222.994 283.89H220.494V286.39H222.994V283.89ZM240.807 263.721H243.307V261.221H240.807V263.721ZM222.994 263.721V261.221H220.494V263.721H222.994ZM240.807 268.721V271.221H243.307V268.721H240.807ZM222.994 268.721H220.494V271.221H222.994V268.721ZM240.807 248.551H243.307V246.051H240.807V248.551ZM222.994 248.551V246.051H220.494V248.551H222.994ZM240.807 253.551V256.051H243.307V253.551H240.807ZM222.994 253.551H220.494V256.051H222.994V253.551ZM240.807 233.382H243.307V230.882H240.807V233.382ZM222.994 233.382V230.882H220.494V233.382H222.994ZM240.807 238.382V240.882H243.307V238.382H240.807ZM222.994 238.382H220.494V240.882H222.994V238.382ZM240.807 218.213H243.307V215.713H240.807V218.213ZM222.994 218.213V215.713H220.494V218.213H222.994ZM240.807 223.213V225.713H243.307V223.213H240.807ZM222.994 223.213H220.494V225.713H222.994V223.213ZM240.807 203.044H243.307V200.544H240.807V203.044ZM222.994 203.044V200.544H220.494V203.044H222.994ZM240.807 208.044V210.544H243.307V208.044H240.807ZM222.994 208.044H220.494V210.544H222.994V208.044ZM240.807 187.875H243.307V185.375H240.807V187.875ZM222.994 187.875V185.375H220.494V187.875H222.994ZM240.807 192.875V195.375H243.307V192.875H240.807ZM222.994 192.875H220.494V195.375H222.994V192.875ZM92.4358 294.059H94.9358V291.559H92.4358V294.059ZM74.6235 294.059V291.559H72.1235V294.059H74.6235ZM92.4358 299.059V301.559H94.9358V299.059H92.4358ZM74.6235 299.059H72.1235V301.559H74.6235V299.059ZM92.4358 278.89H94.9358V276.39H92.4358V278.89ZM74.6235 278.89V276.39H72.1235V278.89H74.6235ZM92.4358 283.89V286.39H94.9358V283.89H92.4358ZM74.6235 283.89H72.1235V286.39H74.6235V283.89ZM92.4358 263.721H94.9358V261.221H92.4358V263.721ZM74.6235 263.721V261.221H72.1235V263.721H74.6235ZM92.4358 268.721V271.221H94.9358V268.721H92.4358ZM74.6235 268.721H72.1235V271.221H74.6235V268.721ZM92.4358 248.551H94.9358V246.051H92.4358V248.551ZM74.6235 248.551V246.051H72.1235V248.551H74.6235ZM92.4358 253.551V256.051H94.9358V253.551H92.4358ZM74.6235 253.551H72.1235V256.051H74.6235V253.551ZM92.4358 233.382H94.9358V230.882H92.4358V233.382ZM74.6235 233.382V230.882H72.1235V233.382H74.6235ZM92.4358 238.382V240.882H94.9358V238.382H92.4358ZM74.6235 238.382H72.1235V240.882H74.6235V238.382ZM92.4358 218.213H94.9358V215.713H92.4358V218.213ZM74.6235 218.213V215.713H72.1235V218.213H74.6235ZM92.4358 223.213V225.713H94.9358V223.213H92.4358ZM74.6235 223.213H72.1235V225.713H74.6235V223.213ZM92.4358 203.044H94.9358V200.544H92.4358V203.044ZM74.6235 203.044V200.544H72.1235V203.044H74.6235ZM92.4358 208.044V210.544H94.9358V208.044H92.4358ZM74.6235 208.044H72.1235V210.544H74.6235V208.044ZM92.4358 187.875H94.9358V185.375H92.4358V187.875ZM74.6235 187.875V185.375H72.1235V187.875H74.6235ZM92.4358 192.875V195.375H94.9358V192.875H92.4358ZM74.6235 192.875H72.1235V195.375H74.6235V192.875ZM240.807 291.559H222.994V296.559H240.807V291.559ZM243.307 299.059V294.059H238.307V299.059H243.307ZM222.994 301.559H240.807V296.559H222.994V301.559ZM220.494 294.059V299.059H225.494V294.059H220.494ZM240.807 276.39H222.994V281.39H240.807V276.39ZM243.307 283.89V278.89H238.307V283.89H243.307ZM222.994 286.39H240.807V281.39H222.994V286.39ZM220.494 278.89V283.89H225.494V278.89H220.494ZM240.807 261.221H222.994V266.221H240.807V261.221ZM243.307 268.721V263.721H238.307V268.721H243.307ZM222.994 271.221H240.807V266.221H222.994V271.221ZM220.494 263.721V268.721H225.494V263.721H220.494ZM240.807 246.051H222.994V251.051H240.807V246.051ZM243.307 253.551V248.551H238.307V253.551H243.307ZM222.994 256.051H240.807V251.051H222.994V256.051ZM220.494 248.551V253.551H225.494V248.551H220.494ZM240.807 230.882H222.994V235.882H240.807V230.882ZM243.307 238.382V233.382H238.307V238.382H243.307ZM222.994 240.882H240.807V235.882H222.994V240.882ZM220.494 233.382V238.382H225.494V233.382H220.494ZM240.807 215.713H222.994V220.713H240.807V215.713ZM243.307 223.213V218.213H238.307V223.213H243.307ZM222.994 225.713H240.807V220.713H222.994V225.713ZM220.494 218.213V223.213H225.494V218.213H220.494ZM240.807 200.544H222.994V205.544H240.807V200.544ZM243.307 208.044V203.044H238.307V208.044H243.307ZM222.994 210.544H240.807V205.544H222.994V210.544ZM220.494 203.044V208.044H225.494V203.044H220.494ZM240.807 185.375H222.994V190.375H240.807V185.375ZM243.307 192.875V187.875H238.307V192.875H243.307ZM222.994 195.375H240.807V190.375H222.994V195.375ZM220.494 187.875V192.875H225.494V187.875H220.494ZM92.4358 291.559H74.6235V296.559H92.4358V291.559ZM94.9358 299.059V294.059H89.9358V299.059H94.9358ZM74.6235 301.559H92.4358V296.559H74.6235V301.559ZM72.1235 294.059V299.059H77.1235V294.059H72.1235ZM92.4358 276.39H74.6235V281.39H92.4358V276.39ZM94.9358 283.89V278.89H89.9358V283.89H94.9358ZM74.6235 286.39H92.4358V281.39H74.6235V286.39ZM72.1235 278.89V283.89H77.1235V278.89H72.1235ZM92.4358 261.221H74.6235V266.221H92.4358V261.221ZM94.9358 268.721V263.721H89.9358V268.721H94.9358ZM74.6235 271.221H92.4358V266.221H74.6235V271.221ZM72.1235 263.721V268.721H77.1235V263.721H72.1235ZM92.4358 246.051H74.6235V251.051H92.4358V246.051ZM94.9358 253.551V248.551H89.9358V253.551H94.9358ZM74.6235 256.051H92.4358V251.051H74.6235V256.051ZM72.1235 248.551V253.551H77.1235V248.551H72.1235ZM92.4358 230.882H74.6235V235.882H92.4358V230.882ZM94.9358 238.382V233.382H89.9358V238.382H94.9358ZM74.6235 240.882H92.4358V235.882H74.6235V240.882ZM72.1235 233.382V238.382H77.1235V233.382H72.1235ZM92.4358 215.713H74.6235V220.713H92.4358V215.713ZM94.9358 223.213V218.213H89.9358V223.213H94.9358ZM74.6235 225.713H92.4358V220.713H74.6235V225.713ZM72.1235 218.213V223.213H77.1235V218.213H72.1235ZM92.4358 200.544H74.6235V205.544H92.4358V200.544ZM94.9358 208.044V203.044H89.9358V208.044H94.9358ZM74.6235 210.544H92.4358V205.544H74.6235V210.544ZM72.1235 203.044V208.044H77.1235V203.044H72.1235ZM92.4358 185.375H74.6235V190.375H92.4358V185.375ZM94.9358 192.875V187.875H89.9358V192.875H94.9358ZM74.6235 195.375H92.4358V190.375H74.6235V195.375ZM72.1235 187.875V192.875H77.1235V187.875H72.1235Z" fill="#19141E"/>
<path fill-rule="evenodd" clip-rule="evenodd" d="M139.712 221.827H164.873V181.977H139.712V221.827Z" fill="#19141E"/>
<path d="M141.687 36.3701C141.687 36.3701 154.323 44.7124 155.713 59.1454" stroke="#19141E" stroke-width="5" stroke-linecap="round"/>
<path fill-rule="evenodd" clip-rule="evenodd" d="M140.492 42.6212C144.703 42.6212 148.117 39.2125 148.117 35.0085C148.117 30.8045 144.703 27.3965 140.492 27.3965C136.28 27.3965 132.865 30.8045 132.865 35.0085C132.865 39.2125 136.28 42.6212 140.492 42.6212ZM104.165 97.0657H142.429V127.315H164.398V97.0657H200.651C208.959 97.0657 215.757 90.2801 215.757 81.9869V71.8214C215.757 63.5283 208.959 56.7426 200.651 56.7426H104.165C95.8564 56.7426 89.0586 63.5283 89.0586 71.8214V81.9869C89.0586 90.2801 95.8564 97.0657 104.165 97.0657Z" fill="#7DC322"/>
<path opacity="0.399042" fill-rule="evenodd" clip-rule="evenodd" d="M142.428 127.315H164.397V96.9766H142.428V127.315Z" fill="black"/>
<path opacity="0.400367" fill-rule="evenodd" clip-rule="evenodd" d="M142.429 117.502L164.398 110.278V96.8545H142.429V117.502Z" fill="black"/>
<path fill-rule="evenodd" clip-rule="evenodd" d="M104.164 97.0653V97.0653C95.8559 97.0653 89.0581 90.2796 89.0581 81.9865V71.821C89.0581 63.5278 95.8559 56.7422 104.164 56.7422C112.472 56.7422 119.27 63.5278 119.27 71.821V81.9865C119.27 90.2796 112.472 97.0653 104.164 97.0653" fill="#19141E"/>
<path fill-rule="evenodd" clip-rule="evenodd" d="M127.856 76.9045C127.856 83.2893 133.042 88.4655 139.438 88.4655C145.835 88.4655 151.02 83.2893 151.02 76.9045C151.02 70.5191 145.835 65.3428 139.438 65.3428C133.042 65.3428 127.856 70.5191 127.856 76.9045" fill="white"/>
<path fill-rule="evenodd" clip-rule="evenodd" d="M135.618 75.2801C135.618 78.2135 138 80.5915 140.939 80.5915C143.877 80.5915 146.259 78.2135 146.259 75.2801C146.259 72.3467 143.877 69.9688 140.939 69.9688C138 69.9688 135.618 72.3467 135.618 75.2801" fill="#19141E"/>
<path fill-rule="evenodd" clip-rule="evenodd" d="M184.335 76.9045C184.335 83.2893 189.521 88.4655 195.918 88.4655C202.315 88.4655 207.5 83.2893 207.5 76.9045C207.5 70.5191 202.315 65.3428 195.918 65.3428C189.521 65.3428 184.335 70.5191 184.335 76.9045" fill="white"/>
<path fill-rule="evenodd" clip-rule="evenodd" d="M192.097 75.2801C192.097 78.2135 194.479 80.5915 197.418 80.5915C200.357 80.5915 202.739 78.2135 202.739 75.2801C202.739 72.3467 200.357 69.9688 197.418 69.9688C194.479 69.9688 192.097 72.3467 192.097 75.2801" fill="#19141E"/>
<path fill-rule="evenodd" clip-rule="evenodd" d="M165.031 68.9795L175.391 76.8263L165.031 84.8283" fill="#19141E"/>
</svg>
