<svg width="190" height="351" viewBox="0 0 190 351" fill="none" xmlns="http://www.w3.org/2000/svg">
<path fill-rule="evenodd" clip-rule="evenodd" d="M55.7188 235.73H124.668C128.665 235.73 131.905 232.628 131.905 228.803C131.905 224.977 128.665 221.876 124.668 221.876H55.7188C51.7221 221.876 48.4824 224.977 48.4824 228.803C48.4824 232.628 51.7221 235.73 55.7188 235.73ZM71.0453 264.932H109.342L123.815 235.73H56.5725L71.0453 264.932Z" fill="#7DC322"/>
<path opacity="0.402158" fill-rule="evenodd" clip-rule="evenodd" d="M109.22 264.932H70.9234L56.4507 235.729H123.693L109.22 264.932Z" fill="black"/>
<path d="M29.436 313.335C35.052 316.313 39.1804 321.884 40.0112 328.545C40.1031 329.281 40.1538 330.011 40.1661 330.733C40.2203 334.01 36.084 335.445 34.0832 332.848C31.8001 329.885 28.776 328.176 25.6137 328.456C19.546 328.992 15.2694 336.653 16.0596 345.569C16.061 345.588 16.0625 345.607 16.0646 345.626C16.3063 348.283 13.5898 350.203 11.1953 349.019C5.12977 346.022 0.727162 340.034 0.0867436 332.809C-0.679595 324.167 4.16957 316.322 11.6237 312.864V171.903C5.31622 168.516 1.02877 161.866 1.02877 154.216C1.02877 145.897 6.09892 138.759 13.3233 135.715C15.9397 130.602 21.2745 127.079 27.3934 127.079H152.478C158.052 127.079 162.975 130.002 165.785 134.387C174.99 132.938 184.264 138.06 187.7 147.1C191.409 156.857 186.998 167.699 177.807 172.218V314.458C184.453 318.349 188.535 325.899 187.603 334.03C186.778 341.237 182.223 347.11 176.083 349.951C173.657 351.074 170.992 349.084 171.302 346.435C171.304 346.415 171.306 346.397 171.309 346.379C172.328 337.485 168.249 329.717 162.197 329.026C159.043 328.666 155.975 330.298 153.617 333.2C151.55 335.746 147.452 334.205 147.591 330.931C147.621 330.209 147.691 329.48 147.801 328.748C148.873 321.639 153.695 315.877 159.994 313.25V182.508C157.756 183.728 155.194 184.422 152.478 184.422H29.436V313.335V313.335Z" fill="#7DC322"/>
<path fill-rule="evenodd" clip-rule="evenodd" d="M92.0064 168.965C87.2304 168.965 83.3228 165.064 83.3228 160.296V149.138C83.3228 144.37 87.2304 140.47 92.0064 140.47H140.042C144.818 140.47 148.726 144.37 148.726 149.138V160.296C148.726 165.064 144.818 168.965 140.042 168.965H92.0064ZM90.2446 154.717C90.2446 160.176 94.6783 164.602 100.148 164.602C105.616 164.602 110.05 160.176 110.05 154.717C110.05 149.258 105.616 144.833 100.148 144.833C94.6783 144.833 90.2446 149.258 90.2446 154.717ZM117.421 154.717C117.421 160.176 121.855 164.602 127.324 164.602C132.793 164.602 137.227 160.176 137.227 154.717C137.227 149.258 132.793 144.833 127.324 144.833C121.855 144.833 117.421 149.258 117.421 154.717Z" fill="#19141E"/>
<path opacity="0.401228" fill-rule="evenodd" clip-rule="evenodd" d="M159.994 312.95V182.554C162.113 180.571 163.53 179.134 164.243 178.243C165.339 176.874 166.283 175.55 166.851 174.853C167 174.669 167.173 174.363 167.208 174.298C167.242 174.233 167.234 174.229 167.296 174.234C167.928 174.283 168.367 174.298 168.9 174.298C170.136 174.298 171.638 174.16 173.315 173.806C173.87 173.689 174.648 173.466 175.602 173.147C176.05 172.997 176.785 172.689 177.807 172.222V312.95H159.994ZM165.785 134.387C174.989 132.938 184.264 138.06 187.7 147.1C191.64 157.464 186.417 169.054 176.034 172.987C173.134 174.085 170.138 174.47 167.241 174.229C167.901 172.497 168.263 170.621 168.263 168.666V142.836C168.263 139.734 167.353 136.833 165.785 134.387H165.785ZM16.3021 173.703C16.4461 173.736 16.5935 173.766 16.7445 173.794C17.3055 173.898 17.957 174.035 18.6968 174.141C19.4964 174.238 20.3106 174.287 21.1363 174.287C32.242 174.287 41.244 165.301 41.244 154.216C41.244 143.131 32.242 134.144 21.1363 134.144C18.3653 134.144 15.7252 134.704 13.3232 135.715C15.9395 130.602 21.2744 127.079 27.3933 127.079H47.2C55.8814 127.079 62.9846 134.17 62.9846 142.836V168.666C62.9846 177.331 55.8814 184.422 47.2 184.422H29.4358V312.95H11.6235V171.912C11.7477 171.977 11.8695 172.039 11.9888 172.1L11.9876 172.094C13.3438 172.787 14.7892 173.331 16.3021 173.703V173.703Z" fill="black"/>
<path d="M177.807 294.059H180.307V291.559H177.807V294.059ZM159.994 294.059V291.559H157.494V294.059H159.994ZM177.807 299.059V301.559H180.307V299.059H177.807ZM159.994 299.059H157.494V301.559H159.994V299.059ZM177.807 278.89H180.307V276.39H177.807V278.89ZM159.994 278.89V276.39H157.494V278.89H159.994ZM177.807 283.89V286.39H180.307V283.89H177.807ZM159.994 283.89H157.494V286.39H159.994V283.89ZM177.807 263.721H180.307V261.221H177.807V263.721ZM159.994 263.721V261.221H157.494V263.721H159.994ZM177.807 268.721V271.221H180.307V268.721H177.807ZM159.994 268.721H157.494V271.221H159.994V268.721ZM177.807 248.551H180.307V246.051H177.807V248.551ZM159.994 248.551V246.051H157.494V248.551H159.994ZM177.807 253.551V256.051H180.307V253.551H177.807ZM159.994 253.551H157.494V256.051H159.994V253.551ZM177.807 233.382H180.307V230.882H177.807V233.382ZM159.994 233.382V230.882H157.494V233.382H159.994ZM177.807 238.382V240.882H180.307V238.382H177.807ZM159.994 238.382H157.494V240.882H159.994V238.382ZM177.807 218.213H180.307V215.713H177.807V218.213ZM159.994 218.213V215.713H157.494V218.213H159.994ZM177.807 223.213V225.713H180.307V223.213H177.807ZM159.994 223.213H157.494V225.713H159.994V223.213ZM177.807 203.044H180.307V200.544H177.807V203.044ZM159.994 203.044V200.544H157.494V203.044H159.994ZM177.807 208.044V210.544H180.307V208.044H177.807ZM159.994 208.044H157.494V210.544H159.994V208.044ZM177.807 187.875H180.307V185.375H177.807V187.875ZM159.994 187.875V185.375H157.494V187.875H159.994ZM177.807 192.875V195.375H180.307V192.875H177.807ZM159.994 192.875H157.494V195.375H159.994V192.875ZM29.4358 294.059H31.9358V291.559H29.4358V294.059ZM11.6235 294.059V291.559H9.12354V294.059H11.6235ZM29.4358 299.059V301.559H31.9358V299.059H29.4358ZM11.6235 299.059H9.12354V301.559H11.6235V299.059ZM29.4358 278.89H31.9358V276.39H29.4358V278.89ZM11.6235 278.89V276.39H9.12354V278.89H11.6235ZM29.4358 283.89V286.39H31.9358V283.89H29.4358ZM11.6235 283.89H9.12354V286.39H11.6235V283.89ZM29.4358 263.721H31.9358V261.221H29.4358V263.721ZM11.6235 263.721V261.221H9.12354V263.721H11.6235ZM29.4358 268.721V271.221H31.9358V268.721H29.4358ZM11.6235 268.721H9.12354V271.221H11.6235V268.721ZM29.4358 248.551H31.9358V246.051H29.4358V248.551ZM11.6235 248.551V246.051H9.12354V248.551H11.6235ZM29.4358 253.551V256.051H31.9358V253.551H29.4358ZM11.6235 253.551H9.12354V256.051H11.6235V253.551ZM29.4358 233.382H31.9358V230.882H29.4358V233.382ZM11.6235 233.382V230.882H9.12354V233.382H11.6235ZM29.4358 238.382V240.882H31.9358V238.382H29.4358ZM11.6235 238.382H9.12354V240.882H11.6235V238.382ZM29.4358 218.213H31.9358V215.713H29.4358V218.213ZM11.6235 218.213V215.713H9.12354V218.213H11.6235ZM29.4358 223.213V225.713H31.9358V223.213H29.4358ZM11.6235 223.213H9.12354V225.713H11.6235V223.213ZM29.4358 203.044H31.9358V200.544H29.4358V203.044ZM11.6235 203.044V200.544H9.12354V203.044H11.6235ZM29.4358 208.044V210.544H31.9358V208.044H29.4358ZM11.6235 208.044H9.12354V210.544H11.6235V208.044ZM29.4358 187.875H31.9358V185.375H29.4358V187.875ZM11.6235 187.875V185.375H9.12354V187.875H11.6235ZM29.4358 192.875V195.375H31.9358V192.875H29.4358ZM11.6235 192.875H9.12354V195.375H11.6235V192.875ZM177.807 291.559H159.994V296.559H177.807V291.559ZM180.307 299.059V294.059H175.307V299.059H180.307ZM159.994 301.559H177.807V296.559H159.994V301.559ZM157.494 294.059V299.059H162.494V294.059H157.494ZM177.807 276.39H159.994V281.39H177.807V276.39ZM180.307 283.89V278.89H175.307V283.89H180.307ZM159.994 286.39H177.807V281.39H159.994V286.39ZM157.494 278.89V283.89H162.494V278.89H157.494ZM177.807 261.221H159.994V266.221H177.807V261.221ZM180.307 268.721V263.721H175.307V268.721H180.307ZM159.994 271.221H177.807V266.221H159.994V271.221ZM157.494 263.721V268.721H162.494V263.721H157.494ZM177.807 246.051H159.994V251.051H177.807V246.051ZM180.307 253.551V248.551H175.307V253.551H180.307ZM159.994 256.051H177.807V251.051H159.994V256.051ZM157.494 248.551V253.551H162.494V248.551H157.494ZM177.807 230.882H159.994V235.882H177.807V230.882ZM180.307 238.382V233.382H175.307V238.382H180.307ZM159.994 240.882H177.807V235.882H159.994V240.882ZM157.494 233.382V238.382H162.494V233.382H157.494ZM177.807 215.713H159.994V220.713H177.807V215.713ZM180.307 223.213V218.213H175.307V223.213H180.307ZM159.994 225.713H177.807V220.713H159.994V225.713ZM157.494 218.213V223.213H162.494V218.213H157.494ZM177.807 200.544H159.994V205.544H177.807V200.544ZM180.307 208.044V203.044H175.307V208.044H180.307ZM159.994 210.544H177.807V205.544H159.994V210.544ZM157.494 203.044V208.044H162.494V203.044H157.494ZM177.807 185.375H159.994V190.375H177.807V185.375ZM180.307 192.875V187.875H175.307V192.875H180.307ZM159.994 195.375H177.807V190.375H159.994V195.375ZM157.494 187.875V192.875H162.494V187.875H157.494ZM29.4358 291.559H11.6235V296.559H29.4358V291.559ZM31.9358 299.059V294.059H26.9358V299.059H31.9358ZM11.6235 301.559H29.4358V296.559H11.6235V301.559ZM9.12354 294.059V299.059H14.1235V294.059H9.12354ZM29.4358 276.39H11.6235V281.39H29.4358V276.39ZM31.9358 283.89V278.89H26.9358V283.89H31.9358ZM11.6235 286.39H29.4358V281.39H11.6235V286.39ZM9.12354 278.89V283.89H14.1235V278.89H9.12354ZM29.4358 261.221H11.6235V266.221H29.4358V261.221ZM31.9358 268.721V263.721H26.9358V268.721H31.9358ZM11.6235 271.221H29.4358V266.221H11.6235V271.221ZM9.12354 263.721V268.721H14.1235V263.721H9.12354ZM29.4358 246.051H11.6235V251.051H29.4358V246.051ZM31.9358 253.551V248.551H26.9358V253.551H31.9358ZM11.6235 256.051H29.4358V251.051H11.6235V256.051ZM9.12354 248.551V253.551H14.1235V248.551H9.12354ZM29.4358 230.882H11.6235V235.882H29.4358V230.882ZM31.9358 238.382V233.382H26.9358V238.382H31.9358ZM11.6235 240.882H29.4358V235.882H11.6235V240.882ZM9.12354 233.382V238.382H14.1235V233.382H9.12354ZM29.4358 215.713H11.6235V220.713H29.4358V215.713ZM31.9358 223.213V218.213H26.9358V223.213H31.9358ZM11.6235 225.713H29.4358V220.713H11.6235V225.713ZM9.12354 218.213V223.213H14.1235V218.213H9.12354ZM29.4358 200.544H11.6235V205.544H29.4358V200.544ZM31.9358 208.044V203.044H26.9358V208.044H31.9358ZM11.6235 210.544H29.4358V205.544H11.6235V210.544ZM9.12354 203.044V208.044H14.1235V203.044H9.12354ZM29.4358 185.375H11.6235V190.375H29.4358V185.375ZM31.9358 192.875V187.875H26.9358V192.875H31.9358ZM11.6235 195.375H29.4358V190.375H11.6235V195.375ZM9.12354 187.875V192.875H14.1235V187.875H9.12354Z" fill="#19141E"/>
<path fill-rule="evenodd" clip-rule="evenodd" d="M76.7124 221.827H101.873V181.977H76.7124V221.827Z" fill="#19141E"/>
<path d="M78.6865 36.3701C78.6865 36.3701 91.3227 44.7124 92.7128 59.1454" stroke="#19141E" stroke-width="5" stroke-linecap="round"/>
<path fill-rule="evenodd" clip-rule="evenodd" d="M77.4916 42.6212C81.7032 42.6212 85.1173 39.2125 85.1173 35.0085C85.1173 30.8045 81.7032 27.3965 77.4916 27.3965C73.2801 27.3965 69.8652 30.8045 69.8652 35.0085C69.8652 39.2125 73.2801 42.6212 77.4916 42.6212ZM41.1645 97.0657H79.4287V127.315H101.398V97.0657H137.651C145.959 97.0657 152.757 90.2801 152.757 81.9869V71.8214C152.757 63.5283 145.959 56.7426 137.651 56.7426H41.1645C32.8564 56.7426 26.0586 63.5283 26.0586 71.8214V81.9869C26.0586 90.2801 32.8564 97.0657 41.1645 97.0657Z" fill="#7DC322"/>
<path opacity="0.399042" fill-rule="evenodd" clip-rule="evenodd" d="M79.4282 127.315H101.397V96.9766H79.4282V127.315Z" fill="black"/>
<path opacity="0.400367" fill-rule="evenodd" clip-rule="evenodd" d="M79.4287 117.502L101.398 110.278V96.8545H79.4287V117.502Z" fill="black"/>
<path fill-rule="evenodd" clip-rule="evenodd" d="M41.164 97.0653V97.0653C32.8559 97.0653 26.0581 90.2796 26.0581 81.9865V71.821C26.0581 63.5278 32.8559 56.7422 41.164 56.7422C49.4721 56.7422 56.2699 63.5278 56.2699 71.821V81.9865C56.2699 90.2796 49.4721 97.0653 41.164 97.0653" fill="#19141E"/>
<path fill-rule="evenodd" clip-rule="evenodd" d="M64.856 76.9045C64.856 83.2893 70.0415 88.4655 76.4378 88.4655C82.8347 88.4655 88.0203 83.2893 88.0203 76.9045C88.0203 70.5191 82.8347 65.3428 76.4378 65.3428C70.0415 65.3428 64.856 70.5191 64.856 76.9045" fill="white"/>
<path fill-rule="evenodd" clip-rule="evenodd" d="M72.6177 75.2801C72.6177 78.2135 74.9999 80.5915 77.9386 80.5915C80.8773 80.5915 83.2595 78.2135 83.2595 75.2801C83.2595 72.3467 80.8773 69.9688 77.9386 69.9688C74.9999 69.9688 72.6177 72.3467 72.6177 75.2801" fill="#19141E"/>
<path fill-rule="evenodd" clip-rule="evenodd" d="M121.335 76.9045C121.335 83.2893 126.521 88.4655 132.918 88.4655C139.315 88.4655 144.5 83.2893 144.5 76.9045C144.5 70.5191 139.315 65.3428 132.918 65.3428C126.521 65.3428 121.335 70.5191 121.335 76.9045" fill="white"/>
<path fill-rule="evenodd" clip-rule="evenodd" d="M129.097 75.2801C129.097 78.2135 131.479 80.5915 134.418 80.5915C137.357 80.5915 139.739 78.2135 139.739 75.2801C139.739 72.3467 137.357 69.9688 134.418 69.9688C131.479 69.9688 129.097 72.3467 129.097 75.2801" fill="#19141E"/>
<path fill-rule="evenodd" clip-rule="evenodd" d="M102.031 68.9795L112.391 76.8263L102.031 84.8283" fill="#19141E"/>
</svg>
