<svg width="332" height="222" viewBox="0 0 332 222" fill="none" xmlns="http://www.w3.org/2000/svg">
<path fill-rule="evenodd" clip-rule="evenodd" d="M304.571 221.54H0.0507812C1.45753 185.458 23.6493 170.042 57.493 169.189C79.8331 108.73 128.782 170.413 132.305 122.59C136.445 66.3509 137.636 0.0673828 137.636 0.0673828L166.494 0.544646C166.494 0.544646 168.904 36.0311 173.904 108.328C177.45 159.538 213.574 112.045 261.023 143.079C284.975 158.746 283.907 196.646 283.907 196.646C283.907 196.646 304.571 197.679 304.571 221.54" fill="#B5B8BC"/>
<path fill-rule="evenodd" clip-rule="evenodd" d="M104.682 221.54H29.9878C33.2369 205.539 47.109 193.867 63.4487 192.267C66.5821 191.97 69.8023 192.032 73.0586 192.503C74.9328 192.78 76.7564 193.174 78.5221 193.694C83.3632 195.115 87.7484 197.414 91.4969 200.378C98.2629 205.706 102.981 213.186 104.682 221.54" fill="#D7DADD"/>
<path fill-rule="evenodd" clip-rule="evenodd" d="M270.69 221.54H230.268C231.925 214.177 237.201 208.213 244.14 205.948C245.776 205.414 247.505 205.082 249.307 204.992C250.342 204.936 251.369 204.964 252.368 205.068C261.175 205.962 268.534 212.625 270.69 221.54" fill="#D7DADD"/>
<path fill-rule="evenodd" clip-rule="evenodd" d="M204.97 221.541H89.4634C88.9858 216.983 89.0943 212.3 89.8469 207.569C90.2376 205.11 90.7948 202.707 91.4968 200.379C99.4857 174.016 126.846 156.754 155.966 160.993C162.847 161.997 169.259 164.118 175.033 167.137C195.056 177.583 207.409 198.807 204.97 221.541" fill="#D7DADD"/>
<path fill-rule="evenodd" clip-rule="evenodd" d="M113.258 116.694C112.31 122.654 106.496 126.749 100.271 125.842C94.0457 124.935 89.7676 119.37 90.7148 113.411C91.6621 107.452 97.4758 103.357 103.701 104.263C109.926 105.17 114.205 110.735 113.258 116.694" fill="#D7DADD"/>
<path fill-rule="evenodd" clip-rule="evenodd" d="M196.035 118.764C195.644 121.223 193.245 122.913 190.676 122.539C188.106 122.164 186.341 119.868 186.732 117.408C187.123 114.949 189.522 113.259 192.091 113.633C194.66 114.008 196.426 116.304 196.035 118.764" fill="#D7DADD"/>
<path fill-rule="evenodd" clip-rule="evenodd" d="M331.391 193.65C330.488 199.324 324.951 203.225 319.022 202.362C313.093 201.498 309.019 196.197 309.921 190.522C310.823 184.847 316.361 180.946 322.289 181.81C328.218 182.673 332.293 187.974 331.391 193.65" fill="#D7DADD"/>
</svg>
