<svg width="219" height="316" viewBox="0 0 219 316" fill="none" xmlns="http://www.w3.org/2000/svg">
<path fill-rule="evenodd" clip-rule="evenodd" d="M170.137 88.5183L154.359 315.204H15.8061L0.0304409 88.5183C-0.4674 81.419 5.20476 75.3906 12.3772 75.3906H157.789C164.962 75.3906 170.635 81.419 170.137 88.5183" fill="#E4E4E4"/>
<path fill-rule="evenodd" clip-rule="evenodd" d="M170.167 101.238H0V89.0322H170.167V101.238Z" fill="#F4F4F4"/>
<path fill-rule="evenodd" clip-rule="evenodd" d="M202.628 108.451L33.0286 41.3983L36.5326 32.5354C39.7002 24.5233 48.8668 20.6372 57.0076 23.8557L197.129 79.2536C205.269 82.4719 209.3 91.5757 206.132 99.5878L202.628 108.451Z" fill="#E4E4E4"/>
<path fill-rule="evenodd" clip-rule="evenodd" d="M94.6293 41.8186L101.974 44.7225L107.782 30.0327L100.437 27.1289L94.6293 41.8186Z" fill="#E4E4E4"/>
<path fill-rule="evenodd" clip-rule="evenodd" d="M148.574 61.6016L155.251 64.2414L161.323 48.884L154.646 46.2441L148.574 61.6016Z" fill="#E4E4E4"/>
<path fill-rule="evenodd" clip-rule="evenodd" d="M99.6447 29.1317L159.739 52.8904L162.907 44.8779L102.812 21.1191L99.6447 29.1317Z" fill="#E4E4E4"/>
<path fill-rule="evenodd" clip-rule="evenodd" d="M99.248 202.382L117.559 191.177L125.763 207.375C127.745 216.224 116.885 219.472 108.165 218.944L99.248 202.382V202.382Z" fill="#7DC323"/>
<path fill-rule="evenodd" clip-rule="evenodd" d="M95.011 214.184L85.3369 231.717L95.011 249.496L95.2503 242.385H104.089C107.315 242.671 111.494 240.504 113.047 237.358L124.395 216.023C120.652 219.824 115.839 220.805 110.301 220.805H95.3695L95.011 214.184V214.184Z" fill="#7DC323"/>
<path fill-rule="evenodd" clip-rule="evenodd" d="M73.354 192.782L54.8398 181.793L64.7171 166.542C71.332 160.456 79.4028 168.626 83.1969 176.713L73.354 192.782V192.782Z" fill="#7DC323"/>
<path fill-rule="evenodd" clip-rule="evenodd" d="M85.2013 190.471L104.846 190.642L115.299 173.533L109.122 176.733L104.828 168.893C103.506 165.896 99.6294 163.227 96.1921 163.359L72.4961 163.529C77.5532 165.025 80.7274 168.822 83.4182 173.735L90.6709 186.977L85.2013 190.471V190.471Z" fill="#7DC323"/>
<path fill-rule="evenodd" clip-rule="evenodd" d="M40.34 191.885L46.1431 196.376L40.6814 206.741C37.9505 211.522 42.6419 216.177 45.6311 217.798C48.5737 219.394 53.1407 219.583 57.4079 219.525L65.0885 207.087L70.8907 210.196L60.8209 191.712L40.3397 191.885H40.34Z" fill="#7DC323"/>
<path fill-rule="evenodd" clip-rule="evenodd" d="M41.4634 215.788L53.6575 238.708C56.1084 241.892 60.73 242.645 65.5183 242.529H78.3811V220.823L53.9918 220.649C50.2055 220.882 45.2497 220.071 41.4634 215.788V215.788Z" fill="#7DC323"/>
</svg>
