<svg width="219" height="316" viewBox="0 0 219 316" fill="none" xmlns="http://www.w3.org/2000/svg">
<path fill-rule="evenodd" clip-rule="evenodd" d="M170.137 88.5183L154.359 315.204H15.8061L0.0304409 88.5183C-0.4674 81.419 5.20476 75.3906 12.3772 75.3906H157.789C164.962 75.3906 170.635 81.419 170.137 88.5183" fill="#E4E4E4"/>
<path fill-rule="evenodd" clip-rule="evenodd" d="M170.167 101.238H0V89.0322H170.167V101.238Z" fill="#F4F4F4"/>
<path fill-rule="evenodd" clip-rule="evenodd" d="M202.628 108.451L33.0286 41.3983L36.5326 32.5354C39.7002 24.5233 48.8668 20.6372 57.0076 23.8557L197.129 79.2536C205.269 82.4719 209.3 91.5757 206.132 99.5878L202.628 108.451Z" fill="#E4E4E4"/>
<path fill-rule="evenodd" clip-rule="evenodd" d="M94.6293 41.8186L101.974 44.7225L107.782 30.0327L100.437 27.1289L94.6293 41.8186Z" fill="#E4E4E4"/>
<path fill-rule="evenodd" clip-rule="evenodd" d="M148.574 61.6016L155.251 64.2414L161.323 48.884L154.646 46.2441L148.574 61.6016Z" fill="#E4E4E4"/>
<path fill-rule="evenodd" clip-rule="evenodd" d="M99.6447 29.1317L159.739 52.8904L162.907 44.8779L102.812 21.1191L99.6447 29.1317Z" fill="#E4E4E4"/>
<path fill-rule="evenodd" clip-rule="evenodd" d="M104.829 200.998L129.402 185.962L140.411 207.699C143.071 219.575 128.497 223.933 116.796 223.225L104.829 200.998V200.998Z" fill="#7DC323"/>
<path fill-rule="evenodd" clip-rule="evenodd" d="M99.1424 216.837L86.1602 240.367L99.1424 264.225L99.4636 254.682H111.325C115.654 255.066 121.262 252.158 123.347 247.936L138.575 219.305C133.552 224.406 127.093 225.722 119.661 225.722H99.6235L99.1424 216.837V216.837Z" fill="#7DC323"/>
<path fill-rule="evenodd" clip-rule="evenodd" d="M70.0792 188.116L45.2339 173.369L58.4889 152.902C67.3658 144.735 78.1965 155.7 83.2882 166.552L70.0792 188.116V188.116Z" fill="#7DC323"/>
<path fill-rule="evenodd" clip-rule="evenodd" d="M85.9781 185.015L112.34 185.244L126.369 162.286L118.079 166.579L112.317 156.059C110.543 152.036 105.34 148.455 100.727 148.632L68.9282 148.86C75.7147 150.868 79.9743 155.964 83.5853 162.557L93.3182 180.327L85.9781 185.015V185.015Z" fill="#7DC323"/>
<path fill-rule="evenodd" clip-rule="evenodd" d="M25.7762 186.913L33.5637 192.94L26.2344 206.849C22.5696 213.265 28.8653 219.512 32.8767 221.687C36.8256 223.829 42.9542 224.083 48.6808 224.005L58.9878 207.314L66.7742 211.486L53.2609 186.681L25.7758 186.913H25.7762Z" fill="#7DC323"/>
<path fill-rule="evenodd" clip-rule="evenodd" d="M27.2837 218.99L43.6478 249.748C46.9368 254.02 53.1389 255.031 59.5646 254.876H76.8261V225.747L44.0965 225.514C39.0153 225.825 32.3648 224.738 27.2837 218.99V218.99Z" fill="#7DC323"/>
</svg>
