<svg width="170" height="58" viewBox="0 0 170 58" fill="none" xmlns="http://www.w3.org/2000/svg">
<path d="M34.5764 50.2093C33.5002 50.2563 32.4019 50.1988 31.2183 50.0337C31.204 50.0312 31.1629 50.0039 31.1444 49.9744C30.9412 49.6402 30.8079 49.2844 30.7363 48.8867C30.2792 46.3479 28.1052 44.1263 25.5675 43.604C25.5134 43.5925 25.4582 43.5848 25.3948 43.5767L25.3358 43.5688C25.2796 43.5607 25.2207 43.5862 25.1888 43.6298C25.1539 43.6757 25.147 43.737 25.1708 43.7902L25.3341 44.1545C25.4787 44.4769 25.6202 44.7923 25.7596 45.1086L25.7957 45.1915C26.1906 46.0908 26.5989 47.0207 27.1379 47.8748C27.6241 48.6454 28.2047 49.2008 28.9011 49.5588C27.5298 49.1754 26.2012 48.629 24.94 47.929C24.9136 47.9143 24.8742 47.8671 24.8586 47.8237L24.6537 47.1663C24.6473 47.1427 24.6301 47.0801 24.6352 47.0455C24.8194 45.7595 24.5977 44.4268 23.958 42.9716C23.341 41.5681 22.3577 40.3888 21.0353 39.4665C20.8805 39.3585 20.7579 39.3156 20.671 39.3389C20.6498 39.3446 20.6318 39.354 20.6188 39.3659C20.5788 39.4013 20.5595 39.4543 20.5672 39.5074L20.6025 39.7464C20.6279 39.9241 20.6532 40.0983 20.6807 40.2724C20.7296 40.5788 20.7755 40.8856 20.8212 41.1925L20.8279 41.2368C20.9424 42.0032 21.0605 42.7957 21.2203 43.5781C21.407 44.4908 21.7041 45.5356 22.493 46.3642C22.4971 46.3684 22.501 46.3729 22.5052 46.377C21.5228 45.6512 20.5856 44.8379 19.7049 43.946C19.6269 43.8666 19.6004 43.7857 19.5783 43.6639C19.4859 43.1488 19.6095 42.6768 19.7567 42.2439C20.0408 41.4057 20.1029 40.4883 19.9581 39.2692C19.7555 37.5643 19.0747 35.9819 17.9351 34.5655C17.9037 34.5265 17.8695 34.4899 17.8329 34.4505L17.7494 34.3604C17.7091 34.3163 17.6434 34.2978 17.5843 34.3165C17.5255 34.3356 17.4831 34.3877 17.4762 34.4486C17.4209 34.9303 17.3669 35.3945 17.3132 35.8553L17.2789 36.1498C17.1645 37.1332 17.0471 38.2769 17.1042 39.4093C17.1447 40.2083 17.3302 40.9403 17.6583 41.5965C16.7541 40.427 15.9279 39.1565 15.1941 37.8062C15.1858 37.7912 15.1734 37.7499 15.1821 37.6447C15.2249 37.1553 15.4122 36.6717 15.7095 36.2832C16.3603 35.4322 16.5903 34.4301 16.7294 33.5622C17.0147 31.787 16.7562 30.0517 15.9387 28.2566C15.9301 28.2378 15.9189 28.2199 15.9062 28.2005L15.896 28.185C15.871 28.1466 15.8308 28.1208 15.7849 28.1141C15.7402 28.108 15.6905 28.1247 15.6634 28.1485C15.6351 28.1684 15.5922 28.1986 15.5735 28.2525C15.4596 28.5383 15.3437 28.8271 15.2276 29.1158L15.2081 29.1644C14.9155 29.8933 14.6128 30.6466 14.3278 31.3926C13.997 32.255 13.8149 33.0559 13.7708 33.8412C13.7496 34.2205 13.7646 34.5761 13.8166 34.9114C13.352 33.7808 12.946 32.6082 12.6044 31.4077C12.5229 31.1211 12.498 30.8827 12.6267 30.5799C12.7624 30.2574 12.916 30.0565 13.1565 29.8866C14.1452 29.1907 14.621 28.1523 14.9249 27.3256C15.4154 25.9884 15.5292 24.5549 15.2726 22.9431C15.2468 22.7771 15.2129 22.6112 15.1769 22.4357L15.1689 22.3958C15.1512 22.3105 15.133 22.2217 15.1147 22.1273C15.1023 22.0647 15.0541 22.0158 14.9918 22.0026C14.9316 21.99 14.8657 22.0161 14.8301 22.0677L14.7299 22.2145C14.6922 22.2695 14.6599 22.3167 14.6258 22.3633C14.462 22.5878 14.2969 22.8107 14.1315 23.0342L14.1142 23.0574C13.7511 23.5479 13.3755 24.0551 13.0248 24.5689C12.3434 25.5629 11.9759 26.469 11.8684 27.4208C11.8505 27.5778 11.8392 27.7313 11.8344 27.8816C11.6068 26.4759 11.4716 25.0677 11.4314 23.6771C11.4262 23.5071 11.4347 23.4545 11.5052 23.4082C11.5495 23.3786 11.5863 23.3346 11.6089 23.2864C11.765 22.9694 12.0504 22.8494 12.3358 22.7667C13.2873 22.4875 13.9183 21.8045 14.4099 21.1732C15.6152 19.6254 15.8791 16.447 15.8527 16.3487C15.839 16.2975 15.8008 16.2565 15.7499 16.2393C15.6998 16.2225 15.6413 16.2339 15.6031 16.2649C15.3242 16.4834 15.0443 16.6984 14.7545 16.9211C14.1171 17.412 13.4581 17.9193 12.8361 18.4475C12.2104 18.9802 11.7659 19.5874 11.511 20.2563C11.602 19.0518 11.7603 17.8524 11.9835 16.6808C12.0111 16.5535 12.2499 16.3622 12.6379 16.2582C12.7641 16.2244 12.8901 16.2052 13.0026 16.2024C13.9731 16.1774 14.8415 15.8022 15.7076 15.0322C16.5936 14.2442 17.2178 13.1767 17.6157 11.7681C17.6232 11.7409 17.6312 11.6619 17.635 11.6178C17.6402 11.5637 17.6183 11.5115 17.5768 11.4785C17.5381 11.447 17.4866 11.4358 17.429 11.4513C17.4285 11.4514 17.4282 11.4515 17.4277 11.4516L17.0725 11.5713C16.8548 11.6446 16.6434 11.716 16.4313 11.7846L16.2047 11.8578C15.5283 12.0762 14.8286 12.3019 14.1792 12.6537C13.4391 13.0568 12.9367 13.5057 12.6077 14.06C12.8989 13.0377 13.2389 12.048 13.6233 11.1034C13.6338 11.0783 13.702 11.0259 13.7621 10.9985C13.7915 10.9827 13.8994 10.928 14.0513 10.8872C14.2529 10.8332 14.4404 10.8271 14.6121 10.8696C15.6876 11.0815 16.7644 10.8301 17.8163 10.12C18.6796 9.53918 19.3225 8.71786 19.782 7.60957C19.797 7.5738 19.809 7.53594 19.8187 7.49686C19.8297 7.45186 19.8196 7.4083 19.7902 7.37395C19.7047 7.27356 19.4538 7.28285 19.3495 7.29155C19.0937 7.31414 18.8039 7.33945 18.5195 7.37563C18.389 7.39167 18.2582 7.40697 18.1269 7.42203L18.1101 7.42385C17.6655 7.47508 17.2059 7.52797 16.7545 7.62477C15.9295 7.80106 15.2516 8.1614 14.7592 8.68891C15.043 8.15752 15.3412 7.64557 15.6523 7.15636C15.7507 7.00196 15.866 6.84202 16.0266 6.63702C16.039 6.62088 16.0748 6.59626 16.1225 6.58042C17.5328 6.14259 18.5495 5.19322 19.2305 3.67849C19.6016 2.85381 19.7965 1.88686 19.8265 0.722229L19.8275 0.682253C19.8312 0.559666 19.8333 0.492216 19.7354 0.440087C19.6599 0.399867 19.5579 0.44509 19.3108 0.629196C19.0856 0.79341 18.858 0.955207 18.6244 1.12133C18.1551 1.45501 17.6696 1.8001 17.2099 2.16614C16.4419 2.77862 15.9016 3.53988 15.6041 4.42843C15.3775 5.10462 15.3816 5.72182 15.6158 6.31238C15.6171 6.31928 15.6155 6.33711 15.6151 6.33925C14.9181 7.36931 14.2876 8.4876 13.6791 9.78057C14.0289 8.70944 14.1348 7.5557 14.003 6.28646C13.8701 5.00688 13.5899 3.91135 13.1465 2.93739C13.1186 2.87648 13.0869 2.81657 13.0468 2.74168L12.9861 2.62605C12.9594 2.57663 12.9084 2.54452 12.852 2.54206C12.7959 2.54054 12.7413 2.56985 12.7125 2.61727C12.6661 2.69271 12.62 2.7645 12.575 2.83433L12.5432 2.88354C12.4279 3.06207 12.3189 3.2306 12.2282 3.4125C11.3474 5.18326 11.0151 6.89334 11.2126 8.64053C11.3009 9.43043 11.5218 10.0639 11.8878 10.5765C12.009 10.7464 12.1644 10.8855 12.319 11.0234C12.3897 11.0864 12.4605 11.1497 12.5276 11.2161C12.5767 11.2636 12.5834 11.2775 12.5826 11.2749C12.6218 11.505 12.6589 11.7633 12.6989 12.0745C12.6982 12.0788 12.6949 12.0891 12.6833 12.1179L12.6741 12.1421C12.2411 13.2923 11.8757 14.4804 11.5837 15.6871C11.5988 14.8402 11.5118 13.7968 11.1892 12.6437C10.8022 11.2606 10.1525 10.1087 9.20254 9.12169C9.16519 9.0834 9.1115 9.06637 9.04611 9.07916C8.99949 9.09165 8.9608 9.12685 8.94204 9.17427C8.93007 9.20619 8.91736 9.23662 8.90525 9.26553C8.87832 9.33017 8.8533 9.39126 8.83329 9.45472C8.53884 10.3928 8.50253 11.3499 8.50358 12.079C8.50665 13.416 8.63365 14.4991 8.90325 15.4877C9.1312 16.3283 9.45723 16.9341 9.92945 17.3942C10.0763 17.5374 10.2438 17.6523 10.4121 17.768C10.5013 17.8294 10.5931 17.8924 10.6788 17.9593C10.7387 18.0058 10.776 18.0594 10.7861 18.0922C10.8479 18.2895 10.8978 18.4935 10.9461 18.6906L10.9795 18.8269C10.9852 18.8504 10.9871 18.8786 10.9846 18.9012C10.8422 20.005 10.7597 21.1345 10.7376 22.2778C10.6859 21.9044 10.6176 21.5477 10.5325 21.2047C10.0505 19.2574 8.99493 17.686 7.39461 16.5334L7.06114 16.2936C7.02243 16.2653 6.97393 16.2563 6.92809 16.2686L6.90357 16.2775C6.85229 16.3009 6.81708 16.3503 6.81204 16.4063C6.80555 16.4737 6.79859 16.5375 6.79176 16.5993C6.77866 16.7187 6.76639 16.8318 6.7607 16.9449C6.71999 17.8272 6.83112 18.7493 7.12105 19.9343L7.12674 19.9574C7.33709 20.8197 7.62517 22.0009 8.27692 23.0305C8.91849 24.0441 9.67703 24.4399 9.82197 24.5087L9.83757 24.5166C10.2361 24.7184 10.5159 24.9257 10.605 25.0851C10.6409 25.1494 10.6772 25.2138 10.7162 25.2767C10.8895 25.5564 10.9099 25.8617 10.9319 26.1914C10.9435 26.3577 10.9552 26.5295 10.9889 26.7C11.1243 27.3822 11.2526 28.0785 11.3767 28.7517L11.3883 28.814C11.4199 28.9857 11.4514 29.1575 11.4831 29.3292C10.9449 27.8568 10.0799 26.619 8.89879 25.6358C8.17568 25.0344 7.38051 24.5672 6.53482 24.2467C6.4983 24.2328 6.46084 24.2218 6.41094 24.2076C6.38681 24.2011 6.35876 24.193 6.32446 24.1825C6.27306 24.1677 6.21559 24.1806 6.17591 24.2152C6.13525 24.2506 6.11553 24.3057 6.12429 24.3597C6.14026 24.4576 6.15386 24.553 6.16776 24.6519C6.19662 24.8545 6.22383 25.0458 6.27389 25.2364C6.79211 27.2125 7.7034 28.9501 8.98271 30.4003C9.33932 30.805 9.75345 31.1268 10.2141 31.357C10.6703 31.5836 11.12 31.6688 11.5879 31.6174C11.5983 31.6165 11.6257 31.6245 11.6301 31.6264C11.6675 31.6688 11.706 31.7112 11.7445 31.7538C11.8809 31.9039 12.0219 32.0591 12.1165 32.2273C12.1959 32.3697 12.2406 32.5366 12.2879 32.7134C12.3053 32.7782 12.3228 32.8434 12.342 32.9068C12.7947 34.4238 12.994 34.941 13.6036 36.2414C13.3461 35.8752 13.0504 35.518 12.7044 35.1908C11.3038 33.8668 9.77581 33.1229 8.03319 32.9168C7.92219 32.9031 7.81391 32.9009 7.68831 32.8981L7.66322 32.8973C7.61225 32.8961 7.55821 32.8947 7.50028 32.8927C7.44767 32.8897 7.39548 32.9154 7.36486 32.9587C7.33436 33.0018 7.32718 33.0573 7.34629 33.1079C7.38696 33.2132 7.42321 33.3165 7.45816 33.4174C7.5348 33.6388 7.60711 33.8477 7.71808 34.044C8.75383 35.8775 10.015 37.2209 11.5734 38.1513C12.2397 38.549 12.8727 38.7098 13.5085 38.643C13.6688 38.6258 13.8576 38.5784 14.1707 38.4733L14.2609 38.4432C14.2746 38.4387 14.2867 38.4346 14.2978 38.4316C14.3229 38.4249 14.325 38.4243 14.3493 38.4455L14.9334 38.9192C14.9409 38.9254 14.9564 38.9512 14.9671 38.9689L14.979 38.9884C15.8253 40.3762 16.7634 41.6801 17.7801 42.8836C17.3804 42.5578 16.9621 42.2747 16.5131 42.0233C14.4485 40.8672 11.6369 41.5711 11.3231 41.6552L11.2841 41.666L11.2607 41.6772C11.1911 41.7252 11.1716 41.8189 11.2161 41.8903C11.2576 41.9577 11.2978 42.0263 11.3445 42.107C11.4331 42.2584 11.5248 42.4148 11.6336 42.5606C12.1523 43.2556 12.8557 43.8694 13.8477 44.493C14.529 44.9201 15.2798 45.3373 16.1529 45.4943C17.1093 45.6671 17.9021 45.5593 18.6121 45.159C18.7326 45.0901 18.8701 45.0068 18.9759 44.8889C19.0516 44.8056 19.077 44.8008 19.1848 44.8439C19.3125 44.8948 19.4436 44.9311 19.5708 44.9663C19.6411 44.9858 19.712 45.0055 19.7788 45.0264C19.79 45.0317 19.8181 45.0585 19.8284 45.0683C20.8127 46.0051 21.8453 46.8442 22.9135 47.5757C22.3872 47.3722 21.8729 47.2607 21.3514 47.2344C19.7573 47.153 18.2358 47.6254 16.8713 48.6245C16.6677 48.7738 16.4545 48.9745 16.4404 48.9884C16.4117 49.0208 16.3976 49.0644 16.4015 49.1091C16.4062 49.1528 16.4285 49.1928 16.4627 49.2187C16.5269 49.2681 16.5896 49.3181 16.6517 49.3679L16.6654 49.3787C16.8059 49.4918 16.965 49.6195 17.1333 49.7254C17.8912 50.2008 18.7303 50.4308 19.5243 50.6086C20.6155 50.8507 21.6667 50.857 22.6491 50.6276C22.6953 50.6169 22.7414 50.6055 22.7871 50.5933C23.683 50.3532 24.3029 49.8694 24.6796 49.1188C24.6849 49.1123 24.7059 49.097 24.7187 49.0934C24.9286 49.053 25.1324 49.0307 25.2853 49.0159C25.3095 49.0138 25.3416 49.0201 25.3636 49.0314C26.4787 49.5904 27.6207 50.0374 28.7773 50.3683C28.6142 50.3638 28.4482 50.3664 28.2806 50.3777C27.1608 50.4575 26.1087 50.8776 25.043 51.6732C24.3243 52.211 23.7025 52.8848 23.1418 53.7331C23.0955 53.8028 23.1117 53.8969 23.1787 53.9472C23.5278 54.2098 23.9162 54.3052 24.25 54.3637C25.0645 54.5074 25.9396 54.5047 26.9265 54.3554C26.9294 54.3548 27.2444 54.2991 27.6761 54.1835C27.9877 54.1 28.2739 54.0083 28.5263 53.9111C28.7676 53.8184 29.0039 53.7093 29.2287 53.5869C30.2603 53.0213 30.8597 52.2662 31.0575 51.2902C31.0632 51.2807 31.091 51.2527 31.13 51.2312C31.3159 51.1282 31.4858 51.0452 31.6502 50.9767C31.6886 50.9594 31.7416 50.9569 31.8116 50.9655C32.6529 51.0561 33.5254 51.0856 34.4033 51.0534C34.4157 51.0531 34.4281 51.0513 34.4402 51.0481C34.4958 51.0332 34.5387 50.9887 34.5523 50.9314C34.5917 50.7627 34.6501 50.5954 34.7255 50.4342C34.7491 50.3835 34.7446 50.3255 34.7138 50.2791C34.6843 50.234 34.6328 50.2076 34.5764 50.2093Z" fill="#C5C5C5"/>
<path d="M134.65 50.2093C135.726 50.2563 136.825 50.1988 138.008 50.0337C138.023 50.0312 138.064 50.0039 138.082 49.9744C138.285 49.6402 138.419 49.2844 138.49 48.8867C138.947 46.3479 141.121 44.1263 143.659 43.604C143.713 43.5925 143.768 43.5848 143.832 43.5767L143.891 43.5688C143.947 43.5607 144.006 43.5862 144.038 43.6298C144.073 43.6757 144.08 43.737 144.056 43.7902L143.892 44.1545C143.748 44.4769 143.606 44.7923 143.467 45.1086L143.431 45.1915C143.036 46.0908 142.628 47.0207 142.089 47.8748C141.602 48.6454 141.022 49.2008 140.325 49.5588C141.697 49.1754 143.025 48.629 144.287 47.929C144.313 47.9143 144.352 47.8671 144.368 47.8237L144.573 47.1663C144.579 47.1427 144.596 47.0801 144.591 47.0455C144.407 45.7595 144.629 44.4268 145.269 42.9716C145.886 41.5681 146.869 40.3888 148.191 39.4665C148.346 39.3585 148.469 39.3156 148.556 39.3389C148.577 39.3446 148.595 39.354 148.608 39.3659C148.648 39.4013 148.667 39.4543 148.659 39.5074L148.624 39.7464C148.599 39.9241 148.573 40.0983 148.546 40.2724C148.497 40.5788 148.451 40.8856 148.405 41.1925L148.399 41.2368C148.284 42.0032 148.166 42.7957 148.006 43.5781C147.82 44.4908 147.522 45.5356 146.734 46.3642C146.729 46.3684 146.726 46.3729 146.721 46.377C147.704 45.6512 148.641 44.8379 149.522 43.946C149.6 43.8666 149.626 43.7857 149.648 43.6639C149.741 43.1488 149.617 42.6768 149.47 42.2439C149.186 41.4057 149.124 40.4883 149.268 39.2692C149.471 37.5643 150.152 35.9819 151.292 34.5655C151.323 34.5265 151.357 34.4899 151.394 34.4505L151.477 34.3604C151.517 34.3163 151.583 34.2978 151.642 34.3165C151.701 34.3356 151.743 34.3877 151.75 34.4486C151.806 34.9303 151.86 35.3945 151.913 35.8553L151.948 36.1498C152.062 37.1332 152.179 38.2769 152.122 39.4093C152.082 40.2083 151.896 40.9403 151.568 41.5965C152.473 40.427 153.299 39.1565 154.032 37.8062C154.041 37.7912 154.053 37.7499 154.044 37.6447C154.002 37.1553 153.814 36.6717 153.517 36.2832C152.866 35.4322 152.636 34.4301 152.497 33.5622C152.212 31.787 152.47 30.0517 153.288 28.2566C153.296 28.2378 153.308 28.2199 153.32 28.2005L153.331 28.185C153.356 28.1466 153.396 28.1208 153.442 28.1141C153.486 28.108 153.536 28.1247 153.563 28.1485C153.591 28.1684 153.634 28.1986 153.653 28.2525C153.767 28.5383 153.883 28.8271 153.999 29.1158L154.018 29.1644C154.311 29.8933 154.614 30.6466 154.899 31.3926C155.23 32.255 155.412 33.0559 155.456 33.8412C155.477 34.2205 155.462 34.5761 155.41 34.9114C155.875 33.7808 156.281 32.6082 156.622 31.4077C156.704 31.1211 156.729 30.8827 156.6 30.5799C156.464 30.2574 156.311 30.0565 156.07 29.8866C155.081 29.1907 154.606 28.1523 154.302 27.3256C153.811 25.9884 153.697 24.5549 153.954 22.9431C153.98 22.7771 154.014 22.6112 154.05 22.4357L154.058 22.3958C154.075 22.3105 154.094 22.2217 154.112 22.1273C154.124 22.0647 154.172 22.0158 154.235 22.0026C154.295 21.99 154.361 22.0161 154.396 22.0677L154.497 22.2145C154.534 22.2695 154.567 22.3167 154.601 22.3633C154.765 22.5878 154.93 22.8107 155.095 23.0342L155.112 23.0574C155.475 23.5479 155.851 24.0551 156.202 24.5689C156.883 25.5629 157.251 26.469 157.358 27.4208C157.376 27.5778 157.387 27.7313 157.392 27.8816C157.62 26.4759 157.755 25.0677 157.795 23.6771C157.8 23.5071 157.792 23.4545 157.721 23.4082C157.677 23.3786 157.64 23.3346 157.618 23.2864C157.462 22.9694 157.176 22.8494 156.891 22.7667C155.939 22.4875 155.308 21.8045 154.817 21.1732C153.611 19.6254 153.347 16.447 153.374 16.3487C153.388 16.2975 153.426 16.2565 153.477 16.2393C153.527 16.2225 153.585 16.2339 153.623 16.2649C153.902 16.4834 154.182 16.6984 154.472 16.9211C155.109 17.412 155.769 17.9193 156.39 18.4475C157.016 18.9802 157.461 19.5874 157.716 20.2563C157.625 19.0518 157.466 17.8524 157.243 16.6808C157.215 16.5535 156.977 16.3622 156.589 16.2582C156.462 16.2244 156.336 16.2052 156.224 16.2024C155.253 16.1774 154.385 15.8022 153.519 15.0322C152.633 14.2442 152.009 13.1767 151.611 11.7681C151.603 11.7409 151.595 11.6619 151.592 11.6178C151.586 11.5637 151.608 11.5115 151.65 11.4785C151.688 11.447 151.74 11.4358 151.798 11.4513C151.798 11.4514 151.798 11.4515 151.799 11.4516L152.154 11.5713C152.372 11.6446 152.583 11.716 152.795 11.7846L153.022 11.8578C153.698 12.0762 154.398 12.3019 155.047 12.6537C155.787 13.0568 156.29 13.5057 156.619 14.06C156.328 13.0377 155.988 12.048 155.603 11.1034C155.593 11.0783 155.525 11.0259 155.464 10.9985C155.435 10.9827 155.327 10.928 155.175 10.8872C154.974 10.8332 154.786 10.8271 154.614 10.8696C153.539 11.0815 152.462 10.8301 151.41 10.12C150.547 9.53918 149.904 8.71786 149.445 7.60957C149.43 7.5738 149.418 7.53594 149.408 7.49686C149.397 7.45186 149.407 7.4083 149.436 7.37395C149.522 7.27356 149.773 7.28285 149.877 7.29155C150.133 7.31414 150.423 7.33945 150.707 7.37563C150.838 7.39167 150.968 7.40697 151.1 7.42203L151.116 7.42385C151.561 7.47508 152.021 7.52797 152.472 7.62477C153.297 7.80106 153.975 8.1614 154.467 8.68891C154.184 8.15752 153.885 7.64557 153.574 7.15636C153.476 7.00196 153.361 6.84202 153.2 6.63702C153.188 6.62088 153.152 6.59626 153.104 6.58042C151.694 6.14259 150.677 5.19322 149.996 3.67849C149.625 2.85381 149.43 1.88686 149.4 0.722229L149.399 0.682253C149.395 0.559666 149.393 0.492216 149.491 0.440087C149.567 0.399867 149.669 0.44509 149.916 0.629196C150.141 0.79341 150.369 0.955207 150.602 1.12133C151.071 1.45501 151.557 1.8001 152.017 2.16614C152.785 2.77862 153.325 3.53988 153.622 4.42843C153.849 5.10462 153.845 5.72182 153.611 6.31238C153.609 6.31928 153.611 6.33711 153.612 6.33925C154.308 7.36931 154.939 8.4876 155.547 9.78057C155.198 8.70944 155.092 7.5557 155.224 6.28646C155.356 5.00688 155.637 3.91135 156.08 2.93739C156.108 2.87648 156.14 2.81657 156.18 2.74168L156.241 2.62605C156.267 2.57663 156.318 2.54452 156.375 2.54206C156.431 2.54054 156.485 2.56985 156.514 2.61727C156.56 2.69271 156.607 2.7645 156.652 2.83433L156.683 2.88354C156.799 3.06207 156.908 3.2306 156.998 3.4125C157.879 5.18326 158.211 6.89334 158.014 8.64053C157.926 9.43043 157.705 10.0639 157.339 10.5765C157.218 10.7464 157.062 10.8855 156.908 11.0234C156.837 11.0864 156.766 11.1497 156.699 11.2161C156.65 11.2636 156.643 11.2775 156.644 11.2749C156.605 11.505 156.568 11.7633 156.528 12.0745C156.528 12.0788 156.532 12.0891 156.543 12.1179L156.552 12.1421C156.985 13.2923 157.351 14.4804 157.643 15.6871C157.628 14.8402 157.715 13.7968 158.037 12.6437C158.424 11.2606 159.074 10.1087 160.024 9.12169C160.061 9.0834 160.115 9.06637 160.18 9.07916C160.227 9.09165 160.266 9.12685 160.285 9.17427C160.296 9.20619 160.309 9.23662 160.321 9.26553C160.348 9.33017 160.373 9.39126 160.393 9.45472C160.688 10.3928 160.724 11.3499 160.723 12.079C160.72 13.416 160.593 14.4991 160.323 15.4877C160.095 16.3283 159.769 16.9341 159.297 17.3942C159.15 17.5374 158.983 17.6523 158.815 17.768C158.725 17.8294 158.633 17.8924 158.548 17.9593C158.488 18.0058 158.451 18.0594 158.44 18.0922C158.379 18.2895 158.329 18.4935 158.28 18.6906L158.247 18.8269C158.241 18.8504 158.239 18.8786 158.242 18.9012C158.384 20.005 158.467 21.1345 158.489 22.2778C158.541 21.9044 158.609 21.5477 158.694 21.2047C159.176 19.2574 160.232 17.686 161.832 16.5334L162.165 16.2936C162.204 16.2653 162.253 16.2563 162.298 16.2686L162.323 16.2775C162.374 16.3009 162.409 16.3503 162.415 16.4063C162.421 16.4737 162.428 16.5375 162.435 16.5993C162.448 16.7187 162.46 16.8318 162.466 16.9449C162.507 17.8272 162.395 18.7493 162.106 19.9343L162.1 19.9574C161.889 20.8197 161.601 22.0009 160.95 23.0305C160.308 24.0441 159.55 24.4399 159.405 24.5087L159.389 24.5166C158.991 24.7184 158.711 24.9257 158.622 25.0851C158.586 25.1494 158.549 25.2138 158.51 25.2767C158.337 25.5564 158.317 25.8617 158.295 26.1914C158.283 26.3577 158.271 26.5295 158.238 26.7C158.102 27.3822 157.974 28.0785 157.85 28.7517L157.838 28.814C157.807 28.9857 157.775 29.1575 157.743 29.3292C158.282 27.8568 159.147 26.619 160.328 25.6358C161.051 25.0344 161.846 24.5672 162.692 24.2467C162.728 24.2328 162.766 24.2218 162.816 24.2076C162.84 24.2011 162.868 24.193 162.902 24.1825C162.954 24.1677 163.011 24.1806 163.051 24.2152C163.091 24.2506 163.111 24.3057 163.102 24.3597C163.086 24.4576 163.073 24.553 163.059 24.6519C163.03 24.8545 163.003 25.0458 162.953 25.2364C162.434 27.2125 161.523 28.9501 160.244 30.4003C159.887 30.805 159.473 31.1268 159.012 31.357C158.556 31.5836 158.107 31.6688 157.639 31.6174C157.628 31.6165 157.601 31.6245 157.597 31.6264C157.559 31.6688 157.521 31.7112 157.482 31.7538C157.346 31.9039 157.205 32.0591 157.11 32.2273C157.031 32.3697 156.986 32.5366 156.939 32.7134C156.921 32.7782 156.904 32.8434 156.885 32.9068C156.432 34.4238 156.233 34.941 155.623 36.2414C155.88 35.8752 156.176 35.518 156.522 35.1908C157.923 33.8668 159.451 33.1229 161.193 32.9168C161.304 32.9031 161.413 32.9009 161.538 32.8981L161.563 32.8973C161.614 32.8961 161.668 32.8947 161.726 32.8927C161.779 32.8897 161.831 32.9154 161.862 32.9587C161.892 33.0018 161.899 33.0573 161.88 33.1079C161.84 33.2132 161.803 33.3165 161.768 33.4174C161.692 33.6388 161.619 33.8477 161.508 34.044C160.473 35.8775 159.212 37.2209 157.653 38.1513C156.987 38.549 156.354 38.7098 155.718 38.643C155.558 38.6258 155.369 38.5784 155.056 38.4733L154.966 38.4432C154.952 38.4387 154.94 38.4346 154.929 38.4316C154.904 38.4249 154.902 38.4243 154.877 38.4455L154.293 38.9192C154.286 38.9254 154.27 38.9512 154.26 38.9689L154.248 38.9884C153.401 40.3762 152.463 41.6801 151.446 42.8836C151.846 42.5578 152.264 42.2747 152.713 42.0233C154.778 40.8672 157.59 41.5711 157.903 41.6552L157.942 41.666L157.966 41.6772C158.035 41.7252 158.055 41.8189 158.01 41.8903C157.969 41.9577 157.929 42.0263 157.882 42.107C157.794 42.2584 157.702 42.4148 157.593 42.5606C157.074 43.2556 156.371 43.8694 155.379 44.493C154.698 44.9201 153.947 45.3373 153.074 45.4943C152.117 45.6671 151.324 45.5593 150.615 45.159C150.494 45.0901 150.356 45.0068 150.251 44.8889C150.175 44.8056 150.15 44.8008 150.042 44.8439C149.914 44.8948 149.783 44.9311 149.656 44.9663C149.585 44.9858 149.515 45.0055 149.448 45.0264C149.437 45.0317 149.409 45.0585 149.398 45.0683C148.414 46.0051 147.381 46.8442 146.313 47.5757C146.839 47.3722 147.354 47.2607 147.875 47.2344C149.469 47.153 150.991 47.6254 152.355 48.6245C152.559 48.7738 152.772 48.9745 152.786 48.9884C152.815 49.0208 152.829 49.0644 152.825 49.1091C152.82 49.1528 152.798 49.1928 152.764 49.2187C152.7 49.2681 152.637 49.3181 152.575 49.3679L152.561 49.3787C152.421 49.4918 152.262 49.6195 152.093 49.7254C151.335 50.2008 150.496 50.4308 149.702 50.6086C148.611 50.8507 147.56 50.857 146.577 50.6276C146.531 50.6169 146.485 50.6055 146.439 50.5933C145.544 50.3532 144.924 49.8694 144.547 49.1188C144.542 49.1123 144.521 49.097 144.508 49.0934C144.298 49.053 144.094 49.0307 143.941 49.0159C143.917 49.0138 143.885 49.0201 143.863 49.0314C142.748 49.5904 141.606 50.0374 140.449 50.3683C140.612 50.3638 140.778 50.3664 140.946 50.3777C142.066 50.4575 143.118 50.8776 144.184 51.6732C144.902 52.211 145.524 52.8848 146.085 53.7331C146.131 53.8028 146.115 53.8969 146.048 53.9472C145.699 54.2098 145.31 54.3052 144.977 54.3637C144.162 54.5074 143.287 54.5047 142.3 54.3554C142.297 54.3548 141.982 54.2991 141.55 54.1835C141.239 54.1 140.953 54.0083 140.7 53.9111C140.459 53.8184 140.223 53.7093 139.998 53.5869C138.966 53.0213 138.367 52.2662 138.169 51.2902C138.163 51.2807 138.136 51.2527 138.097 51.2312C137.911 51.1282 137.741 51.0452 137.576 50.9767C137.538 50.9594 137.485 50.9569 137.415 50.9655C136.574 51.0561 135.701 51.0856 134.823 51.0534C134.811 51.0531 134.798 51.0513 134.786 51.0481C134.731 51.0332 134.688 50.9887 134.674 50.9314C134.635 50.7627 134.577 50.5954 134.501 50.4342C134.478 50.3835 134.482 50.3255 134.513 50.2791C134.542 50.234 134.594 50.2076 134.65 50.2093Z" fill="#C5C5C5"/>
<path d="M57.5021 21V9.8L61.9981 9.8C63.1607 9.8 64.0461 10.072 64.6541 10.616C65.2727 11.1493 65.5821 11.8373 65.5821 12.68C65.5821 13.384 65.3901 13.9493 65.0061 14.376C64.6327 14.792 64.1741 15.0747 63.6301 15.224C64.2701 15.352 64.7981 15.672 65.2141 16.184C65.6301 16.6853 65.8381 17.272 65.8381 17.944C65.8381 18.8293 65.5181 19.56 64.8781 20.136C64.2381 20.712 63.3314 21 62.1581 21H57.5021ZM59.5501 14.504H61.6941C62.2701 14.504 62.7127 14.3707 63.0221 14.104C63.3314 13.8373 63.4861 13.4587 63.4861 12.968C63.4861 12.4987 63.3314 12.1307 63.0221 11.864C62.7234 11.5867 62.2701 11.448 61.6621 11.448H59.5501V14.504ZM59.5501 19.336H61.8381C62.4461 19.336 62.9154 19.1973 63.2461 18.92C63.5874 18.632 63.7581 18.232 63.7581 17.72C63.7581 17.1973 63.5821 16.7867 63.2301 16.488C62.8781 16.1893 62.4034 16.04 61.8061 16.04H59.5501V19.336ZM71.4038 21.192C70.6038 21.192 69.8945 21.0213 69.2758 20.68C68.6571 20.3387 68.1718 19.8587 67.8198 19.24C67.4678 18.6213 67.2918 17.9067 67.2918 17.096C67.2918 16.2747 67.4625 15.544 67.8038 14.904C68.1558 14.264 68.6358 13.768 69.2438 13.416C69.8625 13.0533 70.5878 12.872 71.4198 12.872C72.1985 12.872 72.8865 13.0427 73.4838 13.384C74.0811 13.7253 74.5451 14.1947 74.8758 14.792C75.2171 15.3787 75.3878 16.0347 75.3878 16.76C75.3878 16.8773 75.3825 17 75.3718 17.128C75.3718 17.256 75.3665 17.3893 75.3558 17.528H69.3238C69.3665 18.1467 69.5798 18.632 69.9638 18.984C70.3585 19.336 70.8331 19.512 71.3878 19.512C71.8038 19.512 72.1505 19.4213 72.4278 19.24C72.7158 19.048 72.9291 18.8027 73.0678 18.504H75.1478C74.9985 19.0053 74.7478 19.464 74.3958 19.88C74.0545 20.2853 73.6278 20.6053 73.1158 20.84C72.6145 21.0747 72.0438 21.192 71.4038 21.192ZM71.4198 14.536C70.9185 14.536 70.4758 14.68 70.0918 14.968C69.7078 15.2453 69.4625 15.672 69.3558 16.248H73.3078C73.2758 15.7253 73.0838 15.3093 72.7318 15C72.3798 14.6907 71.9425 14.536 71.4198 14.536ZM80.3903 21.192C79.6863 21.192 79.0676 21.08 78.5343 20.856C78.001 20.6213 77.5743 20.3013 77.2543 19.896C76.9343 19.4907 76.7423 19.0213 76.6783 18.488H78.7423C78.8063 18.7973 78.977 19.064 79.2543 19.288C79.5423 19.5013 79.9103 19.608 80.3583 19.608C80.8063 19.608 81.1316 19.5173 81.3343 19.336C81.5476 19.1547 81.6543 18.9467 81.6543 18.712C81.6543 18.3707 81.505 18.1413 81.2063 18.024C80.9076 17.896 80.4916 17.7733 79.9583 17.656C79.617 17.5813 79.2703 17.4907 78.9183 17.384C78.5663 17.2773 78.241 17.144 77.9423 16.984C77.6543 16.8133 77.4196 16.6 77.2383 16.344C77.057 16.0773 76.9663 15.752 76.9663 15.368C76.9663 14.664 77.2436 14.072 77.7983 13.592C78.3636 13.112 79.153 12.872 80.1663 12.872C81.105 12.872 81.8516 13.0907 82.4063 13.528C82.9716 13.9653 83.3076 14.568 83.4143 15.336L81.4783 15.336C81.361 14.7493 80.9183 14.456 80.1503 14.456C79.7663 14.456 79.4676 14.5307 79.2543 14.68C79.0516 14.8293 78.9503 15.016 78.9503 15.24C78.9503 15.4747 79.105 15.6613 79.4143 15.8C79.7236 15.9387 80.1343 16.0667 80.6463 16.184C81.201 16.312 81.7076 16.456 82.1663 16.616C82.6356 16.7653 83.009 16.9947 83.2863 17.304C83.5636 17.6027 83.7023 18.0347 83.7023 18.6C83.713 19.0907 83.585 19.5333 83.3183 19.928C83.0516 20.3227 82.6676 20.632 82.1663 20.856C81.665 21.08 81.073 21.192 80.3903 21.192ZM88.8026 21C87.9706 21 87.3039 20.7973 86.8026 20.392C86.3012 19.9867 86.0506 19.2667 86.0506 18.232V14.776H84.6906V13.064H86.0506L86.2906 10.936H88.0986V13.064H90.2426V14.776H88.0986V18.248C88.0986 18.632 88.1786 18.8987 88.3386 19.048C88.5092 19.1867 88.7972 19.256 89.2026 19.256H90.1946V21H88.8026ZM96.9174 11.832C96.5441 11.832 96.2348 11.72 95.9894 11.496C95.7548 11.272 95.6374 10.9893 95.6374 10.648C95.6374 10.3067 95.7548 10.0293 95.9894 9.816C96.2348 9.592 96.5441 9.48 96.9174 9.48C97.2908 9.48 97.5948 9.592 97.8294 9.816C98.0748 10.0293 98.1974 10.3067 98.1974 10.648C98.1974 10.9893 98.0748 11.272 97.8294 11.496C97.5948 11.72 97.2908 11.832 96.9174 11.832ZM95.8934 21V13.064H97.9414V21H95.8934ZM100.079 21V13.064H101.887L102.047 14.408C102.292 13.9387 102.644 13.5653 103.103 13.288C103.572 13.0107 104.122 12.872 104.751 12.872C105.732 12.872 106.495 13.1813 107.039 13.8C107.583 14.4187 107.855 15.3253 107.855 16.52V21H105.807V16.712C105.807 16.0293 105.668 15.5067 105.391 15.144C105.114 14.7813 104.682 14.6 104.095 14.6C103.519 14.6 103.044 14.8027 102.671 15.208C102.308 15.6133 102.127 16.1787 102.127 16.904V21H100.079ZM40.5626 42.192C39.4426 42.192 38.4612 41.9467 37.6186 41.456C36.7866 40.9653 36.1306 40.288 35.6506 39.424C35.1812 38.5493 34.9466 37.5413 34.9466 36.4C34.9466 35.2587 35.1812 34.256 35.6506 33.392C36.1306 32.5173 36.7866 31.8347 37.6186 31.344C38.4612 30.8533 39.4426 30.608 40.5626 30.608C41.6719 30.608 42.6479 30.8533 43.4906 31.344C44.3332 31.8347 44.9892 32.5173 45.4586 33.392C45.9279 34.256 46.1626 35.2587 46.1626 36.4C46.1626 37.5413 45.9279 38.5493 45.4586 39.424C44.9892 40.288 44.3332 40.9653 43.4906 41.456C42.6479 41.9467 41.6719 42.192 40.5626 42.192ZM40.5626 40.352C41.6292 40.352 42.4772 40 43.1066 39.296C43.7466 38.592 44.0666 37.6267 44.0666 36.4C44.0666 35.1733 43.7466 34.208 43.1066 33.504C42.4772 32.8 41.6292 32.448 40.5626 32.448C39.4959 32.448 38.6426 32.8 38.0026 33.504C37.3626 34.208 37.0426 35.1733 37.0426 36.4C37.0426 37.6267 37.3626 38.592 38.0026 39.296C38.6426 40 39.4959 40.352 40.5626 40.352ZM47.9228 45.52V34.064H49.7468L49.9708 35.2C50.2268 34.848 50.5628 34.5387 50.9788 34.272C51.4055 34.0053 51.9548 33.872 52.6268 33.872C53.3735 33.872 54.0401 34.0533 54.6268 34.416C55.2135 34.7787 55.6775 35.2747 56.0188 35.904C56.3601 36.5333 56.5308 37.248 56.5308 38.048C56.5308 38.848 56.3601 39.5627 56.0188 40.192C55.6775 40.8107 55.2135 41.3013 54.6268 41.664C54.0401 42.016 53.3735 42.192 52.6268 42.192C52.0295 42.192 51.5068 42.08 51.0588 41.856C50.6108 41.632 50.2481 41.3173 49.9708 40.912V45.52H47.9228ZM52.1948 40.4C52.8455 40.4 53.3841 40.1813 53.8108 39.744C54.2375 39.3067 54.4508 38.7413 54.4508 38.048C54.4508 37.3547 54.2375 36.784 53.8108 36.336C53.3841 35.888 52.8455 35.664 52.1948 35.664C51.5335 35.664 50.9895 35.888 50.5628 36.336C50.1468 36.7733 49.9388 37.3387 49.9388 38.032C49.9388 38.7253 50.1468 39.296 50.5628 39.744C50.9895 40.1813 51.5335 40.4 52.1948 40.4ZM62.2163 42.192C61.4163 42.192 60.707 42.0213 60.0883 41.68C59.4696 41.3387 58.9843 40.8587 58.6323 40.24C58.2803 39.6213 58.1043 38.9067 58.1043 38.096C58.1043 37.2747 58.275 36.544 58.6163 35.904C58.9683 35.264 59.4483 34.768 60.0563 34.416C60.675 34.0533 61.4003 33.872 62.2323 33.872C63.011 33.872 63.699 34.0427 64.2963 34.384C64.8936 34.7253 65.3576 35.1947 65.6883 35.792C66.0296 36.3787 66.2003 37.0347 66.2003 37.76C66.2003 37.8773 66.195 38 66.1843 38.128C66.1843 38.256 66.179 38.3893 66.1683 38.528H60.1363C60.179 39.1467 60.3923 39.632 60.7763 39.984C61.171 40.336 61.6456 40.512 62.2003 40.512C62.6163 40.512 62.963 40.4213 63.2403 40.24C63.5283 40.048 63.7416 39.8027 63.8803 39.504H65.9603C65.811 40.0053 65.5603 40.464 65.2083 40.88C64.867 41.2853 64.4403 41.6053 63.9283 41.84C63.427 42.0747 62.8563 42.192 62.2163 42.192ZM62.2323 35.536C61.731 35.536 61.2883 35.68 60.9043 35.968C60.5203 36.2453 60.275 36.672 60.1683 37.248H64.1203C64.0883 36.7253 63.8963 36.3093 63.5443 36C63.1923 35.6907 62.755 35.536 62.2323 35.536ZM67.9228 42V34.064H69.7308L69.8908 35.408C70.1361 34.9387 70.4881 34.5653 70.9468 34.288C71.4161 34.0107 71.9655 33.872 72.5948 33.872C73.5761 33.872 74.3388 34.1813 74.8828 34.8C75.4268 35.4187 75.6988 36.3253 75.6988 37.52V42H73.6508V37.712C73.6508 37.0293 73.5121 36.5067 73.2348 36.144C72.9575 35.7813 72.5255 35.6 71.9388 35.6C71.3628 35.6 70.8881 35.8027 70.5148 36.208C70.1521 36.6133 69.9708 37.1787 69.9708 37.904V42H67.9228ZM85.3417 42.192C84.5204 42.192 83.795 42.0533 83.1657 41.776C82.5364 41.488 82.0404 41.0827 81.6777 40.56C81.315 40.0267 81.1284 39.3813 81.1177 38.624H83.2777C83.299 39.1467 83.4857 39.5893 83.8377 39.952C84.2004 40.304 84.6964 40.48 85.3257 40.48C85.8697 40.48 86.3017 40.352 86.6217 40.096C86.9417 39.8293 87.1017 39.4773 87.1017 39.04C87.1017 38.5813 86.9577 38.224 86.6697 37.968C86.3924 37.712 86.019 37.504 85.5497 37.344C85.0804 37.184 84.579 37.0133 84.0457 36.832C83.1817 36.5333 82.5204 36.1493 82.0617 35.68C81.6137 35.2107 81.3897 34.5867 81.3897 33.808C81.379 33.1467 81.5337 32.5813 81.8537 32.112C82.1844 31.632 82.6324 31.264 83.1977 31.008C83.763 30.7413 84.4137 30.608 85.1497 30.608C85.8964 30.608 86.5524 30.7413 87.1177 31.008C87.6937 31.2747 88.1417 31.648 88.4617 32.128C88.7924 32.608 88.9684 33.1787 88.9897 33.84H86.7977C86.787 33.4453 86.6324 33.0987 86.3337 32.8C86.0457 32.4907 85.6404 32.336 85.1177 32.336C84.6697 32.3253 84.291 32.4373 83.9817 32.672C83.683 32.896 83.5337 33.2267 83.5337 33.664C83.5337 34.0373 83.651 34.336 83.8857 34.56C84.1204 34.7733 84.4404 34.9547 84.8457 35.104C85.251 35.2533 85.715 35.4133 86.2377 35.584C86.7924 35.776 87.299 36 87.7577 36.256C88.2164 36.512 88.5844 36.8533 88.8617 37.28C89.139 37.696 89.2777 38.2347 89.2777 38.896C89.2777 39.4827 89.1284 40.0267 88.8297 40.528C88.531 41.0293 88.0884 41.4347 87.5017 41.744C86.915 42.0427 86.195 42.192 85.3417 42.192ZM94.8246 42.192C94.0566 42.192 93.3632 42.016 92.7446 41.664C92.1366 41.312 91.6512 40.8267 91.2886 40.208C90.9366 39.5787 90.7606 38.8533 90.7606 38.032C90.7606 37.2107 90.9419 36.4907 91.3046 35.872C91.6672 35.2427 92.1526 34.752 92.7606 34.4C93.3792 34.048 94.0726 33.872 94.8406 33.872C95.5979 33.872 96.2806 34.048 96.8886 34.4C97.5072 34.752 97.9926 35.2427 98.3446 35.872C98.7072 36.4907 98.8886 37.2107 98.8886 38.032C98.8886 38.8533 98.7072 39.5787 98.3446 40.208C97.9926 40.8267 97.5072 41.312 96.8886 41.664C96.2699 42.016 95.5819 42.192 94.8246 42.192ZM94.8246 40.416C95.3579 40.416 95.8219 40.2187 96.2166 39.824C96.6112 39.4187 96.8086 38.8213 96.8086 38.032C96.8086 37.2427 96.6112 36.6507 96.2166 36.256C95.8219 35.8507 95.3632 35.648 94.8406 35.648C94.2966 35.648 93.8272 35.8507 93.4326 36.256C93.0486 36.6507 92.8566 37.2427 92.8566 38.032C92.8566 38.8213 93.0486 39.4187 93.4326 39.824C93.8272 40.2187 94.2912 40.416 94.8246 40.416ZM103.696 42.192C102.704 42.192 101.936 41.8827 101.392 41.264C100.858 40.6453 100.592 39.7387 100.592 38.544V34.064H102.624V38.352C102.624 39.0347 102.762 39.5573 103.04 39.92C103.317 40.2827 103.754 40.464 104.352 40.464C104.917 40.464 105.381 40.2613 105.744 39.856C106.117 39.4507 106.304 38.8853 106.304 38.16V34.064H108.352V42H106.544L106.384 40.656C106.138 41.1253 105.781 41.4987 105.312 41.776C104.853 42.0533 104.314 42.192 103.696 42.192ZM110.454 42V34.064H112.278L112.47 35.552C112.758 35.04 113.147 34.6347 113.638 34.336C114.139 34.0267 114.726 33.872 115.398 33.872V36.032H114.822C114.374 36.032 113.974 36.1013 113.622 36.24C113.27 36.3787 112.993 36.6187 112.79 36.96C112.598 37.3013 112.502 37.776 112.502 38.384V42H110.454ZM120.545 42.192C119.735 42.192 119.02 42.016 118.401 41.664C117.783 41.312 117.292 40.8213 116.929 40.192C116.577 39.5627 116.401 38.8427 116.401 38.032C116.401 37.2213 116.577 36.5013 116.929 35.872C117.292 35.2427 117.783 34.752 118.401 34.4C119.02 34.048 119.735 33.872 120.545 33.872C121.559 33.872 122.412 34.1387 123.105 34.672C123.799 35.1947 124.241 35.92 124.433 36.848H122.273C122.167 36.464 121.953 36.1653 121.633 35.952C121.324 35.728 120.956 35.616 120.529 35.616C119.964 35.616 119.484 35.8293 119.089 36.256C118.695 36.6827 118.497 37.2747 118.497 38.032C118.497 38.7893 118.695 39.3813 119.089 39.808C119.484 40.2347 119.964 40.448 120.529 40.448C120.956 40.448 121.324 40.3413 121.633 40.128C121.953 39.9147 122.167 39.6107 122.273 39.216H124.433C124.241 40.112 123.799 40.832 123.105 41.376C122.412 41.92 121.559 42.192 120.545 42.192ZM130.107 42.192C129.307 42.192 128.598 42.0213 127.979 41.68C127.36 41.3387 126.875 40.8587 126.523 40.24C126.171 39.6213 125.995 38.9067 125.995 38.096C125.995 37.2747 126.166 36.544 126.507 35.904C126.859 35.264 127.339 34.768 127.947 34.416C128.566 34.0533 129.291 33.872 130.123 33.872C130.902 33.872 131.59 34.0427 132.187 34.384C132.784 34.7253 133.248 35.1947 133.579 35.792C133.92 36.3787 134.091 37.0347 134.091 37.76C134.091 37.8773 134.086 38 134.075 38.128C134.075 38.256 134.07 38.3893 134.059 38.528H128.027C128.07 39.1467 128.283 39.632 128.667 39.984C129.062 40.336 129.536 40.512 130.091 40.512C130.507 40.512 130.854 40.4213 131.131 40.24C131.419 40.048 131.632 39.8027 131.771 39.504H133.851C133.702 40.0053 133.451 40.464 133.099 40.88C132.758 41.2853 132.331 41.6053 131.819 41.84C131.318 42.0747 130.747 42.192 130.107 42.192ZM130.123 35.536C129.622 35.536 129.179 35.68 128.795 35.968C128.411 36.2453 128.166 36.672 128.059 37.248H132.011C131.979 36.7253 131.787 36.3093 131.435 36C131.083 35.6907 130.646 35.536 130.123 35.536Z" fill="#C5C5C5"/>
</svg>
