<svg width="128" height="58" viewBox="0 0 128 58" fill="none" xmlns="http://www.w3.org/2000/svg">
<path d="M36.4864 21.192C35.7504 21.192 35.0837 21.064 34.4864 20.808C33.889 20.5413 33.409 20.136 33.0464 19.592C32.6837 19.048 32.4917 18.3653 32.4704 17.544H34.4864C34.497 18.088 34.673 18.5467 35.0144 18.92C35.3664 19.2827 35.857 19.464 36.4864 19.464C37.0837 19.464 37.5424 19.2987 37.8624 18.968C38.1824 18.6373 38.3424 18.2213 38.3424 17.72C38.3424 17.1333 38.129 16.6907 37.7024 16.392C37.2864 16.0827 36.7477 15.928 36.0864 15.928H35.2544V14.248H36.1024C36.6464 14.248 37.0997 14.12 37.4624 13.864C37.825 13.608 38.0064 13.2293 38.0064 12.728C38.0064 12.312 37.8677 11.9813 37.5904 11.736C37.3237 11.48 36.9504 11.352 36.4704 11.352C35.9477 11.352 35.537 11.5067 35.2384 11.816C34.9504 12.1253 34.7904 12.504 34.7584 12.952H32.7584C32.801 11.9173 33.1584 11.1013 33.8304 10.504C34.513 9.90667 35.393 9.608 36.4704 9.608C37.2384 9.608 37.8837 9.74667 38.4064 10.024C38.9397 10.2907 39.3397 10.648 39.6064 11.096C39.8837 11.544 40.0224 12.04 40.0224 12.584C40.0224 13.2133 39.8464 13.7467 39.4944 14.184C39.153 14.6107 38.7264 14.8987 38.2144 15.048C38.8437 15.176 39.3557 15.4853 39.7504 15.976C40.145 16.456 40.3424 17.064 40.3424 17.8C40.3424 18.4187 40.193 18.984 39.8944 19.496C39.5957 20.008 39.1584 20.4187 38.5824 20.728C38.017 21.0373 37.3184 21.192 36.4864 21.192ZM42.3056 21V13.064H44.1296L44.3216 14.552C44.6096 14.04 44.999 13.6347 45.4896 13.336C45.991 13.0267 46.5776 12.872 47.2496 12.872V15.032H46.6736C46.2256 15.032 45.8256 15.1013 45.4736 15.24C45.1216 15.3787 44.8443 15.6187 44.6416 15.96C44.4496 16.3013 44.3536 16.776 44.3536 17.384V21H42.3056ZM52.1568 21.192C51.4101 21.192 50.7434 21.0107 50.1568 20.648C49.5701 20.2853 49.1061 19.7893 48.7648 19.16C48.4234 18.5307 48.2528 17.816 48.2528 17.016C48.2528 16.216 48.4234 15.5067 48.7648 14.888C49.1061 14.2587 49.5701 13.768 50.1568 13.416C50.7434 13.0533 51.4101 12.872 52.1568 12.872C52.7541 12.872 53.2768 12.984 53.7248 13.208C54.1728 13.432 54.5354 13.7467 54.8128 14.152V9.48H56.8608V21H55.0368L54.8128 19.864C54.5568 20.216 54.2154 20.5253 53.7888 20.792C53.3728 21.0587 52.8288 21.192 52.1568 21.192ZM52.5888 19.4C53.2501 19.4 53.7888 19.1813 54.2048 18.744C54.6314 18.296 54.8448 17.7253 54.8448 17.032C54.8448 16.3387 54.6314 15.7733 54.2048 15.336C53.7888 14.888 53.2501 14.664 52.5888 14.664C51.9381 14.664 51.3994 14.8827 50.9728 15.32C50.5461 15.7573 50.3328 16.3227 50.3328 17.016C50.3328 17.7093 50.5461 18.28 50.9728 18.728C51.3994 19.176 51.9381 19.4 52.5888 19.4ZM62.8068 21V9.8H67.3028C68.4654 9.8 69.3508 10.072 69.9588 10.616C70.5774 11.1493 70.8868 11.8373 70.8868 12.68C70.8868 13.384 70.6948 13.9493 70.3108 14.376C69.9374 14.792 69.4788 15.0747 68.9348 15.224C69.5748 15.352 70.1028 15.672 70.5188 16.184C70.9348 16.6853 71.1428 17.272 71.1428 17.944C71.1428 18.8293 70.8228 19.56 70.1828 20.136C69.5428 20.712 68.6361 21 67.4628 21H62.8068ZM64.8548 14.504H66.9988C67.5748 14.504 68.0174 14.3707 68.3268 14.104C68.6361 13.8373 68.7908 13.4587 68.7908 12.968C68.7908 12.4987 68.6361 12.1307 68.3268 11.864C68.0281 11.5867 67.5748 11.448 66.9668 11.448H64.8548V14.504ZM64.8548 19.336H67.1428C67.7508 19.336 68.2201 19.1973 68.5508 18.92C68.8921 18.632 69.0628 18.232 69.0628 17.72C69.0628 17.1973 68.8868 16.7867 68.5348 16.488C68.1828 16.1893 67.7081 16.04 67.1108 16.04H64.8548V19.336ZM76.7085 21.192C75.9085 21.192 75.1992 21.0213 74.5805 20.68C73.9618 20.3387 73.4765 19.8587 73.1245 19.24C72.7725 18.6213 72.5965 17.9067 72.5965 17.096C72.5965 16.2747 72.7672 15.544 73.1085 14.904C73.4605 14.264 73.9405 13.768 74.5485 13.416C75.1672 13.0533 75.8925 12.872 76.7245 12.872C77.5032 12.872 78.1912 13.0427 78.7885 13.384C79.3858 13.7253 79.8498 14.1947 80.1805 14.792C80.5218 15.3787 80.6925 16.0347 80.6925 16.76C80.6925 16.8773 80.6872 17 80.6765 17.128C80.6765 17.256 80.6712 17.3893 80.6605 17.528H74.6285C74.6712 18.1467 74.8845 18.632 75.2685 18.984C75.6632 19.336 76.1378 19.512 76.6925 19.512C77.1085 19.512 77.4552 19.4213 77.7325 19.24C78.0205 19.048 78.2338 18.8027 78.3725 18.504H80.4525C80.3032 19.0053 80.0525 19.464 79.7005 19.88C79.3592 20.2853 78.9325 20.6053 78.4205 20.84C77.9192 21.0747 77.3485 21.192 76.7085 21.192ZM76.7245 14.536C76.2232 14.536 75.7805 14.68 75.3965 14.968C75.0125 15.2453 74.7672 15.672 74.6605 16.248H78.6125C78.5805 15.7253 78.3885 15.3093 78.0365 15C77.6845 14.6907 77.2472 14.536 76.7245 14.536ZM85.695 21.192C84.991 21.192 84.3723 21.08 83.839 20.856C83.3057 20.6213 82.879 20.3013 82.559 19.896C82.239 19.4907 82.047 19.0213 81.983 18.488H84.047C84.111 18.7973 84.2817 19.064 84.559 19.288C84.847 19.5013 85.215 19.608 85.663 19.608C86.111 19.608 86.4363 19.5173 86.639 19.336C86.8523 19.1547 86.959 18.9467 86.959 18.712C86.959 18.3707 86.8097 18.1413 86.511 18.024C86.2123 17.896 85.7963 17.7733 85.263 17.656C84.9217 17.5813 84.575 17.4907 84.223 17.384C83.871 17.2773 83.5457 17.144 83.247 16.984C82.959 16.8133 82.7243 16.6 82.543 16.344C82.3617 16.0773 82.271 15.752 82.271 15.368C82.271 14.664 82.5483 14.072 83.103 13.592C83.6683 13.112 84.4577 12.872 85.471 12.872C86.4097 12.872 87.1563 13.0907 87.711 13.528C88.2763 13.9653 88.6123 14.568 88.719 15.336H86.783C86.6657 14.7493 86.223 14.456 85.455 14.456C85.071 14.456 84.7723 14.5307 84.559 14.68C84.3563 14.8293 84.255 15.016 84.255 15.24C84.255 15.4747 84.4097 15.6613 84.719 15.8C85.0283 15.9387 85.439 16.0667 85.951 16.184C86.5057 16.312 87.0123 16.456 87.471 16.616C87.9403 16.7653 88.3137 16.9947 88.591 17.304C88.8683 17.6027 89.007 18.0347 89.007 18.6C89.0177 19.0907 88.8897 19.5333 88.623 19.928C88.3563 20.3227 87.9723 20.632 87.471 20.856C86.9697 21.08 86.3777 21.192 85.695 21.192ZM94.1073 21C93.2753 21 92.6086 20.7973 92.1073 20.392C91.6059 19.9867 91.3553 19.2667 91.3553 18.232V14.776H89.9953V13.064H91.3553L91.5953 10.936L93.4033 10.936V13.064H95.5473V14.776H93.4033V18.248C93.4033 18.632 93.4833 18.8987 93.6432 19.048C93.8139 19.1867 94.1019 19.256 94.5073 19.256H95.4993V21H94.1073ZM43.0704 42.192C41.9504 42.192 40.969 41.9467 40.1264 41.456C39.2944 40.9653 38.6384 40.288 38.1584 39.424C37.689 38.5493 37.4544 37.5413 37.4544 36.4C37.4544 35.2587 37.689 34.256 38.1584 33.392C38.6384 32.5173 39.2944 31.8347 40.1264 31.344C40.969 30.8533 41.9504 30.608 43.0704 30.608C44.1797 30.608 45.1557 30.8533 45.9984 31.344C46.841 31.8347 47.497 32.5173 47.9664 33.392C48.4357 34.256 48.6704 35.2587 48.6704 36.4C48.6704 37.5413 48.4357 38.5493 47.9664 39.424C47.497 40.288 46.841 40.9653 45.9984 41.456C45.1557 41.9467 44.1797 42.192 43.0704 42.192ZM43.0704 40.352C44.137 40.352 44.985 40 45.6144 39.296C46.2544 38.592 46.5744 37.6267 46.5744 36.4C46.5744 35.1733 46.2544 34.208 45.6144 33.504C44.985 32.8 44.137 32.448 43.0704 32.448C42.0037 32.448 41.1504 32.8 40.5104 33.504C39.8704 34.208 39.5504 35.1733 39.5504 36.4C39.5504 37.6267 39.8704 38.592 40.5104 39.296C41.1504 40 42.0037 40.352 43.0704 40.352ZM52.5746 42L49.6626 34.064H51.8066L53.8226 40.064L55.8386 34.064H57.9826L55.0546 42H52.5746ZM62.7398 42.192C61.9398 42.192 61.2304 42.0213 60.6118 41.68C59.9931 41.3387 59.5078 40.8587 59.1558 40.24C58.8038 39.6213 58.6278 38.9067 58.6278 38.096C58.6278 37.2747 58.7984 36.544 59.1398 35.904C59.4918 35.264 59.9718 34.768 60.5798 34.416C61.1984 34.0533 61.9238 33.872 62.7558 33.872C63.5344 33.872 64.2224 34.0427 64.8198 34.384C65.4171 34.7253 65.8811 35.1947 66.2118 35.792C66.5531 36.3787 66.7238 37.0347 66.7238 37.76C66.7238 37.8773 66.7184 38 66.7078 38.128C66.7078 38.256 66.7024 38.3893 66.6918 38.528H60.6598C60.7024 39.1467 60.9158 39.632 61.2998 39.984C61.6944 40.336 62.1691 40.512 62.7238 40.512C63.1398 40.512 63.4864 40.4213 63.7638 40.24C64.0518 40.048 64.2651 39.8027 64.4038 39.504H66.4838C66.3344 40.0053 66.0838 40.464 65.7318 40.88C65.3904 41.2853 64.9638 41.6053 64.4518 41.84C63.9504 42.0747 63.3798 42.192 62.7398 42.192ZM62.7558 35.536C62.2544 35.536 61.8118 35.68 61.4278 35.968C61.0438 36.2453 60.7984 36.672 60.6918 37.248H64.6438C64.6118 36.7253 64.4198 36.3093 64.0678 36C63.7158 35.6907 63.2784 35.536 62.7558 35.536ZM68.4463 42V34.064H70.2703L70.4623 35.552C70.7503 35.04 71.1396 34.6347 71.6302 34.336C72.1316 34.0267 72.7183 33.872 73.3903 33.872V36.032H72.8143C72.3663 36.032 71.9663 36.1013 71.6143 36.24C71.2623 36.3787 70.9849 36.6187 70.7823 36.96C70.5903 37.3013 70.4943 37.776 70.4943 38.384V42L68.4463 42ZM77.526 42.192C76.8433 42.192 76.2833 42.0853 75.846 41.872C75.4087 41.648 75.0833 41.3547 74.87 40.992C74.6567 40.6293 74.55 40.2293 74.55 39.792C74.55 39.056 74.838 38.4587 75.414 38C75.99 37.5413 76.854 37.312 78.006 37.312H80.022V37.12C80.022 36.576 79.8673 36.176 79.558 35.92C79.2487 35.664 78.8647 35.536 78.406 35.536C77.99 35.536 77.6273 35.6373 77.318 35.84C77.0087 36.032 76.8167 36.32 76.742 36.704H74.742C74.7953 36.128 74.9873 35.6267 75.318 35.2C75.6593 34.7733 76.0967 34.448 76.63 34.224C77.1633 33.9893 77.7607 33.872 78.422 33.872C79.5527 33.872 80.4433 34.1547 81.094 34.72C81.7447 35.2853 82.07 36.0853 82.07 37.12V42H80.326L80.134 40.72C79.8993 41.1467 79.5687 41.4987 79.142 41.776C78.726 42.0533 78.1873 42.192 77.526 42.192ZM77.99 40.592C78.5767 40.592 79.03 40.4 79.35 40.016C79.6807 39.632 79.8887 39.1573 79.974 38.592H78.23C77.686 38.592 77.2967 38.6933 77.062 38.896C76.8273 39.088 76.71 39.328 76.71 39.616C76.71 39.9253 76.8273 40.1653 77.062 40.336C77.2967 40.5067 77.606 40.592 77.99 40.592ZM84.0244 42V30.48H86.0724V42H84.0244ZM88.165 42V30.48H90.213V42H88.165Z" fill="#C5C5C5"/>
<path d="M34.5764 50.2093C33.5002 50.2563 32.4019 50.1988 31.2183 50.0337C31.204 50.0312 31.1629 50.0039 31.1444 49.9744C30.9412 49.6402 30.8079 49.2844 30.7363 48.8867C30.2792 46.3479 28.1052 44.1263 25.5675 43.604C25.5134 43.5925 25.4582 43.5848 25.3948 43.5767L25.3358 43.5688C25.2796 43.5607 25.2207 43.5862 25.1888 43.6298C25.1539 43.6757 25.147 43.737 25.1708 43.7902L25.3341 44.1545C25.4787 44.4769 25.6202 44.7923 25.7596 45.1086L25.7957 45.1915C26.1906 46.0908 26.5989 47.0207 27.1379 47.8748C27.6241 48.6454 28.2047 49.2008 28.9011 49.5588C27.5298 49.1754 26.2012 48.629 24.94 47.929C24.9136 47.9143 24.8742 47.8671 24.8586 47.8237L24.6537 47.1663C24.6473 47.1427 24.6301 47.0801 24.6352 47.0455C24.8194 45.7595 24.5977 44.4268 23.958 42.9716C23.341 41.5681 22.3577 40.3888 21.0353 39.4665C20.8805 39.3585 20.7579 39.3156 20.671 39.3389C20.6498 39.3446 20.6318 39.354 20.6188 39.3659C20.5788 39.4013 20.5595 39.4543 20.5672 39.5074L20.6025 39.7464C20.6279 39.9241 20.6532 40.0983 20.6807 40.2724C20.7296 40.5788 20.7755 40.8856 20.8212 41.1925L20.8279 41.2368C20.9424 42.0032 21.0605 42.7957 21.2203 43.5781C21.407 44.4908 21.7041 45.5356 22.493 46.3642C22.4971 46.3684 22.501 46.3729 22.5052 46.377C21.5228 45.6512 20.5856 44.8379 19.7049 43.946C19.6269 43.8666 19.6004 43.7857 19.5783 43.6639C19.4859 43.1488 19.6095 42.6768 19.7567 42.2439C20.0408 41.4057 20.1029 40.4883 19.9581 39.2692C19.7555 37.5643 19.0747 35.9819 17.9351 34.5655C17.9037 34.5265 17.8695 34.4899 17.8329 34.4505L17.7494 34.3604C17.7091 34.3163 17.6434 34.2978 17.5843 34.3165C17.5255 34.3356 17.4831 34.3877 17.4762 34.4486C17.4209 34.9303 17.3669 35.3945 17.3132 35.8553L17.2789 36.1498C17.1645 37.1332 17.0471 38.2769 17.1042 39.4093C17.1447 40.2083 17.3302 40.9403 17.6583 41.5965C16.7541 40.427 15.9279 39.1565 15.1941 37.8062C15.1858 37.7912 15.1734 37.7499 15.1821 37.6447C15.2249 37.1553 15.4122 36.6717 15.7095 36.2832C16.3603 35.4322 16.5903 34.4301 16.7294 33.5622C17.0147 31.787 16.7562 30.0517 15.9387 28.2566C15.9301 28.2378 15.9189 28.2199 15.9062 28.2005L15.896 28.185C15.871 28.1466 15.8308 28.1208 15.7849 28.1141C15.7402 28.108 15.6905 28.1247 15.6634 28.1485C15.6351 28.1684 15.5922 28.1986 15.5735 28.2525C15.4596 28.5383 15.3437 28.8271 15.2276 29.1158L15.2081 29.1644C14.9155 29.8933 14.6128 30.6466 14.3278 31.3926C13.997 32.255 13.8149 33.0559 13.7708 33.8412C13.7496 34.2205 13.7646 34.5761 13.8166 34.9114C13.352 33.7808 12.946 32.6082 12.6044 31.4077C12.5229 31.1211 12.498 30.8827 12.6267 30.5799C12.7624 30.2574 12.916 30.0565 13.1565 29.8866C14.1452 29.1907 14.621 28.1523 14.9249 27.3256C15.4154 25.9884 15.5292 24.5549 15.2726 22.9431C15.2468 22.7771 15.2129 22.6112 15.1769 22.4357L15.1689 22.3958C15.1512 22.3105 15.133 22.2217 15.1147 22.1273C15.1023 22.0647 15.0541 22.0158 14.9918 22.0026C14.9316 21.99 14.8657 22.0161 14.8301 22.0677L14.7299 22.2145C14.6922 22.2695 14.6599 22.3167 14.6258 22.3633C14.462 22.5878 14.2969 22.8107 14.1315 23.0342L14.1142 23.0574C13.7511 23.5479 13.3755 24.0551 13.0248 24.5689C12.3434 25.5629 11.9759 26.469 11.8684 27.4208C11.8505 27.5778 11.8392 27.7313 11.8344 27.8816C11.6068 26.4759 11.4716 25.0677 11.4314 23.6771C11.4262 23.5071 11.4347 23.4545 11.5052 23.4082C11.5495 23.3786 11.5863 23.3346 11.6089 23.2864C11.765 22.9694 12.0504 22.8494 12.3358 22.7667C13.2873 22.4875 13.9183 21.8045 14.4099 21.1732C15.6152 19.6254 15.8791 16.447 15.8527 16.3487C15.839 16.2975 15.8008 16.2565 15.7499 16.2393C15.6998 16.2225 15.6413 16.2339 15.6031 16.2649C15.3242 16.4834 15.0443 16.6984 14.7545 16.9211C14.1171 17.412 13.4581 17.9193 12.8361 18.4475C12.2104 18.9802 11.7659 19.5874 11.511 20.2563C11.602 19.0518 11.7603 17.8524 11.9835 16.6808C12.0111 16.5535 12.2499 16.3622 12.6379 16.2582C12.7641 16.2244 12.8901 16.2052 13.0026 16.2024C13.9731 16.1774 14.8415 15.8022 15.7076 15.0322C16.5936 14.2442 17.2178 13.1767 17.6157 11.7681C17.6232 11.7409 17.6312 11.6619 17.635 11.6178C17.6402 11.5637 17.6183 11.5115 17.5768 11.4785C17.5381 11.447 17.4866 11.4358 17.429 11.4513C17.4285 11.4514 17.4282 11.4515 17.4277 11.4516L17.0725 11.5713C16.8548 11.6446 16.6434 11.716 16.4313 11.7846L16.2047 11.8578C15.5283 12.0762 14.8286 12.3019 14.1792 12.6537C13.4391 13.0568 12.9367 13.5057 12.6077 14.06C12.8989 13.0377 13.2389 12.048 13.6233 11.1034C13.6338 11.0783 13.702 11.0259 13.7621 10.9985C13.7915 10.9827 13.8994 10.928 14.0513 10.8872C14.2529 10.8332 14.4404 10.8271 14.6121 10.8696C15.6876 11.0815 16.7644 10.8301 17.8163 10.12C18.6796 9.53918 19.3225 8.71786 19.782 7.60957C19.797 7.5738 19.809 7.53594 19.8187 7.49686C19.8297 7.45186 19.8196 7.4083 19.7902 7.37395C19.7047 7.27356 19.4538 7.28285 19.3495 7.29155C19.0937 7.31414 18.8039 7.33945 18.5195 7.37563C18.389 7.39167 18.2582 7.40697 18.1269 7.42203L18.1101 7.42385C17.6655 7.47508 17.2059 7.52797 16.7545 7.62477C15.9295 7.80106 15.2516 8.1614 14.7592 8.68891C15.043 8.15752 15.3412 7.64557 15.6523 7.15636C15.7507 7.00196 15.866 6.84202 16.0266 6.63702C16.039 6.62088 16.0748 6.59626 16.1225 6.58042C17.5328 6.14259 18.5495 5.19322 19.2305 3.67849C19.6016 2.85381 19.7965 1.88686 19.8265 0.722229L19.8275 0.682253C19.8312 0.559666 19.8333 0.492216 19.7354 0.440087C19.6599 0.399867 19.5579 0.44509 19.3108 0.629196C19.0856 0.79341 18.858 0.955207 18.6244 1.12133C18.1551 1.45501 17.6696 1.8001 17.2099 2.16614C16.4419 2.77862 15.9016 3.53988 15.6041 4.42843C15.3775 5.10462 15.3816 5.72182 15.6158 6.31238C15.6171 6.31928 15.6155 6.33711 15.6151 6.33925C14.9181 7.36931 14.2876 8.4876 13.6791 9.78057C14.0289 8.70944 14.1348 7.5557 14.003 6.28646C13.8701 5.00688 13.5899 3.91135 13.1465 2.93739C13.1186 2.87648 13.0869 2.81657 13.0468 2.74168L12.9861 2.62605C12.9594 2.57663 12.9084 2.54452 12.852 2.54206C12.7959 2.54054 12.7413 2.56985 12.7125 2.61727C12.6661 2.69271 12.62 2.7645 12.575 2.83433L12.5432 2.88354C12.4279 3.06207 12.3189 3.2306 12.2282 3.4125C11.3474 5.18326 11.0151 6.89334 11.2126 8.64053C11.3009 9.43043 11.5218 10.0639 11.8878 10.5765C12.009 10.7464 12.1644 10.8855 12.319 11.0234C12.3897 11.0864 12.4605 11.1497 12.5276 11.2161C12.5767 11.2636 12.5834 11.2775 12.5826 11.2749C12.6218 11.505 12.6589 11.7633 12.6989 12.0745C12.6982 12.0788 12.6949 12.0891 12.6833 12.1179L12.6741 12.1421C12.2411 13.2923 11.8757 14.4804 11.5837 15.6871C11.5988 14.8402 11.5118 13.7968 11.1892 12.6437C10.8022 11.2606 10.1525 10.1087 9.20254 9.12169C9.16519 9.0834 9.1115 9.06637 9.04611 9.07916C8.99949 9.09165 8.9608 9.12685 8.94204 9.17427C8.93007 9.20619 8.91736 9.23662 8.90525 9.26553C8.87832 9.33017 8.8533 9.39126 8.83329 9.45472C8.53884 10.3928 8.50253 11.3499 8.50358 12.079C8.50665 13.416 8.63365 14.4991 8.90325 15.4877C9.1312 16.3283 9.45723 16.9341 9.92945 17.3942C10.0763 17.5374 10.2438 17.6523 10.4121 17.768C10.5013 17.8294 10.5931 17.8924 10.6788 17.9593C10.7387 18.0058 10.776 18.0594 10.7861 18.0922C10.8479 18.2895 10.8978 18.4935 10.9461 18.6906L10.9795 18.8269C10.9852 18.8504 10.9871 18.8786 10.9846 18.9012C10.8422 20.005 10.7597 21.1345 10.7376 22.2778C10.6859 21.9044 10.6176 21.5477 10.5325 21.2047C10.0505 19.2574 8.99493 17.686 7.39461 16.5334L7.06114 16.2936C7.02243 16.2653 6.97393 16.2563 6.92809 16.2686L6.90357 16.2775C6.85229 16.3009 6.81708 16.3503 6.81204 16.4063C6.80555 16.4737 6.79859 16.5375 6.79176 16.5993C6.77866 16.7187 6.76639 16.8318 6.7607 16.9449C6.71999 17.8272 6.83112 18.7493 7.12105 19.9343L7.12674 19.9574C7.33709 20.8197 7.62517 22.0009 8.27692 23.0305C8.91849 24.0441 9.67703 24.4399 9.82197 24.5087L9.83757 24.5166C10.2361 24.7184 10.5159 24.9257 10.605 25.0851C10.6409 25.1494 10.6772 25.2138 10.7162 25.2767C10.8895 25.5564 10.9099 25.8617 10.9319 26.1914C10.9435 26.3577 10.9552 26.5295 10.9889 26.7C11.1243 27.3822 11.2526 28.0785 11.3767 28.7517L11.3883 28.814C11.4199 28.9857 11.4514 29.1575 11.4831 29.3292C10.9449 27.8568 10.0799 26.619 8.89879 25.6358C8.17568 25.0344 7.38051 24.5672 6.53482 24.2467C6.4983 24.2328 6.46084 24.2218 6.41094 24.2076C6.38681 24.2011 6.35876 24.193 6.32446 24.1825C6.27306 24.1677 6.21559 24.1806 6.17591 24.2152C6.13525 24.2506 6.11553 24.3057 6.12429 24.3597C6.14026 24.4576 6.15386 24.553 6.16776 24.6519C6.19662 24.8545 6.22383 25.0458 6.27389 25.2364C6.79211 27.2125 7.7034 28.9501 8.98271 30.4003C9.33932 30.805 9.75345 31.1268 10.2141 31.357C10.6703 31.5836 11.12 31.6688 11.5879 31.6174C11.5983 31.6165 11.6257 31.6245 11.6301 31.6264C11.6675 31.6688 11.706 31.7112 11.7445 31.7538C11.8809 31.9039 12.0219 32.0591 12.1165 32.2273C12.1959 32.3697 12.2406 32.5366 12.2879 32.7134C12.3053 32.7782 12.3228 32.8434 12.342 32.9068C12.7947 34.4238 12.994 34.941 13.6036 36.2414C13.3461 35.8752 13.0504 35.518 12.7044 35.1908C11.3038 33.8668 9.77581 33.1229 8.03319 32.9168C7.92219 32.9031 7.81391 32.9009 7.68831 32.8981L7.66322 32.8973C7.61225 32.8961 7.55821 32.8947 7.50028 32.8927C7.44767 32.8897 7.39548 32.9154 7.36486 32.9587C7.33436 33.0018 7.32718 33.0573 7.34629 33.1079C7.38696 33.2132 7.42321 33.3165 7.45816 33.4174C7.5348 33.6388 7.60711 33.8477 7.71808 34.044C8.75383 35.8775 10.015 37.2209 11.5734 38.1513C12.2397 38.549 12.8727 38.7098 13.5085 38.643C13.6688 38.6258 13.8576 38.5784 14.1707 38.4733L14.2609 38.4432C14.2746 38.4387 14.2867 38.4346 14.2978 38.4316C14.3229 38.4249 14.325 38.4243 14.3493 38.4455L14.9334 38.9192C14.9409 38.9254 14.9564 38.9512 14.9671 38.9689L14.979 38.9884C15.8253 40.3762 16.7634 41.6801 17.7801 42.8836C17.3804 42.5578 16.9621 42.2747 16.5131 42.0233C14.4485 40.8672 11.6369 41.5711 11.3231 41.6552L11.2841 41.666L11.2607 41.6772C11.1911 41.7252 11.1716 41.8189 11.2161 41.8903C11.2576 41.9577 11.2978 42.0263 11.3445 42.107C11.4331 42.2584 11.5248 42.4148 11.6336 42.5606C12.1523 43.2556 12.8557 43.8694 13.8477 44.493C14.529 44.9201 15.2798 45.3373 16.1529 45.4943C17.1093 45.6671 17.9021 45.5593 18.6121 45.159C18.7326 45.0901 18.8701 45.0068 18.9759 44.8889C19.0516 44.8056 19.077 44.8008 19.1848 44.8439C19.3125 44.8948 19.4436 44.9311 19.5708 44.9663C19.6411 44.9858 19.712 45.0055 19.7788 45.0264C19.79 45.0317 19.8181 45.0585 19.8284 45.0683C20.8127 46.0051 21.8453 46.8442 22.9135 47.5757C22.3872 47.3722 21.8729 47.2607 21.3514 47.2344C19.7573 47.153 18.2358 47.6254 16.8713 48.6245C16.6677 48.7738 16.4545 48.9745 16.4404 48.9884C16.4117 49.0208 16.3976 49.0644 16.4015 49.1091C16.4062 49.1528 16.4285 49.1928 16.4627 49.2187C16.5269 49.2681 16.5896 49.3181 16.6517 49.3679L16.6654 49.3787C16.8059 49.4918 16.965 49.6195 17.1333 49.7254C17.8912 50.2008 18.7303 50.4308 19.5243 50.6086C20.6155 50.8507 21.6667 50.857 22.6491 50.6276C22.6953 50.6169 22.7414 50.6055 22.7871 50.5933C23.683 50.3532 24.3029 49.8694 24.6796 49.1188C24.6849 49.1123 24.7059 49.097 24.7187 49.0934C24.9286 49.053 25.1324 49.0307 25.2853 49.0159C25.3095 49.0138 25.3416 49.0201 25.3636 49.0314C26.4787 49.5904 27.6207 50.0374 28.7773 50.3683C28.6142 50.3638 28.4482 50.3664 28.2806 50.3777C27.1608 50.4575 26.1087 50.8776 25.043 51.6732C24.3243 52.211 23.7025 52.8848 23.1418 53.7331C23.0955 53.8028 23.1117 53.8969 23.1787 53.9472C23.5278 54.2098 23.9162 54.3052 24.25 54.3637C25.0645 54.5074 25.9396 54.5047 26.9265 54.3554C26.9294 54.3548 27.2444 54.2991 27.6761 54.1835C27.9877 54.1 28.2739 54.0083 28.5263 53.9111C28.7676 53.8184 29.0039 53.7093 29.2287 53.5869C30.2603 53.0213 30.8597 52.2662 31.0575 51.2902C31.0632 51.2807 31.091 51.2527 31.13 51.2312C31.3159 51.1282 31.4858 51.0452 31.6502 50.9767C31.6886 50.9594 31.7416 50.9569 31.8116 50.9655C32.6529 51.0561 33.5254 51.0856 34.4033 51.0534C34.4157 51.0531 34.4281 51.0513 34.4402 51.0481C34.4958 51.0332 34.5387 50.9887 34.5523 50.9314C34.5917 50.7627 34.6501 50.5954 34.7255 50.4342C34.7491 50.3835 34.7446 50.3255 34.7138 50.2791C34.6843 50.234 34.6328 50.2076 34.5764 50.2093Z" fill="#C5C5C5"/>
<path d="M92.6502 50.2093C93.7263 50.2563 94.8246 50.1988 96.0082 50.0337C96.0226 50.0312 96.0637 50.0039 96.0822 49.9744C96.2853 49.6402 96.4187 49.2844 96.4902 48.8867C96.9474 46.3479 99.1214 44.1263 101.659 43.604C101.713 43.5925 101.768 43.5848 101.832 43.5767L101.891 43.5688C101.947 43.5607 102.006 43.5862 102.038 43.6298C102.073 43.6757 102.08 43.737 102.056 43.7902L101.892 44.1545C101.748 44.4769 101.606 44.7923 101.467 45.1086L101.431 45.1915C101.036 46.0908 100.628 47.0207 100.089 47.8748C99.6024 48.6454 99.0219 49.2008 98.3255 49.5588C99.6968 49.1754 101.025 48.629 102.287 47.929C102.313 47.9143 102.352 47.8671 102.368 47.8237L102.573 47.1663C102.579 47.1427 102.596 47.0801 102.591 47.0455C102.407 45.7595 102.629 44.4268 103.269 42.9716C103.886 41.5681 104.869 40.3888 106.191 39.4665C106.346 39.3585 106.469 39.3156 106.556 39.3389C106.577 39.3446 106.595 39.354 106.608 39.3659C106.648 39.4013 106.667 39.4543 106.659 39.5074L106.624 39.7464C106.599 39.9241 106.573 40.0983 106.546 40.2724C106.497 40.5788 106.451 40.8856 106.405 41.1925L106.399 41.2368C106.284 42.0032 106.166 42.7957 106.006 43.5781C105.82 44.4908 105.522 45.5356 104.734 46.3642C104.729 46.3684 104.726 46.3729 104.721 46.377C105.704 45.6512 106.641 44.8379 107.522 43.946C107.6 43.8666 107.626 43.7857 107.648 43.6639C107.741 43.1487 107.617 42.6768 107.47 42.2439C107.186 41.4057 107.124 40.4883 107.268 39.2692C107.471 37.5643 108.152 35.9819 109.292 34.5655C109.323 34.5265 109.357 34.4899 109.394 34.4505L109.477 34.3604C109.517 34.3163 109.583 34.2978 109.642 34.3165C109.701 34.3356 109.743 34.3877 109.75 34.4486C109.806 34.9303 109.86 35.3945 109.913 35.8553L109.948 36.1498C110.062 37.1332 110.179 38.2769 110.122 39.4093C110.082 40.2083 109.896 40.9403 109.568 41.5965C110.473 40.427 111.299 39.1565 112.032 37.8062C112.041 37.7912 112.053 37.7499 112.044 37.6447C112.002 37.1553 111.814 36.6717 111.517 36.2832C110.866 35.4322 110.636 34.4301 110.497 33.5622C110.212 31.787 110.47 30.0517 111.288 28.2566C111.296 28.2378 111.308 28.2199 111.32 28.2005L111.331 28.185C111.356 28.1466 111.396 28.1208 111.442 28.1141C111.486 28.108 111.536 28.1247 111.563 28.1485C111.591 28.1684 111.634 28.1986 111.653 28.2525C111.767 28.5383 111.883 28.8271 111.999 29.1158L112.018 29.1644C112.311 29.8933 112.614 30.6466 112.899 31.3926C113.23 32.255 113.412 33.0559 113.456 33.8412C113.477 34.2205 113.462 34.5761 113.41 34.9114C113.875 33.7808 114.281 32.6082 114.622 31.4077C114.704 31.1211 114.729 30.8827 114.6 30.5799C114.464 30.2574 114.311 30.0565 114.07 29.8866C113.081 29.1907 112.606 28.1523 112.302 27.3256C111.811 25.9884 111.697 24.5549 111.954 22.9431C111.98 22.7771 112.014 22.6112 112.05 22.4357L112.058 22.3958C112.075 22.3105 112.094 22.2217 112.112 22.1273C112.124 22.0647 112.172 22.0158 112.235 22.0026C112.295 21.99 112.361 22.0161 112.396 22.0677L112.497 22.2145C112.534 22.2695 112.567 22.3167 112.601 22.3633C112.765 22.5878 112.93 22.8107 113.095 23.0342L113.112 23.0574C113.475 23.5479 113.851 24.0551 114.202 24.5689C114.883 25.5629 115.251 26.469 115.358 27.4208C115.376 27.5778 115.387 27.7313 115.392 27.8816C115.62 26.4759 115.755 25.0677 115.795 23.6771C115.8 23.5071 115.792 23.4545 115.721 23.4082C115.677 23.3786 115.64 23.3346 115.618 23.2864C115.462 22.9694 115.176 22.8494 114.891 22.7667C113.939 22.4875 113.308 21.8045 112.817 21.1732C111.611 19.6254 111.347 16.447 111.374 16.3487C111.388 16.2975 111.426 16.2565 111.477 16.2393C111.527 16.2225 111.585 16.2339 111.623 16.2649C111.902 16.4834 112.182 16.6984 112.472 16.9211C113.109 17.412 113.769 17.9193 114.39 18.4475C115.016 18.9802 115.461 19.5874 115.716 20.2563C115.625 19.0518 115.466 17.8524 115.243 16.6808C115.215 16.5535 114.977 16.3622 114.589 16.2582C114.462 16.2244 114.336 16.2052 114.224 16.2024C113.253 16.1774 112.385 15.8022 111.519 15.0322C110.633 14.2442 110.009 13.1767 109.611 11.7681C109.603 11.7409 109.595 11.6619 109.592 11.6178C109.586 11.5637 109.608 11.5115 109.65 11.4785C109.688 11.447 109.74 11.4358 109.798 11.4513C109.798 11.4514 109.798 11.4515 109.799 11.4516L110.154 11.5713C110.372 11.6446 110.583 11.716 110.795 11.7846L111.022 11.8578C111.698 12.0762 112.398 12.3019 113.047 12.6537C113.787 13.0568 114.29 13.5057 114.619 14.06C114.328 13.0377 113.988 12.048 113.603 11.1034C113.593 11.0783 113.525 11.0259 113.464 10.9985C113.435 10.9827 113.327 10.928 113.175 10.8872C112.974 10.8332 112.786 10.8271 112.614 10.8696C111.539 11.0815 110.462 10.8301 109.41 10.12C108.547 9.53918 107.904 8.71785 107.445 7.60956C107.43 7.5738 107.418 7.53594 107.408 7.49686C107.397 7.45186 107.407 7.4083 107.436 7.37395C107.522 7.27356 107.773 7.28285 107.877 7.29155C108.133 7.31414 108.423 7.33945 108.707 7.37563C108.838 7.39167 108.968 7.40697 109.1 7.42203L109.116 7.42384C109.561 7.47508 110.021 7.52797 110.472 7.62477C111.297 7.80106 111.975 8.1614 112.467 8.68891C112.184 8.15752 111.885 7.64557 111.574 7.15636C111.476 7.00196 111.361 6.84202 111.2 6.63702C111.188 6.62088 111.152 6.59626 111.104 6.58042C109.694 6.14259 108.677 5.19322 107.996 3.67849C107.625 2.85381 107.43 1.88686 107.4 0.722228L107.399 0.682252C107.395 0.559665 107.393 0.492215 107.491 0.440086C107.567 0.399866 107.669 0.445089 107.916 0.629196C108.141 0.793409 108.369 0.955207 108.602 1.12133C109.071 1.45501 109.557 1.8001 110.017 2.16614C110.785 2.77862 111.325 3.53988 111.622 4.42843C111.849 5.10462 111.845 5.72182 111.611 6.31238C111.609 6.31928 111.611 6.33711 111.612 6.33925C112.308 7.36931 112.939 8.4876 113.547 9.78057C113.198 8.70944 113.092 7.5557 113.224 6.28646C113.356 5.00688 113.637 3.91135 114.08 2.93739C114.108 2.87647 114.14 2.81657 114.18 2.74168L114.241 2.62605C114.267 2.57663 114.318 2.54452 114.375 2.54206C114.431 2.54054 114.485 2.56985 114.514 2.61727C114.56 2.69271 114.607 2.7645 114.652 2.83433L114.683 2.88354C114.799 3.06207 114.908 3.2306 114.998 3.41249C115.879 5.18326 116.211 6.89334 116.014 8.64053C115.926 9.43043 115.705 10.0639 115.339 10.5765C115.218 10.7464 115.062 10.8855 114.908 11.0234C114.837 11.0864 114.766 11.1497 114.699 11.2161C114.65 11.2636 114.643 11.2775 114.644 11.2749C114.605 11.505 114.568 11.7633 114.528 12.0745C114.528 12.0788 114.532 12.0891 114.543 12.1179L114.552 12.1421C114.985 13.2923 115.351 14.4804 115.643 15.6871C115.628 14.8402 115.715 13.7968 116.037 12.6437C116.424 11.2606 117.074 10.1087 118.024 9.12169C118.061 9.0834 118.115 9.06637 118.18 9.07916C118.227 9.09165 118.266 9.12685 118.285 9.17427C118.296 9.20619 118.309 9.23662 118.321 9.26553C118.348 9.33017 118.373 9.39126 118.393 9.45472C118.688 10.3928 118.724 11.3499 118.723 12.079C118.72 13.416 118.593 14.4991 118.323 15.4877C118.095 16.3283 117.769 16.9341 117.297 17.3942C117.15 17.5374 116.983 17.6523 116.815 17.768C116.725 17.8294 116.633 17.8924 116.548 17.9593C116.488 18.0058 116.451 18.0594 116.44 18.0922C116.379 18.2895 116.329 18.4935 116.28 18.6906L116.247 18.8269C116.241 18.8504 116.239 18.8786 116.242 18.9012C116.384 20.005 116.467 21.1345 116.489 22.2778C116.541 21.9044 116.609 21.5477 116.694 21.2047C117.176 19.2574 118.232 17.686 119.832 16.5334L120.165 16.2936C120.204 16.2653 120.253 16.2563 120.298 16.2686L120.323 16.2775C120.374 16.3009 120.409 16.3503 120.415 16.4063C120.421 16.4737 120.428 16.5375 120.435 16.5993C120.448 16.7187 120.46 16.8318 120.466 16.9449C120.507 17.8272 120.395 18.7493 120.106 19.9343L120.1 19.9574C119.889 20.8197 119.601 22.0009 118.95 23.0305C118.308 24.0441 117.55 24.4399 117.405 24.5087L117.389 24.5166C116.991 24.7184 116.711 24.9257 116.622 25.0851C116.586 25.1494 116.549 25.2138 116.51 25.2767C116.337 25.5564 116.317 25.8617 116.295 26.1914C116.283 26.3577 116.271 26.5295 116.238 26.7C116.102 27.3822 115.974 28.0785 115.85 28.7517L115.838 28.814C115.807 28.9857 115.775 29.1575 115.743 29.3292C116.282 27.8568 117.147 26.619 118.328 25.6358C119.051 25.0344 119.846 24.5671 120.692 24.2467C120.728 24.2328 120.766 24.2218 120.816 24.2076C120.84 24.2011 120.868 24.193 120.902 24.1825C120.954 24.1677 121.011 24.1806 121.051 24.2152C121.091 24.2506 121.111 24.3057 121.102 24.3597C121.086 24.4576 121.073 24.553 121.059 24.6519C121.03 24.8545 121.003 25.0458 120.953 25.2364C120.434 27.2125 119.523 28.9501 118.244 30.4003C117.887 30.805 117.473 31.1268 117.012 31.357C116.556 31.5836 116.107 31.6688 115.639 31.6174C115.628 31.6165 115.601 31.6245 115.597 31.6264C115.559 31.6688 115.521 31.7112 115.482 31.7538C115.346 31.9039 115.205 32.0591 115.11 32.2273C115.031 32.3697 114.986 32.5366 114.939 32.7134C114.921 32.7782 114.904 32.8434 114.885 32.9068C114.432 34.4238 114.233 34.941 113.623 36.2414C113.88 35.8752 114.176 35.518 114.522 35.1908C115.923 33.8668 117.451 33.1229 119.193 32.9168C119.304 32.9031 119.413 32.9009 119.538 32.8981L119.563 32.8973C119.614 32.8961 119.668 32.8947 119.726 32.8927C119.779 32.8897 119.831 32.9154 119.862 32.9587C119.892 33.0018 119.899 33.0573 119.88 33.1079C119.84 33.2132 119.803 33.3165 119.768 33.4174C119.692 33.6388 119.619 33.8477 119.508 34.044C118.473 35.8775 117.212 37.2209 115.653 38.1513C114.987 38.549 114.354 38.7098 113.718 38.643C113.558 38.6258 113.369 38.5784 113.056 38.4733L112.966 38.4432C112.952 38.4387 112.94 38.4346 112.929 38.4316C112.904 38.4249 112.902 38.4243 112.877 38.4455L112.293 38.9192C112.286 38.9254 112.27 38.9512 112.26 38.9689L112.248 38.9884C111.401 40.3762 110.463 41.6801 109.446 42.8836C109.846 42.5578 110.264 42.2747 110.713 42.0233C112.778 40.8672 115.59 41.5711 115.903 41.6552L115.942 41.666L115.966 41.6772C116.035 41.7252 116.055 41.8189 116.01 41.8903C115.969 41.9577 115.929 42.0263 115.882 42.107C115.793 42.2584 115.702 42.4148 115.593 42.5606C115.074 43.2556 114.371 43.8694 113.379 44.493C112.698 44.9201 111.947 45.3373 111.074 45.4943C110.117 45.6671 109.324 45.5593 108.615 45.159C108.494 45.0901 108.356 45.0068 108.251 44.8889C108.175 44.8056 108.15 44.8008 108.042 44.8439C107.914 44.8948 107.783 44.9311 107.656 44.9663C107.585 44.9858 107.515 45.0055 107.448 45.0264C107.437 45.0317 107.409 45.0585 107.398 45.0683C106.414 46.0051 105.381 46.8442 104.313 47.5757C104.839 47.3722 105.354 47.2607 105.875 47.2344C107.469 47.153 108.991 47.6254 110.355 48.6245C110.559 48.7738 110.772 48.9745 110.786 48.9884C110.815 49.0208 110.829 49.0644 110.825 49.1091C110.82 49.1528 110.798 49.1928 110.764 49.2187C110.7 49.2681 110.637 49.3181 110.575 49.3679L110.561 49.3787C110.421 49.4918 110.262 49.6195 110.093 49.7254C109.335 50.2008 108.496 50.4308 107.702 50.6086C106.611 50.8507 105.56 50.857 104.577 50.6276C104.531 50.6169 104.485 50.6055 104.439 50.5933C103.544 50.3532 102.924 49.8694 102.547 49.1188C102.542 49.1123 102.521 49.097 102.508 49.0934C102.298 49.053 102.094 49.0307 101.941 49.0159C101.917 49.0138 101.885 49.0201 101.863 49.0314C100.748 49.5904 99.6058 50.0374 98.4493 50.3683C98.6123 50.3638 98.7784 50.3664 98.9459 50.3777C100.066 50.4575 101.118 50.8776 102.184 51.6732C102.902 52.211 103.524 52.8848 104.085 53.7331C104.131 53.8028 104.115 53.8969 104.048 53.9472C103.699 54.2098 103.31 54.3052 102.977 54.3637C102.162 54.5074 101.287 54.5047 100.3 54.3554C100.297 54.3548 99.9822 54.2991 99.5505 54.1835C99.2389 54.1 98.9527 54.0083 98.7003 53.9111C98.459 53.8184 98.2227 53.7093 97.9979 53.5869C96.9663 53.0213 96.3669 52.2662 96.1691 51.2902C96.1634 51.2807 96.1356 51.2527 96.0966 51.2312C95.9107 51.1282 95.7408 51.0452 95.5764 50.9767C95.5379 50.9594 95.485 50.9569 95.415 50.9655C94.5737 51.0561 93.7012 51.0856 92.8233 51.0534C92.8109 51.0531 92.7984 51.0513 92.7863 51.0481C92.7308 51.0332 92.6878 50.9887 92.6743 50.9314C92.6348 50.7627 92.5765 50.5954 92.5011 50.4342C92.4775 50.3835 92.4819 50.3255 92.5127 50.2791C92.5423 50.234 92.5938 50.2076 92.6502 50.2093Z" fill="#C5C5C5"/>
</svg>
