<svg width="231" height="138" viewBox="0 0 231 138" fill="none" xmlns="http://www.w3.org/2000/svg">
<g opacity="0.2">
<path fill-rule="evenodd" clip-rule="evenodd" d="M59.084 124.188L77.5073 112.943L85.7611 129.199C87.7552 138.081 76.829 141.34 68.0559 140.811L59.084 124.188V124.188Z" fill="white"/>
<path fill-rule="evenodd" clip-rule="evenodd" d="M54.897 135.799L45.208 153.278L54.897 171L55.1367 163.911H63.9893C67.2197 164.196 71.4057 162.036 72.9612 158.9L84.3261 137.633C80.5776 141.422 75.7573 142.399 70.2103 142.399H55.256L54.897 135.799V135.799Z" fill="white"/>
<path fill-rule="evenodd" clip-rule="evenodd" d="M33.2477 114.25L14.6836 103.252L24.5875 87.987C31.2203 81.8955 39.3129 90.0736 43.1173 98.1672L33.2477 114.25V114.25Z" fill="white"/>
<path fill-rule="evenodd" clip-rule="evenodd" d="M45.2165 112.354L64.8761 112.526L75.338 95.2681L69.1556 98.4952L64.8589 90.5871C63.5356 87.5634 59.6559 84.8713 56.2159 85.0048L32.5015 85.1757C37.5626 86.685 40.7392 90.5158 43.432 95.4719L50.6904 108.83L45.2165 112.354V112.354Z" fill="white"/>
<path fill-rule="evenodd" clip-rule="evenodd" d="M0.477411 113.34L6.22951 117.834L0.81582 128.204C-1.89113 132.988 2.75909 137.646 5.722 139.268C8.63879 140.864 13.1656 141.054 17.3954 140.996L25.0085 128.551L30.7598 131.662L20.7784 113.167L0.477089 113.34H0.477411Z" fill="white"/>
<path fill-rule="evenodd" clip-rule="evenodd" d="M1.32324 137.366L13.6728 160.182C16.155 163.351 20.8355 164.1 25.6848 163.985H38.7116V142.378L14.0114 142.205C10.1768 142.436 5.15787 141.63 1.32324 137.366V137.366Z" fill="white"/>
<path d="M43.1573 135.062V121.649L40.373 122.302V119.93L44.4647 118.114H46.3774V135.062H43.1573Z" fill="white"/>
</g>
<g opacity="0.2">
<path fill-rule="evenodd" clip-rule="evenodd" d="M145.084 17.1881L163.507 5.94287L171.761 22.1993C173.755 31.0809 162.829 34.3398 154.056 33.8105L145.084 17.1881V17.1881Z" fill="white"/>
<path fill-rule="evenodd" clip-rule="evenodd" d="M140.897 28.7993L131.208 46.2776L140.897 64.0002L141.137 56.9114H149.989C153.22 57.1963 157.406 55.0364 158.961 51.9002L170.326 30.6326C166.578 34.4219 161.757 35.3994 156.21 35.3994H141.256L140.897 28.7993V28.7993Z" fill="white"/>
<path fill-rule="evenodd" clip-rule="evenodd" d="M119.248 7.25043L100.684 -3.74826L110.588 -19.013C117.22 -25.1045 125.313 -16.9264 129.117 -8.83284L119.248 7.25043V7.25043Z" fill="white"/>
<path fill-rule="evenodd" clip-rule="evenodd" d="M131.217 5.354L150.876 5.52604L161.338 -11.7319L155.156 -8.50477L150.859 -16.4129C149.536 -19.4366 145.656 -22.1287 142.216 -21.9952L118.501 -21.8243C123.563 -20.315 126.739 -16.4842 129.432 -11.5281L136.69 1.82986L131.217 5.354V5.354Z" fill="white"/>
<path fill-rule="evenodd" clip-rule="evenodd" d="M86.4774 6.33964L92.2295 10.8336L86.8158 21.2044C84.1089 25.9876 88.7591 30.6459 91.722 32.2677C94.6388 33.8643 99.1656 34.0539 103.395 33.9958L111.009 21.5507L116.76 24.6617L106.778 6.1665L86.4771 6.33964H86.4774Z" fill="white"/>
<path fill-rule="evenodd" clip-rule="evenodd" d="M87.3232 30.3657L99.6728 53.1817C102.155 56.3508 106.836 57.1003 111.685 56.9853H124.712V35.378L100.011 35.2048C96.1768 35.4361 91.1579 34.6295 87.3232 30.3657V30.3657Z" fill="white"/>
</g>
<path opacity="0.2" d="M124.224 28V25.768C125.248 24.92 126.24 24.08 127.2 23.248C128.176 22.416 129.04 21.592 129.792 20.776C130.56 19.96 131.168 19.168 131.616 18.4C132.08 17.616 132.312 16.856 132.312 16.12C132.312 15.432 132.12 14.824 131.736 14.296C131.368 13.768 130.752 13.504 129.888 13.504C129.008 13.504 128.344 13.792 127.896 14.368C127.448 14.944 127.224 15.64 127.224 16.456H124.248C124.28 15.224 124.552 14.2 125.064 13.384C125.576 12.552 126.256 11.936 127.104 11.536C127.952 11.12 128.904 10.912 129.96 10.912C131.672 10.912 133 11.384 133.944 12.328C134.904 13.256 135.384 14.464 135.384 15.952C135.384 16.88 135.168 17.784 134.736 18.664C134.32 19.544 133.768 20.392 133.08 21.208C132.392 22.024 131.648 22.792 130.848 23.512C130.048 24.216 129.272 24.872 128.52 25.48H135.792V28H124.224Z" fill="white"/>
<g opacity="0.2">
<path fill-rule="evenodd" clip-rule="evenodd" d="M216.084 108.188L234.507 96.9429L242.761 113.199C244.755 122.081 233.829 125.34 225.056 124.811L216.084 108.188V108.188Z" fill="white"/>
<path fill-rule="evenodd" clip-rule="evenodd" d="M211.897 119.799L202.208 137.278L211.897 155L212.137 147.911H220.989C224.22 148.196 228.406 146.036 229.961 142.9L241.326 121.633C237.578 125.422 232.757 126.399 227.21 126.399H212.256L211.897 119.799V119.799Z" fill="white"/>
<path fill-rule="evenodd" clip-rule="evenodd" d="M190.248 98.2504L171.684 87.2517L181.588 71.987C188.22 65.8955 196.313 74.0736 200.117 82.1672L190.248 98.2504V98.2504Z" fill="white"/>
<path fill-rule="evenodd" clip-rule="evenodd" d="M202.217 96.354L221.876 96.526L232.338 79.2681L226.156 82.4952L221.859 74.5871C220.536 71.5634 216.656 68.8713 213.216 69.0048L189.501 69.1757C194.563 70.685 197.739 74.5158 200.432 79.4719L207.69 92.8299L202.217 96.354V96.354Z" fill="white"/>
<path fill-rule="evenodd" clip-rule="evenodd" d="M157.477 97.3396L163.23 101.834L157.816 112.204C155.109 116.988 159.759 121.646 162.722 123.268C165.639 124.864 170.166 125.054 174.395 124.996L182.009 112.551L187.76 115.662L177.778 97.1665L157.477 97.3396H157.477Z" fill="white"/>
<path fill-rule="evenodd" clip-rule="evenodd" d="M158.323 121.366L170.673 144.182C173.155 147.351 177.836 148.1 182.685 147.985H195.712V126.378L171.011 126.205C167.177 126.436 162.158 125.63 158.323 121.366V121.366Z" fill="white"/>
</g>
<path opacity="0.2" d="M200.656 120.288C199.424 120.288 198.36 120.072 197.464 119.64C196.584 119.208 195.888 118.616 195.376 117.864C194.88 117.096 194.592 116.232 194.512 115.272H197.512C197.656 115.96 198.008 116.536 198.568 117C199.128 117.448 199.824 117.672 200.656 117.672C201.552 117.672 202.28 117.344 202.84 116.688C203.416 116.032 203.704 115.216 203.704 114.24C203.704 113.232 203.416 112.432 202.84 111.84C202.28 111.248 201.568 110.952 200.704 110.952C199.984 110.952 199.36 111.128 198.832 111.48C198.304 111.832 197.928 112.272 197.704 112.8H194.752L196.192 103.2H205.504V105.888H198.496L197.728 109.776C198.08 109.392 198.56 109.08 199.168 108.84C199.776 108.584 200.456 108.456 201.208 108.456C202.408 108.456 203.408 108.728 204.208 109.272C205.008 109.8 205.616 110.504 206.032 111.384C206.448 112.248 206.656 113.192 206.656 114.216C206.656 115.384 206.4 116.424 205.888 117.336C205.392 118.248 204.688 118.968 203.776 119.496C202.88 120.024 201.84 120.288 200.656 120.288Z" fill="white"/>
</svg>
