<svg width="123" height="123" viewBox="0 0 123 123" fill="none" xmlns="http://www.w3.org/2000/svg">
<g opacity="0.2">
<path fill-rule="evenodd" clip-rule="evenodd" d="M84.8169 55.5925L110.953 39.6396L122.662 62.7015C125.491 75.3012 109.99 79.9244 97.5447 79.1736L84.8169 55.5925V55.5925Z" fill="white"/>
<path fill-rule="evenodd" clip-rule="evenodd" d="M78.8769 72.0645L65.1318 96.8596L78.8769 122.001L79.217 111.945H91.7755C96.3582 112.349 102.297 109.285 104.503 104.836L120.626 74.6652C115.308 80.0409 108.47 81.4276 100.601 81.4276H79.3862L78.8769 72.0645V72.0645Z" fill="white"/>
<path fill-rule="evenodd" clip-rule="evenodd" d="M48.1647 41.4944L21.8291 25.8913L35.8791 4.23637C45.2885 -4.40526 56.7689 7.1964 62.166 18.6782L48.1647 41.4944V41.4944Z" fill="white"/>
<path fill-rule="evenodd" clip-rule="evenodd" d="M65.1439 38.8042L93.0336 39.0483L107.875 14.5656L99.1047 19.1438L93.0092 7.925C91.1319 3.63551 85.6281 -0.183566 80.748 0.00577883L47.106 0.24829C54.2858 2.38938 58.7922 7.82395 62.6124 14.8547L72.9094 33.8048L65.1439 38.8042V38.8042Z" fill="white"/>
<path fill-rule="evenodd" clip-rule="evenodd" d="M1.67581 40.2027L9.83591 46.5779L2.15588 61.2902C-1.68428 68.0758 4.91267 74.6843 9.11594 76.985C13.2538 79.25 19.6757 79.5189 25.6762 79.4366L36.4764 61.7815L44.6353 66.1948L30.4754 39.957L1.67535 40.2027H1.67581Z" fill="white"/>
<path fill-rule="evenodd" clip-rule="evenodd" d="M2.87549 74.2866L20.395 106.654C23.9162 111.15 30.5562 112.213 37.4356 112.05H55.9158V81.3972L20.8753 81.1515C15.4354 81.4796 8.3154 80.3354 2.87549 74.2866V74.2866Z" fill="white"/>
<path d="M62.2228 71.0177V51.9897L58.2729 52.9171V49.5511L64.0775 46.9751H66.7909V71.0177H62.2228Z" fill="white"/>
</g>
</svg>
