<svg width="65" height="102" viewBox="0 0 65 102" fill="none" xmlns="http://www.w3.org/2000/svg">
<path fill-rule="evenodd" clip-rule="evenodd" d="M46 16.5C46 25.6128 40.6275 33 34 33C27.3725 33 22 25.6128 22 16.5C22 7.38717 27.3725 0 34 0C40.6275 0 46 7.38717 46 16.5" fill="#F5C043"/>
<path fill-rule="evenodd" clip-rule="evenodd" d="M35 17V102H32V17H35Z" fill="#347720"/>
<path fill-rule="evenodd" clip-rule="evenodd" d="M20.7996 40.2004C26.5429 45.944 27.707 54.0917 23.3994 58.3995C19.0919 62.7068 10.9439 61.543 5.20029 55.7997C-0.543026 50.0561 -1.70681 41.9081 2.60046 37.6006C6.90831 33.293 15.056 34.4571 20.7996 40.2004" fill="#F5C043"/>
<path fill-rule="evenodd" clip-rule="evenodd" d="M62.1103 52C66.8967 56.6022 65.6034 65.3076 59.2215 71.444C52.8399 77.5801 43.7863 78.8237 39 74.2214" fill="#F5C043"/>
<path fill-rule="evenodd" clip-rule="evenodd" d="M33 81.0762L55.0661 59L57 60.9238L34.9339 83L33 81.0762Z" fill="#347720"/>
<path fill-rule="evenodd" clip-rule="evenodd" d="M33 54.1529L48.1915 39L50 40.847L34.8085 56L33 54.1529Z" fill="#347720"/>
<path fill-rule="evenodd" clip-rule="evenodd" d="M33.1396 91L17 74.8234L18.8604 73L35 89.1766L33.1396 91Z" fill="#347720"/>
<path fill-rule="evenodd" clip-rule="evenodd" d="M33.0942 70L11 47.8647L12.9058 46L35 68.1353L33.0942 70Z" fill="#347720"/>
</svg>
