<svg width="18" height="18" viewBox="0 0 18 18" fill="none" xmlns="http://www.w3.org/2000/svg">
<g clip-path="url(#clip0_133_8123)">
<path d="M9 0C4.0305 0 0 4.02975 0 9C0 12.9765 2.5785 16.35 6.15525 17.5402C6.6045 17.6235 6.75 17.3445 6.75 17.1075V15.432C4.2465 15.9765 3.72525 14.37 3.72525 14.37C3.31575 13.3298 2.7255 13.053 2.7255 13.053C1.90875 12.4942 2.78775 12.5062 2.78775 12.5062C3.6915 12.5692 4.167 13.434 4.167 13.434C4.9695 14.8095 6.27225 14.412 6.786 14.1818C6.86625 13.6005 7.0995 13.203 7.3575 12.9788C5.35875 12.75 3.25725 11.9782 3.25725 8.5305C3.25725 7.54725 3.609 6.74475 4.18425 6.11475C4.09125 5.8875 3.783 4.97175 4.272 3.73275C4.272 3.73275 5.028 3.49125 6.74775 4.65525C7.4655 4.45575 8.235 4.356 9 4.35225C9.765 4.356 10.5352 4.45575 11.2545 4.65525C12.9727 3.49125 13.7272 3.73275 13.7272 3.73275C14.217 4.9725 13.9087 5.88825 13.8158 6.11475C14.3932 6.74475 14.742 7.548 14.742 8.5305C14.742 11.9872 12.6368 12.7485 10.6327 12.9713C10.9552 13.2502 11.25 13.7978 11.25 14.6378V17.1075C11.25 17.3468 11.394 17.628 11.8507 17.5395C15.4245 16.3477 18 12.975 18 9C18 4.02975 13.9703 0 9 0Z" fill="black"/>
</g>
<defs>
<clipPath id="clip0_133_8123">
<rect width="18" height="18" fill="white"/>
</clipPath>
</defs>
</svg>
