<svg width="432" height="138" viewBox="0 0 432 138" fill="none" xmlns="http://www.w3.org/2000/svg">
<ellipse opacity="0.5" cx="454" cy="71.5" rx="251" ry="71.5" fill="#94C653"/>
<path d="M452.5 125C452.5 133.626 446.356 142.178 434.419 150.225C422.535 158.236 405.24 165.509 383.734 171.641C340.742 183.898 281.262 191.5 215.5 191.5C149.738 191.5 90.2584 183.898 47.2663 171.641C25.76 165.509 8.46496 158.236 -3.41906 150.225C-15.3561 142.178 -21.5 133.626 -21.5 125C-21.5 116.374 -15.3561 107.822 -3.41906 99.7751C8.46496 91.7642 25.76 84.491 47.2663 78.3593C90.2584 66.1015 149.738 58.5 215.5 58.5C281.262 58.5 340.742 66.1015 383.734 78.3593C405.24 84.491 422.535 91.7642 434.419 99.7751C446.356 107.822 452.5 116.374 452.5 125Z" fill="#94C653" stroke="#CBE1F6" stroke-width="3"/>
</svg>
