<svg width="27" height="27" viewBox="0 0 27 27" fill="none" xmlns="http://www.w3.org/2000/svg">
<path d="M1.62097 7.45161C1.27419 7.45161 1 7.17742 1 6.83064V4.96774C1 2.78226 2.78226 1 4.96774 1L6.83064 1C7.17742 1 7.45161 1.27419 7.45161 1.62097C7.45161 1.96774 7.17742 2.24194 6.83064 2.24194H4.96774C3.45968 2.24194 2.24194 3.46774 2.24194 4.96774V6.83064C2.24194 7.17742 1.95968 7.45161 1.62097 7.45161Z" fill="#61AF2B"/>
<path fill-rule="evenodd" clip-rule="evenodd" d="M4.96774 1.5C3.0584 1.5 1.5 3.0584 1.5 4.96774L1.5 6.83064C1.5 6.86914 1.51424 6.89786 1.534 6.91762C1.55375 6.93737 1.58247 6.95161 1.62097 6.95161C1.68777 6.95161 1.74194 6.89706 1.74194 6.83064L1.74194 4.96774C1.74194 3.19256 3.18257 1.74194 4.96774 1.74194L6.83064 1.74194C6.86914 1.74194 6.89786 1.72769 6.91762 1.70794C6.93737 1.68819 6.95161 1.65947 6.95161 1.62097C6.95161 1.58247 6.93737 1.55375 6.91762 1.534C6.89786 1.51424 6.86914 1.5 6.83064 1.5L4.96774 1.5ZM0.5 4.96774C0.5 2.50612 2.50612 0.5 4.96774 0.5L6.83064 0.5C7.45356 0.5 7.95161 0.998051 7.95161 1.62097C7.95161 2.24388 7.45356 2.74194 6.83064 2.74194H4.96774C3.73678 2.74194 2.74194 3.74292 2.74194 4.96774V6.83064C2.74194 7.45778 2.23158 7.95161 1.62097 7.95161C0.998051 7.95161 0.5 7.45356 0.5 6.83064L0.5 4.96774Z" fill="#61AF2B"/>
<path d="M25.3795 7.45161C25.0408 7.45161 24.7585 7.17742 24.7585 6.83064V4.96774C24.7585 3.45968 23.5327 2.24194 22.0327 2.24194H20.1698C19.823 2.24194 19.5488 1.95968 19.5488 1.62097C19.5488 1.28226 19.823 1 20.1698 1L22.0327 1C24.2182 1 26.0004 2.78226 26.0004 4.96774V6.83064C26.0004 7.17742 25.7262 7.45161 25.3795 7.45161Z" fill="#61AF2B"/>
<path fill-rule="evenodd" clip-rule="evenodd" d="M20.1698 1.5C20.1034 1.5 20.0488 1.55416 20.0488 1.62097C20.0488 1.68777 20.1034 1.74194 20.1698 1.74194L22.0327 1.74194C23.8079 1.74194 25.2585 3.18257 25.2585 4.96774V6.83064C25.2585 6.89706 25.3127 6.95161 25.3795 6.95161C25.418 6.95161 25.4467 6.93737 25.4664 6.91762C25.4862 6.89786 25.5004 6.86914 25.5004 6.83064V4.96774C25.5004 3.0584 23.942 1.5 22.0327 1.5H20.1698ZM19.0488 1.62097C19.0488 1.01035 19.5427 0.5 20.1698 0.5L22.0327 0.5C24.4943 0.5 26.5004 2.50612 26.5004 4.96774V6.83064C26.5004 7.45356 26.0024 7.95161 25.3795 7.95161C24.7689 7.95161 24.2585 7.45778 24.2585 6.83064V4.96774C24.2585 3.73678 23.2575 2.74194 22.0327 2.74194H20.1698C19.5427 2.74194 19.0488 2.23158 19.0488 1.62097Z" fill="#61AF2B"/>
<path d="M1.62097 19.5484C1.27419 19.5484 1 19.8226 1 20.1694V22.0323C1 24.2177 2.78226 26 4.96774 26H6.83064C7.17742 26 7.45161 25.7258 7.45161 25.379C7.45161 25.0323 7.17742 24.7581 6.83064 24.7581H4.96774C3.45968 24.7581 2.24194 23.5323 2.24194 22.0323V20.1694C2.24194 19.8226 1.95968 19.5484 1.62097 19.5484Z" fill="#61AF2B"/>
<path fill-rule="evenodd" clip-rule="evenodd" d="M4.96774 25.5C3.0584 25.5 1.5 23.9416 1.5 22.0323L1.5 20.1694C1.5 20.1309 1.51424 20.1021 1.534 20.0824C1.55375 20.0626 1.58247 20.0484 1.62097 20.0484C1.68777 20.0484 1.74194 20.1029 1.74194 20.1694L1.74194 22.0323C1.74194 23.8074 3.18257 25.2581 4.96774 25.2581H6.83064C6.86914 25.2581 6.89786 25.2723 6.91762 25.2921C6.93737 25.3118 6.95161 25.3405 6.95161 25.379C6.95161 25.4175 6.93737 25.4463 6.91762 25.466C6.89786 25.4858 6.86914 25.5 6.83064 25.5H4.96774ZM0.5 22.0323C0.5 24.4939 2.50612 26.5 4.96774 26.5H6.83064C7.45356 26.5 7.95161 26.0019 7.95161 25.379C7.95161 24.7561 7.45356 24.2581 6.83064 24.2581H4.96774C3.73678 24.2581 2.74194 23.2571 2.74194 22.0323V20.1694C2.74194 19.5422 2.23158 19.0484 1.62097 19.0484C0.998051 19.0484 0.5 19.5464 0.5 20.1694L0.5 22.0323Z" fill="#61AF2B"/>
<path d="M25.3795 19.5484C25.0408 19.5484 24.7585 19.8226 24.7585 20.1694V22.0323C24.7585 23.5403 23.5327 24.7581 22.0327 24.7581H20.1698C19.823 24.7581 19.5488 25.0403 19.5488 25.379C19.5488 25.7177 19.823 26 20.1698 26H22.0327C24.2182 26 26.0004 24.2177 26.0004 22.0323V20.1694C26.0004 19.8226 25.7262 19.5484 25.3795 19.5484Z" fill="#61AF2B"/>
<path fill-rule="evenodd" clip-rule="evenodd" d="M20.1698 25.5C20.1034 25.5 20.0488 25.4458 20.0488 25.379C20.0488 25.3122 20.1034 25.2581 20.1698 25.2581H22.0327C23.8079 25.2581 25.2585 23.8174 25.2585 22.0323V20.1694C25.2585 20.1029 25.3127 20.0484 25.3795 20.0484C25.418 20.0484 25.4467 20.0626 25.4664 20.0824C25.4862 20.1021 25.5004 20.1309 25.5004 20.1694V22.0323C25.5004 23.9416 23.942 25.5 22.0327 25.5H20.1698ZM19.0488 25.379C19.0488 25.9896 19.5427 26.5 20.1698 26.5H22.0327C24.4943 26.5 26.5004 24.4939 26.5004 22.0323V20.1694C26.5004 19.5464 26.0024 19.0484 25.3795 19.0484C24.7689 19.0484 24.2585 19.5422 24.2585 20.1694V22.0323C24.2585 23.2632 23.2575 24.2581 22.0327 24.2581H20.1698C19.5427 24.2581 19.0488 24.7684 19.0488 25.379Z" fill="#61AF2B"/>
<path fill-rule="evenodd" clip-rule="evenodd" d="M16.1153 5.63296C14.5847 4.78901 12.7117 4.78901 11.1811 5.63296C10.4444 6.03916 9.88854 6.70822 9.36769 7.48931C9.2222 7.70748 9.07191 7.94648 8.91496 8.20622L11.017 9.41983C11.1546 9.19236 11.2838 8.98714 11.4076 8.80154C11.8737 8.1025 12.1658 7.83657 12.3749 7.72126C13.1641 7.28613 14.1323 7.28613 14.9215 7.72126C15.1306 7.83657 15.4227 8.1025 15.8889 8.80154C16.2797 9.38765 16.7249 10.1694 17.316 11.2295L19.4192 10.0153C18.8457 8.98713 18.3655 8.14437 17.9287 7.48931C17.4079 6.70822 16.852 6.03916 16.1153 5.63296ZM19.1442 14.6456C19.0509 14.4403 18.9423 14.2184 18.8174 13.975L20.9235 12.759C21.0936 13.0863 21.2435 13.389 21.371 13.6696C21.7322 14.4648 21.9876 15.234 21.9535 16.0221C21.8821 17.6726 20.9587 19.1705 19.5077 20.0098C18.8167 20.4095 18.0052 20.5561 17.1148 20.6251C16.3171 20.6869 15.3229 20.6929 14.1062 20.6935V18.2986C15.335 18.2978 16.2296 18.2913 16.923 18.2376C17.7054 18.177 18.0656 18.0645 18.2701 17.9462C19.016 17.5147 19.4814 16.7513 19.5173 15.9204C19.527 15.697 19.4604 15.3417 19.1442 14.6456ZM9.49044 18.1153C9.27296 18.0644 9.12974 18.006 9.02631 17.9462C8.28039 17.5147 7.81507 16.7513 7.77912 15.9204C7.76945 15.697 7.83601 15.3417 8.15223 14.6456C8.34673 14.2175 8.60785 13.7173 8.94444 13.1L6.84058 11.8853C6.46881 12.5653 6.15948 13.1544 5.92543 13.6696C5.56419 14.4648 5.3088 15.234 5.34289 16.0221C5.4143 17.6726 6.33774 19.1705 7.78876 20.0098C8.29639 20.3034 8.86913 20.4605 9.49044 20.5505L9.49044 18.1153Z" fill="#61AF2B"/>
<path d="M19.5722 7.93145C19.958 7.70872 20.4205 8.06359 20.3052 8.49387L19.4319 11.753C19.3604 12.0197 19.0863 12.178 18.8195 12.1065L15.5605 11.2332C15.1302 11.1179 15.0541 10.54 15.4399 10.3173L19.5722 7.93145Z" fill="#61AF2B"/>
<path d="M9.46675 14.3547C9.85252 14.5774 10.315 14.2225 10.1997 13.7923L9.32644 10.5332C9.25497 10.2664 8.9808 10.1082 8.71407 10.1796L5.45499 11.0529C5.02471 11.1682 4.94862 11.7461 5.3344 11.9689L9.46675 14.3547Z" fill="#61AF2B"/>
<path d="M14.1057 16.8214C14.1057 16.3759 13.5671 16.1528 13.2521 16.4678L10.7666 18.9533C10.5714 19.1486 10.5714 19.4652 10.7666 19.6604L13.2521 22.1459C13.5671 22.4609 14.1057 22.2378 14.1057 21.7924L14.1057 16.8214Z" fill="#61AF2B"/>
</svg>
