<svg width="182" height="177" viewBox="0 0 182 177" fill="none" xmlns="http://www.w3.org/2000/svg">
<g filter="url(#filter0_d_231_8754)">
<rect x="29" y="100" width="53" height="53" rx="10" fill="#74AD42"/>
</g>
<path d="M36.6809 117.482C36.1425 117.482 35.7168 117.056 35.7168 116.518V113.625C35.7168 110.232 38.484 107.465 41.8773 107.465H44.7697C45.3081 107.465 45.7338 107.891 45.7338 108.429C45.7338 108.967 45.3081 109.393 44.7697 109.393H41.8773C39.5358 109.393 37.6451 111.296 37.6451 113.625V116.518C37.6451 117.056 37.2068 117.482 36.6809 117.482Z" fill="white" stroke="white"/>
<path d="M73.5685 117.482C73.0426 117.482 72.6043 117.056 72.6043 116.518V113.625C72.6043 111.284 70.7011 109.393 68.3722 109.393H65.4798C64.9413 109.393 64.5156 108.955 64.5156 108.429C64.5156 107.903 64.9413 107.465 65.4798 107.465H68.3722C71.7654 107.465 74.5326 110.232 74.5326 113.625V116.518C74.5326 117.056 74.1069 117.482 73.5685 117.482Z" fill="white" stroke="white"/>
<path d="M36.6809 136.264C36.1425 136.264 35.7168 136.69 35.7168 137.228V140.121C35.7168 143.514 38.484 146.281 41.8773 146.281H44.7697C45.3081 146.281 45.7338 145.856 45.7338 145.317C45.7338 144.779 45.3081 144.353 44.7697 144.353H41.8773C39.5358 144.353 37.6451 142.45 37.6451 140.121V137.228C37.6451 136.69 37.2068 136.264 36.6809 136.264Z" fill="white" stroke="white"/>
<path d="M73.5685 136.264C73.0426 136.264 72.6043 136.69 72.6043 137.228V140.121C72.6043 142.462 70.7011 144.353 68.3722 144.353H65.4798C64.9413 144.353 64.5156 144.791 64.5156 145.317C64.5156 145.843 64.9413 146.281 65.4798 146.281H68.3722C71.7654 146.281 74.5326 143.514 74.5326 140.121V137.228C74.5326 136.69 74.1069 136.264 73.5685 136.264Z" fill="white" stroke="white"/>
<path fill-rule="evenodd" clip-rule="evenodd" d="M59.1796 114.659C56.8032 113.348 53.895 113.348 51.5186 114.659C50.3748 115.289 49.5117 116.328 48.703 117.541C48.4771 117.88 48.2437 118.251 48 118.654L51.2637 120.538C51.4773 120.185 51.678 119.866 51.8702 119.578C52.5939 118.493 53.0475 118.08 53.3721 117.901C54.5974 117.225 56.1007 117.225 57.326 117.901C57.6507 118.08 58.1042 118.493 58.828 119.578C59.4349 120.488 60.1262 121.702 61.044 123.348L64.3095 121.463C63.419 119.867 62.6734 118.558 61.9952 117.541C61.1865 116.328 60.3234 115.289 59.1796 114.659ZM63.8823 128.652C63.7376 128.333 63.569 127.989 63.3752 127.611L66.6452 125.723C66.9092 126.231 67.1418 126.701 67.3397 127.137C67.9006 128.371 68.2971 129.566 68.2442 130.789C68.1333 133.352 66.6996 135.677 64.4467 136.981C63.3739 137.601 62.1139 137.829 60.7313 137.936C59.4933 138.032 57.9505 138.041 56.0624 138.042V134.324C57.9692 134.322 59.3574 134.312 60.4336 134.229C61.6483 134.135 62.2076 133.96 62.5252 133.776C63.6833 133.107 64.4058 131.921 64.4616 130.631C64.4766 130.284 64.3733 129.733 63.8823 128.652ZM48.8958 134.04C48.5569 133.96 48.3339 133.87 48.1729 133.776C47.0148 133.107 46.2923 131.921 46.2365 130.631C46.2215 130.284 46.3248 129.733 46.8158 128.652C47.1178 127.987 47.5232 127.211 48.0458 126.252L44.7792 124.366C44.202 125.422 43.7218 126.337 43.3584 127.137C42.7975 128.371 42.401 129.566 42.454 130.789C42.5648 133.352 43.9986 135.677 46.2515 136.981C47.0403 137.437 47.9303 137.681 48.8958 137.82L48.8958 134.04Z" fill="white"/>
<path d="M65.1322 117.893C65.5179 117.67 65.9804 118.025 65.8651 118.455L64.2651 124.426C64.1936 124.693 63.9194 124.851 63.6527 124.78L57.6813 123.18C57.251 123.065 57.1749 122.487 57.5607 122.264L65.1322 117.893Z" fill="white"/>
<path d="M49.4388 128.533C49.8246 128.756 50.2871 128.401 50.1718 127.971L48.5717 121.999C48.5003 121.733 48.2261 121.574 47.9594 121.646L41.9879 123.246C41.5577 123.361 41.4816 123.939 41.8673 124.162L49.4388 128.533Z" fill="white"/>
<path d="M56.0614 131.362C56.0614 130.917 55.5228 130.694 55.2078 131.009L50.6817 135.535C50.4864 135.73 50.4864 136.047 50.6817 136.242L55.2078 140.768C55.5228 141.083 56.0614 140.86 56.0614 140.415L56.0614 131.362Z" fill="white"/>
<defs>
<filter id="filter0_d_231_8754" x="-71" y="0" width="253" height="253" filterUnits="userSpaceOnUse" color-interpolation-filters="sRGB">
<feFlood flood-opacity="0" result="BackgroundImageFix"/>
<feColorMatrix in="SourceAlpha" type="matrix" values="0 0 0 0 0 0 0 0 0 0 0 0 0 0 0 0 0 0 127 0" result="hardAlpha"/>
<feOffset/>
<feGaussianBlur stdDeviation="50"/>
<feComposite in2="hardAlpha" operator="out"/>
<feColorMatrix type="matrix" values="0 0 0 0 0.121569 0 0 0 0 0.121569 0 0 0 0 0.121569 0 0 0 0.15 0"/>
<feBlend mode="normal" in2="BackgroundImageFix" result="effect1_dropShadow_231_8754"/>
<feBlend mode="normal" in="SourceGraphic" in2="effect1_dropShadow_231_8754" result="shape"/>
</filter>
</defs>
</svg>
