<svg width="76" height="76" viewBox="0 0 76 76" fill="none" xmlns="http://www.w3.org/2000/svg">
<rect width="76" height="76" fill="#F1F1F1"/>
<path fill-rule="evenodd" clip-rule="evenodd" d="M48.8474 37.4288L61.2725 29.8447L66.8391 40.8084C68.184 46.7984 60.8151 48.9963 54.8983 48.6393L48.8474 37.4288V37.4288Z" fill="#94C653"/>
<path fill-rule="evenodd" clip-rule="evenodd" d="M46.0237 45.2598L39.4893 57.0475L46.0237 69.0001L46.1854 64.2192H52.1558C54.3344 64.4113 57.1576 62.9547 58.2067 60.8395L65.8714 46.4962C63.3433 49.0518 60.0924 49.711 56.3514 49.711H46.2659L46.0237 45.2598V45.2598Z" fill="#94C653"/>
<path fill-rule="evenodd" clip-rule="evenodd" d="M31.4229 30.7266L18.9028 23.3089L25.5823 13.014C30.0556 8.90571 35.5134 14.4212 38.0792 19.8797L31.4229 30.7266V30.7266Z" fill="#94C653"/>
<path fill-rule="evenodd" clip-rule="evenodd" d="M39.495 29.4482L52.7539 29.5642L59.8096 17.925L55.6401 20.1015L52.7423 14.768C51.8498 12.7288 49.2333 10.9132 46.9133 11.0032L30.9197 11.1185C34.333 12.1364 36.4754 14.72 38.2915 18.0625L43.1867 27.0714L39.495 29.4482V29.4482Z" fill="#94C653"/>
<path fill-rule="evenodd" clip-rule="evenodd" d="M9.32173 30.1124L13.2011 33.1432L9.54996 40.1375C7.72433 43.3634 10.8606 46.5051 12.8588 47.5989C14.826 48.6757 17.879 48.8035 20.7316 48.7644L25.8661 40.371L29.7449 42.4692L23.0132 29.9956L9.32152 30.1124H9.32173Z" fill="#94C653"/>
<path fill-rule="evenodd" clip-rule="evenodd" d="M9.89233 46.3169L18.2212 61.7045C19.8952 63.8418 23.0519 64.3473 26.3224 64.2697H35.108V49.6973L18.4496 49.5805C15.8634 49.7365 12.4785 49.1925 9.89233 46.3169V46.3169Z" fill="#94C653"/>
<path d="M37.94 46.24C37.02 46.24 36.1867 46.08 35.44 45.76C34.6933 45.4267 34.0933 44.92 33.64 44.24C33.1867 43.56 32.9467 42.7067 32.92 41.68H35.44C35.4533 42.36 35.6733 42.9333 36.1 43.4C36.54 43.8533 37.1533 44.08 37.94 44.08C38.6867 44.08 39.26 43.8733 39.66 43.46C40.06 43.0467 40.26 42.5267 40.26 41.9C40.26 41.1667 39.9933 40.6133 39.46 40.24C38.94 39.8533 38.2667 39.66 37.44 39.66H36.4V37.56H37.46C38.14 37.56 38.7067 37.4 39.16 37.08C39.6133 36.76 39.84 36.2867 39.84 35.66C39.84 35.14 39.6667 34.7267 39.32 34.42C38.9867 34.1 38.52 33.94 37.92 33.94C37.2667 33.94 36.7533 34.1333 36.38 34.52C36.02 34.9067 35.82 35.38 35.78 35.94H33.28C33.3333 34.6467 33.78 33.6267 34.62 32.88C35.4733 32.1333 36.5733 31.76 37.92 31.76C38.88 31.76 39.6867 31.9333 40.34 32.28C41.0067 32.6133 41.5067 33.06 41.84 33.62C42.1867 34.18 42.36 34.8 42.36 35.48C42.36 36.2667 42.14 36.9333 41.7 37.48C41.2733 38.0133 40.74 38.3733 40.1 38.56C40.8867 38.72 41.5267 39.1067 42.02 39.72C42.5133 40.32 42.76 41.08 42.76 42C42.76 42.7733 42.5733 43.48 42.2 44.12C41.8267 44.76 41.28 45.2733 40.56 45.66C39.8533 46.0467 38.98 46.24 37.94 46.24Z" fill="black"/>
</svg>
