<svg width="76" height="76" viewBox="0 0 76 76" fill="none" xmlns="http://www.w3.org/2000/svg">
<rect width="76" height="76" fill="#F1F1F1"/>
<path fill-rule="evenodd" clip-rule="evenodd" d="M48.8474 37.4288L61.2725 29.8447L66.8391 40.8084C68.184 46.7984 60.8151 48.9963 54.8983 48.6393L48.8474 37.4288V37.4288Z" fill="#94C653"/>
<path fill-rule="evenodd" clip-rule="evenodd" d="M46.0237 45.2598L39.4893 57.0475L46.0237 69.0001L46.1854 64.2192H52.1558C54.3344 64.4113 57.1576 62.9547 58.2067 60.8395L65.8714 46.4962C63.3433 49.0518 60.0924 49.711 56.3514 49.711H46.2659L46.0237 45.2598V45.2598Z" fill="#94C653"/>
<path fill-rule="evenodd" clip-rule="evenodd" d="M31.4229 30.7266L18.9028 23.3089L25.5823 13.014C30.0556 8.90571 35.5134 14.4212 38.0792 19.8797L31.4229 30.7266V30.7266Z" fill="#94C653"/>
<path fill-rule="evenodd" clip-rule="evenodd" d="M39.495 29.4482L52.7539 29.5642L59.8096 17.925L55.6401 20.1015L52.7423 14.768C51.8498 12.7288 49.2333 10.9132 46.9133 11.0032L30.9197 11.1185C34.333 12.1364 36.4754 14.72 38.2915 18.0625L43.1867 27.0714L39.495 29.4482V29.4482Z" fill="#94C653"/>
<path fill-rule="evenodd" clip-rule="evenodd" d="M9.32173 30.1124L13.2011 33.1432L9.54996 40.1375C7.72433 43.3634 10.8606 46.5051 12.8588 47.5989C14.826 48.6757 17.879 48.8035 20.7316 48.7644L25.8661 40.371L29.7449 42.4692L23.0132 29.9956L9.32152 30.1124H9.32173Z" fill="#94C653"/>
<path fill-rule="evenodd" clip-rule="evenodd" d="M9.89233 46.3169L18.2212 61.7045C19.8952 63.8418 23.0519 64.3473 26.3224 64.2697H35.108V49.6973L18.4496 49.5805C15.8634 49.7365 12.4785 49.1925 9.89233 46.3169V46.3169Z" fill="#94C653"/>
<path d="M38.38 46.24C37.3533 46.24 36.4667 46.06 35.72 45.7C34.9867 45.34 34.4067 44.8467 33.98 44.22C33.5667 43.58 33.3267 42.86 33.26 42.06H35.76C35.88 42.6333 36.1733 43.1133 36.64 43.5C37.1067 43.8733 37.6867 44.06 38.38 44.06C39.1267 44.06 39.7333 43.7867 40.2 43.24C40.68 42.6933 40.92 42.0133 40.92 41.2C40.92 40.36 40.68 39.6933 40.2 39.2C39.7333 38.7067 39.14 38.46 38.42 38.46C37.82 38.46 37.3 38.6067 36.86 38.9C36.42 39.1933 36.1067 39.56 35.92 40H33.46L34.66 32H42.42V34.24H36.58L35.94 37.48C36.2333 37.16 36.6333 36.9 37.14 36.7C37.6467 36.4867 38.2133 36.38 38.84 36.38C39.84 36.38 40.6733 36.6067 41.34 37.06C42.0067 37.5 42.5133 38.0867 42.86 38.82C43.2067 39.54 43.38 40.3267 43.38 41.18C43.38 42.1533 43.1667 43.02 42.74 43.78C42.3267 44.54 41.74 45.14 40.98 45.58C40.2333 46.02 39.3667 46.24 38.38 46.24Z" fill="black"/>
</svg>
