<svg width="76" height="76" viewBox="0 0 76 76" fill="none" xmlns="http://www.w3.org/2000/svg">
<rect width="76" height="76" fill="#F1F1F1"/>
<path fill-rule="evenodd" clip-rule="evenodd" d="M48.8474 37.4288L61.2725 29.8447L66.8391 40.8084C68.184 46.7984 60.8151 48.9963 54.8983 48.6393L48.8474 37.4288V37.4288Z" fill="#94C653"/>
<path fill-rule="evenodd" clip-rule="evenodd" d="M46.0237 45.2598L39.4893 57.0475L46.0237 69.0001L46.1854 64.2192H52.1558C54.3344 64.4113 57.1576 62.9547 58.2067 60.8395L65.8714 46.4962C63.3433 49.0518 60.0924 49.711 56.3514 49.711H46.2659L46.0237 45.2598V45.2598Z" fill="#94C653"/>
<path fill-rule="evenodd" clip-rule="evenodd" d="M31.4229 30.7266L18.9028 23.3089L25.5823 13.014C30.0556 8.90571 35.5134 14.4212 38.0792 19.8797L31.4229 30.7266V30.7266Z" fill="#94C653"/>
<path fill-rule="evenodd" clip-rule="evenodd" d="M39.495 29.4482L52.7539 29.5642L59.8096 17.925L55.6401 20.1015L52.7423 14.768C51.8498 12.7288 49.2333 10.9132 46.9133 11.0032L30.9197 11.1185C34.333 12.1364 36.4754 14.72 38.2915 18.0625L43.1867 27.0714L39.495 29.4482V29.4482Z" fill="#94C653"/>
<path fill-rule="evenodd" clip-rule="evenodd" d="M9.32173 30.1124L13.2011 33.1432L9.54996 40.1375C7.72433 43.3634 10.8606 46.5051 12.8588 47.5989C14.826 48.6757 17.879 48.8035 20.7316 48.7644L25.8661 40.371L29.7449 42.4692L23.0132 29.9956L9.32152 30.1124H9.32173Z" fill="#94C653"/>
<path fill-rule="evenodd" clip-rule="evenodd" d="M9.89233 46.3169L18.2212 61.7045C19.8952 63.8418 23.0519 64.3473 26.3224 64.2697H35.108V49.6973L18.4496 49.5805C15.8634 49.7365 12.4785 49.1925 9.89233 46.3169V46.3169Z" fill="#94C653"/>
<path d="M38.62 46.24C37.5667 46.24 36.68 46.0467 35.96 45.66C35.24 45.2733 34.66 44.7533 34.22 44.1C33.78 43.4467 33.46 42.72 33.26 41.92C33.0733 41.12 32.98 40.3 32.98 39.46C32.98 37.9 33.2 36.5467 33.64 35.4C34.08 34.24 34.7133 33.3467 35.54 32.72C36.3667 32.08 37.3667 31.76 38.54 31.76C39.5 31.76 40.3133 31.9533 40.98 32.34C41.66 32.7133 42.1867 33.2067 42.56 33.82C42.9333 34.4333 43.1533 35.0933 43.22 35.8H40.84C40.72 35.1867 40.46 34.7133 40.06 34.38C39.66 34.0467 39.1467 33.88 38.52 33.88C37.6267 33.88 36.9067 34.2933 36.36 35.12C35.8133 35.9333 35.52 37.18 35.48 38.86C35.8 38.3133 36.28 37.86 36.92 37.5C37.56 37.14 38.2733 36.96 39.06 36.96C39.8333 36.96 40.56 37.1467 41.24 37.52C41.92 37.8933 42.4667 38.42 42.88 39.1C43.3067 39.78 43.52 40.58 43.52 41.5C43.52 42.34 43.3133 43.12 42.9 43.84C42.5 44.56 41.9267 45.14 41.18 45.58C40.4467 46.02 39.5933 46.24 38.62 46.24ZM38.48 44.04C39.2267 44.04 39.84 43.8133 40.32 43.36C40.8133 42.8933 41.06 42.3067 41.06 41.6C41.06 40.8533 40.8133 40.2533 40.32 39.8C39.8267 39.3467 39.2 39.12 38.44 39.12C37.9467 39.12 37.5 39.2333 37.1 39.46C36.7133 39.6733 36.4067 39.9667 36.18 40.34C35.9533 40.7 35.84 41.1067 35.84 41.56C35.84 42.28 36.0867 42.8733 36.58 43.34C37.0867 43.8067 37.72 44.04 38.48 44.04Z" fill="black"/>
</svg>
