<svg width="76" height="76" viewBox="0 0 76 76" fill="none" xmlns="http://www.w3.org/2000/svg">
<rect width="76" height="76" fill="#F1F1F1"/>
<path fill-rule="evenodd" clip-rule="evenodd" d="M48.8474 37.4288L61.2725 29.8447L66.8391 40.8084C68.184 46.7984 60.8151 48.9963 54.8983 48.6393L48.8474 37.4288V37.4288Z" fill="#94C653"/>
<path fill-rule="evenodd" clip-rule="evenodd" d="M46.0237 45.2598L39.4893 57.0475L46.0237 69.0001L46.1854 64.2192H52.1558C54.3344 64.4113 57.1576 62.9547 58.2067 60.8395L65.8714 46.4962C63.3433 49.0518 60.0924 49.711 56.3514 49.711H46.2659L46.0237 45.2598V45.2598Z" fill="#94C653"/>
<path fill-rule="evenodd" clip-rule="evenodd" d="M31.4229 30.7266L18.9028 23.3089L25.5823 13.014C30.0556 8.90571 35.5134 14.4212 38.0792 19.8797L31.4229 30.7266V30.7266Z" fill="#94C653"/>
<path fill-rule="evenodd" clip-rule="evenodd" d="M39.495 29.4482L52.7539 29.5642L59.8096 17.925L55.6401 20.1015L52.7423 14.768C51.8498 12.7288 49.2333 10.9132 46.9133 11.0032L30.9197 11.1185C34.333 12.1364 36.4754 14.72 38.2915 18.0625L43.1867 27.0714L39.495 29.4482V29.4482Z" fill="#94C653"/>
<path fill-rule="evenodd" clip-rule="evenodd" d="M9.32173 30.1124L13.2011 33.1432L9.54996 40.1375C7.72433 43.3634 10.8606 46.5051 12.8588 47.5989C14.826 48.6757 17.879 48.8035 20.7316 48.7644L25.8661 40.371L29.7449 42.4692L23.0132 29.9956L9.32152 30.1124H9.32173Z" fill="#94C653"/>
<path fill-rule="evenodd" clip-rule="evenodd" d="M9.89233 46.3169L18.2212 61.7045C19.8952 63.8418 23.0519 64.3473 26.3224 64.2697H35.108V49.6973L18.4496 49.5805C15.8634 49.7365 12.4785 49.1925 9.89233 46.3169V46.3169Z" fill="#94C653"/>
<path d="M34.16 46L39.44 34.18H32.54V32H42.08V33.82L36.82 46H34.16Z" fill="black"/>
</svg>
