<svg width="207" height="337" viewBox="0 0 207 337" fill="none" xmlns="http://www.w3.org/2000/svg">
<path d="M112.617 45.0365C112.623 45.2659 112.626 45.496 112.626 45.7268C112.626 45.8927 112.626 46.0545 112.623 46.2208L112.626 46.2208L112.635 51.5354L112.693 90.5887L60.0685 90.6669L60.0022 46.299L60.0658 46.2989C60.0229 45.6919 60.0006 45.0792 59.9996 44.4615C59.9908 38.5041 61.9688 33.0069 65.3096 28.595C59.2209 27.034 54.7169 21.5215 54.707 14.9543C54.6954 7.16493 61.0106 0.840746 68.8127 0.829118C76.6145 0.817489 82.9487 7.12264 82.9603 14.912C82.9622 16.1237 82.8109 17.3 82.5247 18.4225C83.7487 18.2463 85.0001 18.1543 86.2726 18.1524C100.804 18.1306 112.602 29.8747 112.624 44.3833C112.624 44.6017 112.622 44.8194 112.617 45.0365Z" fill="#19141E"/>
<path d="M86.0951 44.3857C86.5288 44.5219 86.9765 44.6384 87.4362 44.7337C87.8085 44.8129 88.1873 44.8764 88.5758 44.9239C89.1995 45.0071 89.8426 45.0462 90.4955 45.0452C94.6365 45.039 98.25 43.3703 100.185 40.8936C100.286 41.2883 100.403 41.6766 100.535 42.0575C100.606 42.2513 100.678 42.4525 100.76 42.646C101.279 43.9494 101.97 45.1574 102.803 46.235C103.964 47.7342 105.403 48.9829 107.038 49.8939C106.304 55.1351 104.504 62.1842 100.271 64.9957C97.942 66.5427 93.7067 66.733 90.0996 66.5251L89.2702 76.7582C89.2702 76.7582 83.4149 74.207 80.0619 72.3182C79.4831 71.994 78.9819 71.6875 78.5972 71.4161C78.6608 70.8135 78.8055 69.4111 78.989 67.6597V67.6527C79.3208 64.4989 79.7725 60.2104 80.069 57.3843C78.0925 54.3926 72.7102 53.7195 72.7031 49.5121C72.7031 48.2506 73.4408 46.0694 76.1655 46.0658C79.8219 46.0588 79.3031 50.4354 79.3031 50.4354C81.3744 51.2406 83.8418 48.1076 86.0951 44.3857Z" fill="#EA847A"/>
<path fill-rule="evenodd" clip-rule="evenodd" d="M100.022 51.749L102.634 58.0707L99.6035 58.0101L100.022 51.749Z" fill="black"/>
<path fill-rule="evenodd" clip-rule="evenodd" d="M97.2409 52.0227C97.1756 53.2856 96.4319 54.2695 95.5792 54.2205C94.7265 54.1715 94.088 53.108 94.153 51.8451C94.2183 50.5822 94.9619 49.598 95.8146 49.6473C96.6673 49.6963 97.3058 50.7598 97.2409 52.0227Z" fill="black"/>
<path fill-rule="evenodd" clip-rule="evenodd" d="M105.249 51.8209C105.183 53.0834 104.44 54.0676 103.587 54.0187C102.734 53.9697 102.096 52.9058 102.161 51.6433C102.226 50.3803 102.97 49.3961 103.822 49.4451C104.675 49.4941 105.314 50.5579 105.249 51.8209Z" fill="black"/>
<path d="M98.8608 61.0375C98.8608 61.0375 96.8864 61.6739 94.9082 59.4775" stroke="black" stroke-width="3"/>
<path opacity="0.401344" fill-rule="evenodd" clip-rule="evenodd" d="M90.0988 66.5241C90.0988 66.5241 85.5353 66.6587 83.5898 65.5977L89.8563 69.526L90.0988 66.5241Z" fill="black"/>
<path fill-rule="evenodd" clip-rule="evenodd" d="M102.716 306.44L103.564 299.054L96.1187 295.604L95.3469 316.756L124.412 316.705C118.484 310.567 102.716 306.44 102.716 306.44ZM59.4435 297.037L51.206 297.215L51.2893 306.617C51.2893 306.617 43.3416 307.993 40.5879 316.756H61.2509L60.3554 306.197L59.4435 297.037Z" fill="black"/>
<path fill-rule="evenodd" clip-rule="evenodd" d="M60.3362 297.558L52.3008 294.739L51.2246 306.196L60.2908 306.616L60.3362 297.558ZM103.757 300.308L95.9468 297.209L95.7068 306.146L103.69 306.439L103.757 300.308Z" fill="#EA847A"/>
<path d="M49.4358 299.091C49.8041 287.635 52.183 215.269 54.6273 172.215C56.321 142.374 68.9968 125.944 71.3756 123.105H101.578C101.633 123.487 105.698 152.218 106.442 212.337C107.11 266.177 106.422 295.606 106.335 299.067L106.335 299.069L107.3 299.067L107.306 303.702L91.6667 303.727L91.6605 299.092L92.1997 299.091L92.1997 299.091L84.2579 204.875L81.8791 176.677L63.8225 299.067L63.8224 299.068L64.6034 299.067L64.3307 303.702L48.1387 303.728L48.4113 299.093L49.4358 299.091L49.4358 299.091Z" fill="#2F2F3D"/>
<path opacity="0.398065" fill-rule="evenodd" clip-rule="evenodd" d="M81.8789 176.677L85.1284 149.093L84.2567 204.874L81.8789 176.677Z" fill="#0A0A0F"/>
<path fill-rule="evenodd" clip-rule="evenodd" d="M95.4207 77.3626C93.2974 73.7761 90.4548 71.7704 90.4548 71.7704L77.4637 71.1445C77.4637 71.1445 78.5702 73.9918 79.7416 77.653C82.0573 84.8909 87.5504 86.5175 92.3367 86.5094C96.8074 86.5023 98.3264 82.2692 95.4207 77.3626ZM127.424 98.3898C127.191 96.1107 127.1 93.3838 127.825 92.4072C129.156 90.615 135.737 85.1972 135.737 85.1972L136.088 89.7184L137.645 84.4106C137.645 84.4106 139.37 84.9211 141.04 85.7934C142.244 86.4222 143.398 87.2748 144.122 87.8103L144.122 87.8103L144.123 87.8107C144.295 87.9378 144.443 88.047 144.561 88.1311C145.446 88.759 142.874 98.4206 141.04 100.159C139.781 101.353 136.069 102.278 133.866 102.741C129.659 109.524 118.446 126.474 112.252 125.075C105.816 123.623 99.8453 101.163 99.8453 101.163L110.7 95.8835L115.426 110.427L127.424 98.3898ZM53.6639 147.611L56.3059 154.357C56.3059 154.357 56.7072 156.094 56.9315 158.146L56.9612 158.42C57.1659 160.316 57.3032 161.587 58.6029 164.527C59.5516 166.673 56.4815 166.032 55.6108 164.833C55.2896 164.391 55.0251 163.458 54.7503 162.488C54.2571 160.747 53.7303 158.887 52.7813 159.531C51.3035 160.534 50.8582 165.635 51.1888 170.452C51.2406 171.209 50.7144 171.827 50.3382 172.044C49.7279 172.397 48.8374 169.416 48.8374 169.416C48.8374 169.416 48.5171 170.464 47.5453 170.026C47.2013 169.871 46.1764 167.843 46.1764 167.843C46.1764 167.843 45.3828 166.844 44.9654 165.728C44.2286 163.757 43.6271 160.1 43.7689 159.026C44.1039 156.493 44.8577 152.219 45.8485 149.851C45.2636 143.766 43.0211 119.338 44.2582 114.697C45.6739 109.387 48.448 102.192 48.448 102.192L59.0928 108.443L54.5295 118.169L53.6639 147.611Z" fill="#EA847A"/>
<path fill-rule="evenodd" clip-rule="evenodd" d="M141.244 85.93C140.264 85.3689 139.331 84.949 138.874 85.0555C138.074 85.2418 139.538 87.3363 140.606 88.7155L140.594 88.7681C138.87 89.4605 136.611 90.4873 136.248 91.2389C135.995 91.7637 136.985 91.9352 138.212 91.9584C137.083 92.4991 136.098 93.0836 135.868 93.5583C135.575 94.1661 136.95 94.3 138.428 94.2785C137.122 94.8733 135.899 95.5494 135.64 96.0855C135.31 96.7692 137.09 96.8533 138.755 96.791L138.327 98.6584C138.196 99.231 137.674 99.6285 137.086 99.6028L130.697 99.3237C129.937 99.2906 129.393 98.5777 129.562 97.837L134.089 78.0833C134.221 77.5106 134.743 77.1132 135.33 77.1389L141.719 77.4176C142.48 77.4511 143.024 78.164 142.854 78.9047L141.244 85.93Z" fill="#020101"/>
<path d="M142.547 86.7306C141.191 85.8479 139.535 84.9009 138.874 85.0549C138.067 85.2429 139.564 87.373 140.634 88.7514C138.906 89.4439 136.614 90.4808 136.248 91.2384C135.995 91.7632 136.985 91.9347 138.213 91.9579C137.083 92.4986 136.098 93.083 135.869 93.5577C135.575 94.1655 136.95 94.2994 138.428 94.2779C137.123 94.8728 135.899 95.5489 135.64 96.085C135.203 96.9903 138.467 96.8442 140.263 96.6992L139.799 98.7219C139.668 99.2945 139.146 99.692 138.558 99.6663L132.169 99.3875C131.409 99.3544 130.864 98.6412 131.034 97.9005L135.561 78.1467C135.692 77.5741 136.214 77.1769 136.802 77.2023L143.191 77.4811C143.951 77.5145 144.495 78.2277 144.326 78.9681L142.547 86.7306Z" fill="#94C653"/>
<path fill-rule="evenodd" clip-rule="evenodd" d="M137.208 79.8196C137.059 80.467 136.677 80.9268 136.354 80.8461C136.031 80.7654 135.89 80.1752 136.039 79.5279C136.188 78.8802 136.57 78.4207 136.893 78.5014C137.216 78.5821 137.357 79.1723 137.208 79.8196Z" fill="#020101"/>
<path fill-rule="evenodd" clip-rule="evenodd" d="M136.461 83.1702C136.312 83.8175 135.93 84.2774 135.607 84.1967C135.284 84.116 135.143 83.5258 135.292 82.8785C135.441 82.2308 135.823 81.7713 136.146 81.852C136.469 81.9327 136.61 82.5229 136.461 83.1702Z" fill="#020101"/>
<path d="M81.7459 71.3504L77.4643 71.1441C77.4643 71.1441 78.5708 73.9914 79.7422 77.6526C82.0578 84.8905 87.551 86.5171 92.3372 86.509C96.8079 86.5019 98.327 82.2688 95.4212 77.3622C93.5511 74.2033 91.1229 72.2706 90.5705 71.8547C96.2157 72.2358 99.7309 72.9434 102.986 75.9918C109.184 81.7959 114.203 92.4956 116.267 103.066L104.94 108.113L100.906 123.676L71.2645 123.225C71.2645 123.225 71.5239 120.375 70.8847 116.255C70.0521 110.867 67.0465 106.847 67.0465 106.847L64.0652 111.371L45.5234 100.458C51.5937 89.4063 60.0607 78.011 65.706 74.385C69.6942 71.8223 73.3457 71.1791 76.9137 71.1441C78.5362 71.1282 80.1653 71.2384 81.7459 71.3504Z" fill="#94C653"/>
<path opacity="0.202962" d="M101.039 123.947C102.171 109.59 109.655 106.202 104.008 90.1006" stroke="black" stroke-width="3"/>
<path opacity="0.202055" d="M90.4539 71.7704C90.4539 71.7704 93.2965 73.7761 95.4198 77.3626C98.3256 82.2692 96.8065 86.5023 92.3358 86.5094C87.5496 86.5175 82.0564 84.8909 79.7408 77.653C78.5694 73.9918 77.4629 71.1445 77.4629 71.1445" stroke="black" stroke-width="3"/>
<path opacity="0.202962" d="M74.659 96.7959L67.7812 107.2" stroke="black" stroke-width="3"/>
</svg>
