<svg width="207" height="337" viewBox="0 0 207 337" fill="none" xmlns="http://www.w3.org/2000/svg">
<path d="M112.616 45.036C112.622 45.2654 112.625 45.4955 112.625 45.7263C112.625 45.8923 112.625 46.054 112.622 46.2203L112.625 46.2203L112.634 51.5349L112.692 90.5882L60.0676 90.6665L60.0012 46.2985L60.0648 46.2984C60.0219 45.6914 59.9996 45.0787 59.9987 44.461C59.9898 38.5036 61.9679 33.0065 65.3086 28.5945C59.2199 27.0335 54.7159 21.5211 54.7061 14.9538C54.6944 7.16444 61.0096 0.840258 68.8117 0.828629C76.6135 0.817001 82.9477 7.12215 82.9594 14.9115C82.9612 16.1232 82.8099 17.2995 82.5237 18.422C83.7478 18.2459 84.9991 18.1538 86.2716 18.1519C100.803 18.1301 112.601 29.8742 112.623 44.3828C112.623 44.6012 112.621 44.8189 112.616 45.036V45.036Z" fill="#19141E"/>
<path d="M86.0951 44.3857C86.5288 44.5219 86.9765 44.6384 87.4362 44.7337C87.8085 44.8129 88.1873 44.8764 88.5758 44.9239C89.1995 45.0071 89.8426 45.0462 90.4955 45.0452C94.6365 45.039 98.25 43.3703 100.185 40.8936C100.286 41.2883 100.403 41.6766 100.535 42.0575C100.606 42.2513 100.678 42.4525 100.76 42.646C101.279 43.9494 101.97 45.1574 102.803 46.235C103.964 47.7342 105.403 48.9829 107.038 49.8939C106.304 55.1351 104.504 62.1842 100.271 64.9957C97.942 66.5427 93.7067 66.733 90.0996 66.5251L89.2702 76.7582C89.2702 76.7582 83.4149 74.207 80.0619 72.3182C79.4831 71.994 78.9819 71.6875 78.5972 71.4161C78.6608 70.8135 78.8055 69.4111 78.989 67.6597V67.6527C79.3208 64.4989 79.7725 60.2104 80.069 57.3843C78.0925 54.3926 72.7102 53.7195 72.7031 49.5121C72.7031 48.2506 73.4408 46.0694 76.1655 46.0658C79.8219 46.0588 79.3031 50.4354 79.3031 50.4354C81.3744 51.2406 83.8418 48.1076 86.0951 44.3857Z" fill="#E576C6"/>
<path fill-rule="evenodd" clip-rule="evenodd" d="M100.021 51.7485L102.633 58.0702L99.6025 58.0096L100.021 51.7485Z" fill="#405FD3"/>
<path fill-rule="evenodd" clip-rule="evenodd" d="M97.2409 52.0227C97.1756 53.2856 96.4319 54.2695 95.5792 54.2205C94.7265 54.1715 94.088 53.108 94.153 51.8451C94.2183 50.5822 94.9619 49.598 95.8146 49.6473C96.6673 49.6963 97.3058 50.7598 97.2409 52.0227" fill="#0D0B6D"/>
<path fill-rule="evenodd" clip-rule="evenodd" d="M105.248 51.8209C105.182 53.0834 104.439 54.0676 103.586 54.0187C102.733 53.9697 102.095 52.9058 102.16 51.6433C102.225 50.3803 102.969 49.3961 103.821 49.4451C104.674 49.4941 105.313 50.5579 105.248 51.8209" fill="#0D0B6D"/>
<path d="M98.8598 61.0375C98.8598 61.0375 96.8855 61.6739 94.9072 59.4775" stroke="#1C295E" stroke-width="3"/>
<path opacity="0.401344" fill-rule="evenodd" clip-rule="evenodd" d="M90.0978 66.5241C90.0978 66.5241 85.5343 66.6587 83.5889 65.5977L89.8553 69.526L90.0978 66.5241Z" fill="black"/>
<path fill-rule="evenodd" clip-rule="evenodd" d="M102.717 306.438L103.565 299.053L96.1197 295.602L95.3479 316.754L124.413 316.704C118.485 310.565 102.717 306.438 102.717 306.438ZM59.4445 297.035L51.2069 297.214L51.2903 306.615C51.2903 306.615 43.3426 307.991 40.5889 316.754H61.2518L60.3564 306.196L59.4445 297.035Z" fill="#0D0B6D"/>
<path fill-rule="evenodd" clip-rule="evenodd" d="M60.3382 297.558L52.3027 294.739L51.2266 306.196L60.2927 306.615L60.3382 297.558ZM103.759 300.308L95.9488 297.209L95.7088 306.146L103.692 306.439L103.759 300.308Z" fill="#E576C6"/>
<path d="M49.4377 299.09C49.8061 287.634 52.1849 215.268 54.6292 172.214C56.323 142.373 68.9987 125.943 71.3776 123.104H101.58C101.635 123.486 105.7 152.217 106.444 212.336C107.112 266.176 106.423 295.605 106.337 299.066L106.337 299.068L107.302 299.066L107.308 303.701L91.6686 303.726L91.6624 299.091L92.2017 299.09L92.2017 299.09L84.2599 204.874L81.881 176.676L63.8245 299.066L63.8243 299.067L64.6053 299.066L64.3327 303.701L48.1406 303.727L48.4133 299.092L49.4377 299.09L49.4377 299.09Z" fill="#2F2F3D"/>
<path opacity="0.398065" fill-rule="evenodd" clip-rule="evenodd" d="M81.8809 176.677L85.1303 149.092L84.2587 204.874L81.8809 176.677Z" fill="#0A0A0F"/>
<path fill-rule="evenodd" clip-rule="evenodd" d="M95.4197 77.3617C93.2964 73.7751 90.4538 71.7694 90.4538 71.7694L77.4628 71.1436C77.4628 71.1436 78.5692 73.9908 79.7406 77.652C82.0563 84.8899 87.5495 86.5165 92.3357 86.5084C96.8064 86.5014 98.3255 82.2682 95.4197 77.3617ZM127.423 98.3888C127.19 96.1097 127.099 93.3829 127.824 92.4063C129.155 90.614 135.736 85.1962 135.736 85.1962L136.087 89.7174L137.644 84.4096C137.644 84.4096 139.369 84.9201 141.039 85.7924C142.243 86.4212 143.397 87.2739 144.121 87.8093L144.121 87.8093L144.122 87.8097C144.294 87.9368 144.442 88.046 144.56 88.1301C145.445 88.758 142.873 98.4196 141.039 100.158C139.78 101.352 136.068 102.277 133.865 102.74C129.658 109.523 118.445 126.473 112.251 125.074C105.815 123.622 99.8443 101.162 99.8443 101.162L110.699 95.8825L115.425 110.426L127.423 98.3888ZM53.663 147.61L56.3049 154.356C56.3049 154.356 56.7063 156.093 56.9306 158.145L56.9603 158.419C57.1649 160.315 57.3022 161.586 58.6019 164.526C59.5506 166.672 56.4805 166.031 55.6098 164.833C55.2886 164.39 55.0242 163.457 54.7493 162.487C54.2561 160.746 53.7293 158.886 52.7803 159.53C51.3025 160.533 50.8572 165.634 51.1878 170.451C51.2396 171.208 50.7135 171.826 50.3372 172.043C49.727 172.396 48.8364 169.415 48.8364 169.415C48.8364 169.415 48.5161 170.463 47.5444 170.025C47.2003 169.87 46.1754 167.842 46.1754 167.842C46.1754 167.842 45.3818 166.843 44.9644 165.727C44.2276 163.756 43.6261 160.099 43.7679 159.025C44.1029 156.492 44.8567 152.218 45.8475 149.85C45.2626 143.765 43.0202 119.337 44.2572 114.696C45.6729 109.387 48.4471 102.191 48.4471 102.191L59.0919 108.442L54.5285 118.169L53.663 147.61Z" fill="#E576C6"/>
<path fill-rule="evenodd" clip-rule="evenodd" d="M141.243 85.9295C140.263 85.3684 139.33 84.9485 138.873 85.055C138.073 85.2413 139.537 87.3358 140.605 88.715L140.593 88.7676C138.869 89.46 136.61 90.4868 136.247 91.2384C135.994 91.7633 136.984 91.9347 138.211 91.9579C137.082 92.4986 136.097 93.0831 135.867 93.5578C135.574 94.1656 136.949 94.2995 138.427 94.278C137.121 94.8729 135.898 95.5489 135.639 96.085C135.309 96.7687 137.089 96.8528 138.754 96.7905L138.326 98.6579C138.195 99.2306 137.673 99.628 137.085 99.6023L130.696 99.3232C129.936 99.2901 129.392 98.5772 129.561 97.8365L134.088 78.0828C134.22 77.5101 134.742 77.1127 135.329 77.1384L141.718 77.4171C142.479 77.4506 143.023 78.1635 142.853 78.9042L141.243 85.9295V85.9295Z" fill="#020101"/>
<path d="M142.546 86.7306C141.19 85.8479 139.534 84.9009 138.873 85.0549C138.066 85.2429 139.563 87.373 140.634 88.7514C138.905 89.4439 136.613 90.4808 136.247 91.2384C135.994 91.7632 136.984 91.9347 138.212 91.9579C137.082 92.4986 136.097 93.083 135.868 93.5577C135.574 94.1655 136.949 94.2994 138.428 94.2779C137.122 94.8728 135.898 95.5489 135.639 96.085C135.202 96.9903 138.466 96.8442 140.262 96.6992L139.798 98.7219C139.667 99.2945 139.145 99.692 138.557 99.6663L132.168 99.3875C131.408 99.3544 130.863 98.6412 131.033 97.9005L135.56 78.1467C135.691 77.5741 136.213 77.1769 136.801 77.2023L143.19 77.4811C143.95 77.5145 144.494 78.2277 144.325 78.9681L142.546 86.7306Z" fill="#94C653"/>
<path fill-rule="evenodd" clip-rule="evenodd" d="M137.207 79.8196C137.058 80.467 136.676 80.9268 136.353 80.8461C136.03 80.7654 135.889 80.1752 136.038 79.5279C136.187 78.8802 136.569 78.4207 136.892 78.5014C137.215 78.5821 137.356 79.1723 137.207 79.8196" fill="#020101"/>
<path fill-rule="evenodd" clip-rule="evenodd" d="M136.46 83.1697C136.311 83.8171 135.929 84.2769 135.606 84.1962C135.283 84.1155 135.142 83.5253 135.291 82.878C135.44 82.2303 135.822 81.7708 136.145 81.8515C136.468 81.9322 136.609 82.5224 136.46 83.1697" fill="#020101"/>
<path d="M81.7439 71.3499L77.4623 71.1436C77.4623 71.1436 78.5688 73.9909 79.7402 77.6521C82.0559 84.89 87.549 86.5166 92.3353 86.5085C96.806 86.5014 98.325 82.2683 95.4193 77.3617C93.5491 74.2028 91.1209 72.2702 90.5686 71.8543C96.2137 72.2353 99.729 72.9429 102.984 75.9913C109.182 81.7954 114.201 92.4951 116.265 103.066L104.938 108.112L100.904 123.676L71.2625 123.225C71.2625 123.225 71.522 120.374 70.8828 116.255C70.0502 110.867 67.0445 106.846 67.0445 106.846L64.0632 111.371L45.5215 100.457C51.5917 89.4058 60.0588 78.0105 65.7041 74.3845C69.6922 71.8218 73.3438 71.1786 76.9117 71.1436C78.5343 71.1277 80.1633 71.2379 81.7439 71.3499Z" fill="#94C653"/>
<path opacity="0.202962" d="M101.037 123.947C102.169 109.59 109.653 106.201 104.006 90.1001" stroke="black" stroke-width="3"/>
<path opacity="0.202055" d="M90.4539 71.7694C90.4539 71.7694 93.2965 73.7751 95.4198 77.3617C98.3256 82.2682 96.8065 86.5014 92.3358 86.5084C87.5496 86.5165 82.0564 84.8899 79.7408 77.652C78.5694 73.9908 77.4629 71.1436 77.4629 71.1436" stroke="black" stroke-width="3"/>
<path opacity="0.202962" d="M74.658 96.7954L67.7803 107.199" stroke="black" stroke-width="3"/>
</svg>
