<svg width="48" height="48" viewBox="0 0 48 48" fill="none" xmlns="http://www.w3.org/2000/svg">
<circle cx="24" cy="24" r="24" fill="#C4C4C4" fill-opacity="0.2"/>
<g clip-path="url(#clip0_58_9365)">
<path d="M11.0074 13.089C10.9426 12.5554 11.3146 12.0703 11.8482 12.0056C12.3818 11.9409 12.8669 12.3128 12.9316 12.8464L13.5137 17.3579C15.7129 14.0915 19.432 12.0702 23.4422 12.0702C28.5519 12.0702 33.0957 15.3204 34.7613 20.1392C34.9391 20.6404 34.6643 21.1902 34.163 21.3681C34.066 21.4004 33.9528 21.4166 33.8396 21.4166C33.4353 21.4166 33.0634 21.1578 32.9179 20.7697C31.5273 16.7272 27.7111 14.0106 23.4422 14.0106C19.9495 14.0106 16.6993 15.854 14.8882 18.797L19.7392 18.2472C20.2729 18.1825 20.7579 18.5706 20.8065 19.1043C20.855 19.6379 20.4831 20.123 19.9495 20.1715L12.9639 20.9638C12.9316 20.9638 12.8831 20.9638 12.8507 20.9638C12.3656 20.9638 11.9452 20.6081 11.8967 20.123L11.0074 13.089ZM35.0361 26.0736L28.0506 26.8659C27.517 26.9306 27.1289 27.3995 27.1936 27.9331C27.2583 28.4668 27.7272 28.8548 28.2608 28.7902L32.4812 28.3213C30.8318 31.7978 27.3229 34.0455 23.4259 34.0455C19.0439 34.0455 15.0983 31.1187 13.8371 26.9306C13.6754 26.4132 13.1417 26.1221 12.6243 26.2838C12.1069 26.4454 11.8158 26.9791 11.9775 27.4965C12.7051 29.9059 14.2251 32.0727 16.2302 33.5926C18.3162 35.1612 20.8064 36.002 23.4259 36.002C28.2123 36.002 32.4974 33.1561 34.3893 28.8386L35.0684 34.2233C35.1331 34.7084 35.5535 35.0641 36.0225 35.0641C36.071 35.0641 36.1033 35.0641 36.1518 35.0641C36.6854 34.9994 37.0574 34.5143 36.9926 33.9807L36.0872 26.9468C36.0387 26.397 35.5697 26.0251 35.0361 26.0736Z" fill="white"/>
</g>
<defs>
<clipPath id="clip0_58_9365">
<rect width="26" height="26" fill="white" transform="matrix(1 0 0 -1 11 37)"/>
</clipPath>
</defs>
</svg>
