<svg width="28" height="28" viewBox="0 0 28 28" fill="none" xmlns="http://www.w3.org/2000/svg">
<path d="M3.23183 11.6668C2.73016 11.6668 2.3335 11.2702 2.3335 10.7685V8.0735C2.3335 4.91183 4.91183 2.3335 8.0735 2.3335H10.7685C11.2702 2.3335 11.6668 2.73016 11.6668 3.23183C11.6668 3.7335 11.2702 4.13016 10.7685 4.13016H8.0735C5.89183 4.13016 4.13016 5.9035 4.13016 8.0735V10.7685C4.13016 11.2702 3.72183 11.6668 3.23183 11.6668Z" fill="white"/>
<path d="M24.7685 11.6668C24.2785 11.6668 23.8702 11.2702 23.8702 10.7685V8.0735C23.8702 5.89183 22.0968 4.13016 19.9268 4.13016H17.2318C16.7302 4.13016 16.3335 3.72183 16.3335 3.23183C16.3335 2.74183 16.7302 2.3335 17.2318 2.3335H19.9268C23.0885 2.3335 25.6668 4.91183 25.6668 8.0735V10.7685C25.6668 11.2702 25.2702 11.6668 24.7685 11.6668Z" fill="white"/>
<path d="M19.9267 25.6668H18.3051C17.8151 25.6668 17.4067 25.2701 17.4067 24.7685C17.4067 24.2785 17.8034 23.8701 18.3051 23.8701H19.9267C22.1084 23.8701 23.8701 22.0968 23.8701 19.9268V18.3168C23.8701 17.8268 24.2667 17.4185 24.7684 17.4185C25.2584 17.4185 25.6667 17.8151 25.6667 18.3168V19.9268C25.6667 23.0885 23.0884 25.6668 19.9267 25.6668Z" fill="white"/>
<path d="M10.7685 25.6668H8.0735C4.91183 25.6668 2.3335 23.0885 2.3335 19.9268V17.2318C2.3335 16.7302 2.73016 16.3335 3.23183 16.3335C3.7335 16.3335 4.13016 16.7302 4.13016 17.2318V19.9268C4.13016 22.1085 5.9035 23.8702 8.0735 23.8702H10.7685C11.2585 23.8702 11.6668 24.2668 11.6668 24.7685C11.6668 25.2702 11.2702 25.6668 10.7685 25.6668Z" fill="white"/>
<path d="M21.5366 13.1016H19.9499H8.04994H6.46327C5.96161 13.1016 5.56494 13.5099 5.56494 13.9999C5.56494 14.4899 5.96161 14.8982 6.46327 14.8982H8.04994H19.9499H21.5366C22.0383 14.8982 22.4349 14.4899 22.4349 13.9999C22.4349 13.5099 22.0383 13.1016 21.5366 13.1016Z" fill="white"/>
<path d="M8.0498 16.2636V16.6486C8.0498 18.5852 9.61314 20.1486 11.5498 20.1486H16.4498C18.3865 20.1486 19.9498 18.5852 19.9498 16.6486V16.2636C19.9498 16.1236 19.8448 16.0186 19.7048 16.0186H8.2948C8.1548 16.0186 8.0498 16.1236 8.0498 16.2636Z" fill="white"/>
<path d="M8.0498 11.7366V11.3516C8.0498 9.4149 9.61314 7.85156 11.5498 7.85156L16.4498 7.85156C18.3865 7.85156 19.9498 9.4149 19.9498 11.3516V11.7366C19.9498 11.8766 19.8448 11.9816 19.7048 11.9816H8.2948C8.1548 11.9816 8.0498 11.8766 8.0498 11.7366Z" fill="white"/>
</svg>
