<svg width="28" height="28" viewBox="0 0 28 28" fill="none" xmlns="http://www.w3.org/2000/svg">
<path d="M3.23231 11.6668C2.73064 11.6668 2.33398 11.2702 2.33398 10.7685V8.0735C2.33398 4.91183 4.91231 2.3335 8.07398 2.3335H10.769C11.2707 2.3335 11.6673 2.73016 11.6673 3.23183C11.6673 3.7335 11.2707 4.13016 10.769 4.13016H8.07398C5.89231 4.13016 4.13064 5.9035 4.13064 8.0735V10.7685C4.13064 11.2702 3.72231 11.6668 3.23231 11.6668Z" fill="white"/>
<path d="M24.769 11.6668C24.279 11.6668 23.8707 11.2702 23.8707 10.7685V8.0735C23.8707 5.89183 22.0973 4.13016 19.9273 4.13016H17.2323C16.7307 4.13016 16.334 3.72183 16.334 3.23183C16.334 2.74183 16.7307 2.3335 17.2323 2.3335H19.9273C23.089 2.3335 25.6673 4.91183 25.6673 8.0735V10.7685C25.6673 11.2702 25.2707 11.6668 24.769 11.6668Z" fill="white"/>
<path d="M19.9263 25.6668H18.3046C17.8146 25.6668 17.4062 25.2701 17.4062 24.7685C17.4062 24.2785 17.8029 23.8701 18.3046 23.8701H19.9263C22.108 23.8701 23.8696 22.0968 23.8696 19.9268V18.3168C23.8696 17.8268 24.2663 17.4185 24.768 17.4185C25.258 17.4185 25.6663 17.8151 25.6663 18.3168V19.9268C25.6663 23.0885 23.088 25.6668 19.9263 25.6668Z" fill="white"/>
<path d="M10.769 25.6668H8.07398C4.91231 25.6668 2.33398 23.0885 2.33398 19.9268V17.2318C2.33398 16.7302 2.73064 16.3335 3.23231 16.3335C3.73398 16.3335 4.13064 16.7302 4.13064 17.2318V19.9268C4.13064 22.1085 5.90398 23.8702 8.07398 23.8702H10.769C11.259 23.8702 11.6673 24.2668 11.6673 24.7685C11.6673 25.2702 11.2707 25.6668 10.769 25.6668Z" fill="white"/>
<path d="M21.5361 13.1016H19.9494H8.04945H6.46278C5.96112 13.1016 5.56445 13.5099 5.56445 13.9999C5.56445 14.4899 5.96112 14.8982 6.46278 14.8982H8.04945H19.9494H21.5361C22.0378 14.8982 22.4344 14.4899 22.4344 13.9999C22.4344 13.5099 22.0378 13.1016 21.5361 13.1016Z" fill="white"/>
</svg>
