<svg width="20" height="20" viewBox="0 0 20 20" fill="none" xmlns="http://www.w3.org/2000/svg">
<path d="M2.30866 8.33339C1.95032 8.33339 1.66699 8.05011 1.66699 7.69175V5.76675C1.66699 3.50841 3.50866 1.66675 5.76699 1.66675H7.69201C8.05036 1.66675 8.33365 1.95008 8.33365 2.30841C8.33365 2.66675 8.05036 2.95008 7.69201 2.95008H5.76699C4.20866 2.95008 2.95032 4.21675 2.95032 5.76675V7.69175C2.95032 8.05011 2.65866 8.33339 2.30866 8.33339Z" fill="white"/>
<path fill-rule="evenodd" clip-rule="evenodd" d="M5.76734 1.84542C3.60763 1.84542 1.84591 3.60714 1.84591 5.76685V7.69185C1.84591 7.95158 2.04928 8.15492 2.30901 8.15492C2.56191 8.15492 2.7721 7.95007 2.7721 7.69185V5.76685C2.7721 4.11857 4.11004 2.77161 5.76734 2.77161H7.69236C7.95208 2.77161 8.15543 2.56824 8.15543 2.30852C8.15543 2.04879 7.95208 1.84542 7.69236 1.84542H5.76734ZM1.48877 5.76685C1.48877 3.40989 3.41038 1.48828 5.76734 1.48828H7.69236C8.14935 1.48828 8.51257 1.85157 8.51257 2.30852C8.51257 2.76546 8.14935 3.12875 7.69236 3.12875H5.76734C4.30797 3.12875 3.12924 4.31513 3.12924 5.76685V7.69185C3.12924 8.15035 2.7561 8.51207 2.30901 8.51207C1.85206 8.51207 1.48877 8.14884 1.48877 7.69185V5.76685Z" fill="white"/>
<path d="M17.692 8.33339C17.342 8.33339 17.0504 8.05011 17.0504 7.69175V5.76675C17.0504 4.20841 15.7836 2.95008 14.2336 2.95008H12.3086C11.9503 2.95008 11.667 2.65841 11.667 2.30841C11.667 1.95841 11.9503 1.66675 12.3086 1.66675H14.2336C16.492 1.66675 18.3336 3.50841 18.3336 5.76675V7.69175C18.3336 8.05011 18.0503 8.33339 17.692 8.33339Z" fill="white"/>
<path fill-rule="evenodd" clip-rule="evenodd" d="M12.309 1.84542C12.0508 1.84542 11.8459 2.05563 11.8459 2.30852C11.8459 2.56141 12.0508 2.77161 12.309 2.77161H14.234C15.8823 2.77161 17.2293 4.10955 17.2293 5.76685V7.69185C17.2293 7.95008 17.4394 8.15492 17.6923 8.15492C17.9521 8.15492 18.1554 7.95159 18.1554 7.69185V5.76685C18.1554 3.60714 16.3937 1.84542 14.234 1.84542H12.309ZM11.4888 2.30852C11.4888 1.86141 11.8506 1.48828 12.309 1.48828H14.234C16.591 1.48828 18.5126 3.4099 18.5126 5.76685V7.69185C18.5126 8.14883 18.1493 8.51207 17.6923 8.51207C17.2452 8.51207 16.8721 8.15034 16.8721 7.69185V5.76685C16.8721 4.30749 15.6857 3.12875 14.234 3.12875H12.309C11.8506 3.12875 11.4888 2.75563 11.4888 2.30852Z" fill="white"/>
<path d="M14.2332 18.3335H13.0748C12.7248 18.3335 12.4331 18.0502 12.4331 17.6919C12.4331 17.3419 12.7165 17.0502 13.0748 17.0502H14.2332C15.7915 17.0502 17.0498 15.7835 17.0498 14.2335V13.0835C17.0498 12.7335 17.3332 12.4419 17.6915 12.4419C18.0415 12.4419 18.3332 12.7252 18.3332 13.0835V14.2335C18.3332 16.4919 16.4915 18.3335 14.2332 18.3335Z" fill="white"/>
<path fill-rule="evenodd" clip-rule="evenodd" d="M17.6914 12.6203C17.4331 12.6203 17.2283 12.8305 17.2283 13.0834V14.2334C17.2283 15.8817 15.8904 17.2286 14.233 17.2286H13.0747C12.8165 17.2286 12.6115 17.4389 12.6115 17.6918C12.6115 17.9499 12.8218 18.1548 13.0747 18.1548H14.233C16.3928 18.1548 18.1545 16.3931 18.1545 14.2334V13.0834C18.1545 12.8252 17.9443 12.6203 17.6914 12.6203ZM16.8711 13.0834C16.8711 12.6363 17.2329 12.2632 17.6914 12.2632C18.1385 12.2632 18.5116 12.6249 18.5116 13.0834V14.2334C18.5116 16.5904 16.59 18.512 14.233 18.512H13.0747C12.6276 18.512 12.2544 18.1502 12.2544 17.6918C12.2544 17.2446 12.6162 16.8715 13.0747 16.8715H14.233C15.6924 16.8715 16.8711 15.6851 16.8711 14.2334V13.0834Z" fill="white"/>
<path d="M7.69201 18.3334H5.76699C3.50866 18.3334 1.66699 16.4917 1.66699 14.2334V12.3084C1.66699 11.9501 1.95032 11.6667 2.30866 11.6667C2.66699 11.6667 2.95032 11.9501 2.95032 12.3084V14.2334C2.95032 15.7917 4.21699 17.0501 5.76699 17.0501H7.69201C8.04201 17.0501 8.33365 17.3334 8.33365 17.6917C8.33365 18.0501 8.05036 18.3334 7.69201 18.3334Z" fill="white"/>
<path fill-rule="evenodd" clip-rule="evenodd" d="M2.30901 11.8454C2.04929 11.8454 1.84591 12.0488 1.84591 12.3085V14.2335C1.84591 16.3932 3.60763 18.1549 5.76734 18.1549H7.69236C7.95209 18.1549 8.15543 17.9516 8.15543 17.6919C8.15543 17.4336 7.94525 17.2288 7.69236 17.2288H5.76734C4.11906 17.2288 2.7721 15.8908 2.7721 14.2335V12.3085C2.7721 12.0488 2.56872 11.8454 2.30901 11.8454ZM1.48877 12.3085C1.48877 11.8516 1.85205 11.4883 2.30901 11.4883C2.76596 11.4883 3.12924 11.8516 3.12924 12.3085V14.2335C3.12924 15.6929 4.31562 16.8716 5.76734 16.8716H7.69236C8.13946 16.8716 8.51257 17.2334 8.51257 17.6919C8.51257 18.1488 8.14934 18.5121 7.69236 18.5121H5.76734C3.41038 18.5121 1.48877 16.5905 1.48877 14.2335V12.3085Z" fill="white"/>
<path d="M15.3829 9.3584H14.2496H5.74961H4.61627C4.25795 9.3584 3.97461 9.65004 3.97461 10C3.97461 10.35 4.25795 10.6417 4.61627 10.6417H5.74961H14.2496H15.3829C15.7413 10.6417 16.0246 10.35 16.0246 10C16.0246 9.65004 15.7413 9.3584 15.3829 9.3584Z" fill="white"/>
<path fill-rule="evenodd" clip-rule="evenodd" d="M3.7959 9.9999C3.7959 9.55278 4.15769 9.17969 4.61613 9.17969H15.3828C15.8413 9.17969 16.203 9.5528 16.203 9.9999C16.203 10.447 15.8413 10.8201 15.3828 10.8201H4.61613C4.15769 10.8201 3.7959 10.447 3.7959 9.9999ZM4.61613 9.53683C4.35793 9.53683 4.15304 9.74702 4.15304 9.9999C4.15304 10.2528 4.35793 10.463 4.61613 10.463H15.3828C15.641 10.463 15.8459 10.2528 15.8459 9.9999C15.8459 9.74701 15.641 9.53683 15.3828 9.53683H4.61613Z" fill="white"/>
</svg>
