<svg width="92" height="136" viewBox="0 0 92 136" fill="none" xmlns="http://www.w3.org/2000/svg">
<path fill-rule="evenodd" clip-rule="evenodd" d="M88.6973 21.8575L80.7738 135.669H11.1918L3.26919 21.8575C3.01918 18.2932 5.86776 15.2666 9.4698 15.2666H82.4963C86.0983 15.2666 88.9473 18.2932 88.6973 21.8575" fill="white"/>
<path fill-rule="evenodd" clip-rule="evenodd" d="M91.6709 22.4224H0V17.5961C0 13.2331 3.56669 9.69629 7.96692 9.69629H83.7044C88.1042 9.69629 91.6709 13.2331 91.6709 17.5961V22.4224Z" fill="white"/>
<path fill-rule="evenodd" clip-rule="evenodd" d="M88.7131 28.1757H3.25391V22.2627H88.7131V28.1757Z" fill="#F4F4F4"/>
<path fill-rule="evenodd" clip-rule="evenodd" d="M29.1211 11.3678H32.8237V3.21582H29.1211V11.3678Z" fill="white"/>
<path fill-rule="evenodd" clip-rule="evenodd" d="M57.835 10.6056H61.5375V2.45361H57.835V10.6056Z" fill="white"/>
<path fill-rule="evenodd" clip-rule="evenodd" d="M29.1211 4.51588H61.5378V0H29.1211V4.51588Z" fill="white"/>
<path fill-rule="evenodd" clip-rule="evenodd" d="M55.8477 78.4288L68.2728 70.8447L73.8394 81.8084C75.1842 87.7984 67.8153 89.9963 61.8985 89.6393L55.8477 78.4288V78.4288Z" fill="#94C653"/>
<path fill-rule="evenodd" clip-rule="evenodd" d="M53.0237 86.2598L46.4893 98.0475L53.0237 110L53.1854 105.219H59.1558C61.3344 105.411 64.1576 103.955 65.2067 101.84L72.8714 87.4962C70.3433 90.0518 67.0924 90.711 63.3514 90.711H53.2659L53.0237 86.2598V86.2598Z" fill="#94C653"/>
<path fill-rule="evenodd" clip-rule="evenodd" d="M38.4224 71.7266L25.9023 64.3089L32.5818 54.014C37.0551 49.9057 42.5129 55.4212 45.0787 60.8797L38.4224 71.7266V71.7266Z" fill="#94C653"/>
<path fill-rule="evenodd" clip-rule="evenodd" d="M46.4953 70.4482L59.7541 70.5642L66.8099 58.925L62.6404 61.1015L59.7425 55.768C58.8501 53.7288 56.2335 51.9132 53.9135 52.0032L37.9199 52.1185C41.3332 53.1364 43.4756 55.72 45.2918 59.0625L50.187 68.0714L46.4953 70.4482V70.4482Z" fill="#94C653"/>
<path fill-rule="evenodd" clip-rule="evenodd" d="M16.322 71.1124L20.2013 74.1432L16.5502 81.1375C14.7246 84.3634 17.8608 87.5051 19.8591 88.5989C21.8262 89.6757 24.8792 89.8035 27.7319 89.7644L32.8663 81.371L36.7451 83.4692L30.0135 70.9956L16.3218 71.1124H16.322Z" fill="#94C653"/>
<path fill-rule="evenodd" clip-rule="evenodd" d="M16.8926 87.3169L25.2214 102.705C26.8955 104.842 30.0521 105.347 33.3226 105.27H42.1082V90.6973L25.4498 90.5805C22.8636 90.7365 19.4787 90.1925 16.8926 87.3169V87.3169Z" fill="#94C653"/>
</svg>
