<svg width="284" height="504" viewBox="0 0 284 504" fill="none" xmlns="http://www.w3.org/2000/svg">
<path fill-rule="evenodd" clip-rule="evenodd" d="M169.747 325.432C169.747 355.67 150.051 372.54 124.398 372.54C98.7439 372.54 79.0479 355.67 79.0479 325.432C79.0479 261.765 107.993 188.368 124.398 188.368C140.802 188.368 169.747 261.765 169.747 325.432" fill="#337620"/>
<path d="M124.397 280.454V420.023" stroke="#8C533C" stroke-width="4" stroke-linecap="square"/>
<path d="M124.501 280.429V372.75" stroke="#225413" stroke-width="4" stroke-linecap="square"/>
<path d="M124.939 354.39L140.99 338.309" stroke="#225413" stroke-width="4" stroke-linecap="square"/>
<path d="M123.054 323.749L109.92 310.59" stroke="#225413" stroke-width="4" stroke-linecap="square"/>
<path d="M125.188 303.135L135.215 293.089" stroke="#225413" stroke-width="4" stroke-linecap="square"/>
<path fill-rule="evenodd" clip-rule="evenodd" d="M284.733 284.732C284.733 330.914 254.596 356.679 215.343 356.679C176.089 356.679 145.952 330.914 145.952 284.732C145.952 187.496 190.241 75.3984 215.343 75.3984C240.444 75.3984 284.733 187.496 284.733 284.732" fill="#6DAC34"/>
<path d="M215.343 216.039V429.198" stroke="#8C533C" stroke-width="4" stroke-linecap="square"/>
<path d="M215.5 216V357" stroke="#357823" stroke-width="4" stroke-linecap="square"/>
<path d="M216.172 328.959L240.731 304.398" stroke="#357823" stroke-width="4" stroke-linecap="square"/>
<path d="M213.287 282.162L193.19 262.064" stroke="#357823" stroke-width="4" stroke-linecap="square"/>
<path d="M216.553 250.679L231.894 235.336" stroke="#357823" stroke-width="4" stroke-linecap="square"/>
</svg>
